<svg xmlns="http://www.w3.org/2000/svg" xmlns:xlink="http://www.w3.org/1999/xlink" width="500" zoomAndPan="magnify" viewBox="0 0 375 374.999991" height="500" preserveAspectRatio="xMidYMid meet" version="1.0"><defs><g/><clipPath id="586c892ff8"><path d="M 81 13.109375 L 326.375 13.109375 L 326.375 162 L 81 162 Z M 81 13.109375 " clip-rule="nonzero"/></clipPath><clipPath id="ae0f885763"><path d="M 48.875 60 L 284 60 L 284 288.359375 L 48.875 288.359375 Z M 48.875 60 " clip-rule="nonzero"/></clipPath><clipPath id="57ea9bc5e4"><rect x="0" width="99" y="0" height="10"/></clipPath></defs><g clip-path="url(#586c892ff8)"><path fill="#e6cf59" d="M 188.554688 161.585938 L 81.238281 41.867188 L 97.871094 13.109375 L 271.363281 13.109375 L 326.324219 91.164062 L 298.84375 132.304688 L 318.523438 92.644531 L 263.9375 31.488281 L 109.832031 31.488281 L 103.890625 41.125 Z M 188.554688 161.585938 " fill-opacity="1" fill-rule="evenodd"/></g><g clip-path="url(#ae0f885763)"><path fill="#e6cf59" d="M 216.777344 80.042969 L 264.308594 155.65625 L 186.328125 257.582031 L 54.5 91.164062 L 70.097656 60.769531 L 48.929688 91.535156 L 186.328125 288.347656 L 283.988281 156.027344 Z M 216.777344 80.042969 " fill-opacity="1" fill-rule="evenodd"/></g><g fill="#e6cf59" fill-opacity="1"><g transform="translate(56.27486, 314.008427)"><g><path d="M 0.828125 -0.15625 C 1.097656 -0.15625 1.320312 -0.25 1.5 -0.4375 C 1.6875 -0.625 1.785156 -0.847656 1.796875 -1.109375 L 1.796875 -9.546875 C 1.773438 -9.804688 1.703125 -10 1.578125 -10.125 C 1.335938 -10.34375 1.085938 -10.453125 0.828125 -10.453125 L 0.640625 -10.453125 L 0.640625 -10.609375 L 6.4375 -10.609375 C 6.9375 -10.609375 7.347656 -10.644531 7.671875 -10.71875 C 7.992188 -10.800781 8.191406 -10.851562 8.265625 -10.875 L 8.265625 -8.234375 L 8.109375 -8.25 L 8.109375 -8.40625 C 8.109375 -9.03125 7.875 -9.476562 7.40625 -9.75 C 7.1875 -9.875 6.925781 -9.941406 6.625 -9.953125 L 4.078125 -9.953125 L 4.078125 -5.546875 L 6.078125 -5.546875 C 6.453125 -5.554688 6.757812 -5.6875 7 -5.9375 C 7.238281 -6.1875 7.359375 -6.488281 7.359375 -6.84375 L 7.359375 -6.984375 L 7.515625 -6.984375 L 7.515625 -3.484375 L 7.359375 -3.484375 L 7.359375 -3.609375 C 7.359375 -3.984375 7.238281 -4.289062 7 -4.53125 C 6.769531 -4.769531 6.472656 -4.894531 6.109375 -4.90625 L 4.078125 -4.90625 L 4.078125 -0.65625 L 6.0625 -0.65625 C 6.800781 -0.65625 7.421875 -0.863281 7.921875 -1.28125 C 8.421875 -1.707031 8.789062 -2.3125 9.03125 -3.09375 L 9.1875 -3.09375 L 8.484375 0 L 0.640625 0 L 0.640625 -0.15625 Z M 0.828125 -0.15625 "/></g></g></g><g fill="#e6cf59" fill-opacity="1"><g transform="translate(72.704226, 314.008427)"><g><path d="M 4.8125 -9.9375 L 4.171875 -9.9375 C 4.148438 -9.9375 4.132812 -9.9375 4.125 -9.9375 L 4.125 -1.109375 C 4.132812 -0.847656 4.234375 -0.625 4.421875 -0.4375 C 4.609375 -0.25 4.832031 -0.15625 5.09375 -0.15625 L 5.296875 -0.15625 L 5.296875 0 L 0.6875 0 L 0.6875 -0.15625 L 0.875 -0.15625 C 1.238281 -0.15625 1.519531 -0.3125 1.71875 -0.625 C 1.789062 -0.757812 1.832031 -0.914062 1.84375 -1.09375 L 1.84375 -9.5 C 1.832031 -9.757812 1.734375 -9.984375 1.546875 -10.171875 C 1.359375 -10.359375 1.132812 -10.453125 0.875 -10.453125 L 0.6875 -10.453125 L 0.6875 -10.609375 L 5.875 -10.609375 C 6.851562 -10.609375 7.679688 -10.394531 8.359375 -9.96875 C 8.703125 -9.757812 8.972656 -9.460938 9.171875 -9.078125 C 9.378906 -8.703125 9.484375 -8.207031 9.484375 -7.59375 C 9.484375 -6.988281 9.269531 -6.398438 8.84375 -5.828125 C 8.425781 -5.265625 7.8125 -4.941406 7 -4.859375 C 7.582031 -4.671875 8.097656 -4.226562 8.546875 -3.53125 C 9.640625 -1.78125 10.445312 -0.738281 10.96875 -0.40625 C 11.238281 -0.25 11.566406 -0.164062 11.953125 -0.15625 L 11.953125 0 L 10.46875 0 C 9.59375 0 8.863281 -0.113281 8.28125 -0.34375 C 7.695312 -0.582031 7.238281 -0.992188 6.90625 -1.578125 C 6.71875 -1.910156 6.300781 -2.773438 5.65625 -4.171875 C 5.375 -4.785156 5.03125 -5.125 4.625 -5.1875 L 4.625 -5.328125 L 5.09375 -5.328125 C 5.550781 -5.328125 5.953125 -5.460938 6.296875 -5.734375 C 6.648438 -6.015625 6.882812 -6.460938 7 -7.078125 C 7.039062 -7.285156 7.0625 -7.453125 7.0625 -7.578125 C 7.0625 -8.410156 6.894531 -9.007812 6.5625 -9.375 C 6.226562 -9.738281 5.800781 -9.925781 5.28125 -9.9375 C 5.175781 -9.9375 5.019531 -9.9375 4.8125 -9.9375 Z M 4.8125 -9.9375 "/></g></g></g><g fill="#e6cf59" fill-opacity="1"><g transform="translate(90.891255, 314.008427)"><g><path d="M 0.828125 -0.15625 C 1.097656 -0.15625 1.320312 -0.25 1.5 -0.4375 C 1.6875 -0.625 1.785156 -0.847656 1.796875 -1.109375 L 1.796875 -9.546875 C 1.773438 -9.804688 1.703125 -10 1.578125 -10.125 C 1.335938 -10.34375 1.085938 -10.453125 0.828125 -10.453125 L 0.640625 -10.453125 L 0.640625 -10.609375 L 6.4375 -10.609375 C 6.9375 -10.609375 7.347656 -10.644531 7.671875 -10.71875 C 7.992188 -10.800781 8.191406 -10.851562 8.265625 -10.875 L 8.265625 -8.234375 L 8.109375 -8.25 L 8.109375 -8.40625 C 8.109375 -9.03125 7.875 -9.476562 7.40625 -9.75 C 7.1875 -9.875 6.925781 -9.941406 6.625 -9.953125 L 4.078125 -9.953125 L 4.078125 -5.546875 L 6.078125 -5.546875 C 6.453125 -5.554688 6.757812 -5.6875 7 -5.9375 C 7.238281 -6.1875 7.359375 -6.488281 7.359375 -6.84375 L 7.359375 -6.984375 L 7.515625 -6.984375 L 7.515625 -3.484375 L 7.359375 -3.484375 L 7.359375 -3.609375 C 7.359375 -3.984375 7.238281 -4.289062 7 -4.53125 C 6.769531 -4.769531 6.472656 -4.894531 6.109375 -4.90625 L 4.078125 -4.90625 L 4.078125 -0.65625 L 6.0625 -0.65625 C 6.800781 -0.65625 7.421875 -0.863281 7.921875 -1.28125 C 8.421875 -1.707031 8.789062 -2.3125 9.03125 -3.09375 L 9.1875 -3.09375 L 8.484375 0 L 0.640625 0 L 0.640625 -0.15625 Z M 0.828125 -0.15625 "/></g></g></g><g fill="#e6cf59" fill-opacity="1"><g transform="translate(107.320622, 314.008427)"><g><path d="M 12.375 -10.453125 C 12.03125 -10.453125 11.765625 -10.300781 11.578125 -10 C 11.492188 -9.875 11.445312 -9.722656 11.4375 -9.546875 L 11.4375 -1.734375 C 11.4375 -1.054688 11.484375 -0.484375 11.578125 -0.015625 L 11.625 0.21875 L 11.484375 0.21875 L 3.828125 -7.078125 L 3.828125 -1.0625 C 3.828125 -0.8125 3.914062 -0.597656 4.09375 -0.421875 C 4.28125 -0.242188 4.503906 -0.15625 4.765625 -0.15625 L 5.046875 -0.15625 L 5.046875 0 L 0.453125 0 L 0.453125 -0.15625 L 0.734375 -0.15625 C 0.992188 -0.15625 1.210938 -0.242188 1.390625 -0.421875 C 1.578125 -0.597656 1.671875 -0.816406 1.671875 -1.078125 L 1.671875 -8.9375 C 1.671875 -9.601562 1.625 -10.160156 1.53125 -10.609375 L 1.5 -10.84375 L 1.640625 -10.84375 L 9.296875 -3.546875 L 9.296875 -9.53125 C 9.285156 -9.789062 9.1875 -10.007812 9 -10.1875 C 8.820312 -10.363281 8.601562 -10.453125 8.34375 -10.453125 L 8.078125 -10.453125 L 8.078125 -10.609375 L 12.671875 -10.609375 L 12.671875 -10.453125 Z M 12.375 -10.453125 "/></g></g></g><g fill="#e6cf59" fill-opacity="1"><g transform="translate(127.29563, 314.008427)"><g/></g></g><g fill="#e6cf59" fill-opacity="1"><g transform="translate(137.951956, 314.008427)"><g><path d="M 0.828125 -0.15625 C 1.097656 -0.15625 1.320312 -0.25 1.5 -0.4375 C 1.6875 -0.625 1.785156 -0.847656 1.796875 -1.109375 L 1.796875 -9.515625 C 1.785156 -9.878906 1.617188 -10.15625 1.296875 -10.34375 C 1.160156 -10.414062 1.003906 -10.453125 0.828125 -10.453125 L 0.640625 -10.453125 L 0.640625 -10.609375 L 5.25 -10.609375 L 5.234375 -10.453125 L 5.046875 -10.453125 C 4.679688 -10.453125 4.40625 -10.296875 4.21875 -9.984375 C 4.125 -9.847656 4.078125 -9.691406 4.078125 -9.515625 L 4.078125 -1.109375 C 4.078125 -0.847656 4.171875 -0.625 4.359375 -0.4375 C 4.554688 -0.25 4.785156 -0.15625 5.046875 -0.15625 L 5.234375 -0.15625 L 5.25 0 L 0.640625 0 L 0.640625 -0.15625 Z M 11.78125 0 L 10.53125 0 C 9 0 7.914062 -0.421875 7.28125 -1.265625 C 5.46875 -3.710938 4.5625 -4.957031 4.5625 -5 L 8.15625 -9.765625 C 8.238281 -9.859375 8.28125 -9.945312 8.28125 -10.03125 C 8.28125 -10.113281 8.265625 -10.1875 8.234375 -10.25 C 8.148438 -10.394531 8.007812 -10.46875 7.8125 -10.46875 L 7.65625 -10.46875 L 7.65625 -10.609375 L 11.125 -10.609375 L 11.125 -10.46875 L 11.0625 -10.46875 C 10.382812 -10.46875 9.832031 -10.226562 9.40625 -9.75 L 6.453125 -6.25 L 10.234375 -1.09375 C 10.691406 -0.488281 11.207031 -0.175781 11.78125 -0.15625 Z M 11.78125 0 "/></g></g></g><g fill="#e6cf59" fill-opacity="1"><g transform="translate(156.290517, 314.008427)"><g><path d="M 11.96875 -10.453125 L 11.71875 -10.453125 C 11.5 -10.453125 11.3125 -10.382812 11.15625 -10.25 C 11.007812 -10.113281 10.929688 -9.945312 10.921875 -9.75 L 10.921875 -3.828125 C 10.921875 -2.585938 10.53125 -1.601562 9.75 -0.875 C 8.976562 -0.144531 7.914062 0.21875 6.5625 0.21875 C 4.96875 0.21875 3.742188 -0.132812 2.890625 -0.84375 C 2.046875 -1.5625 1.625 -2.550781 1.625 -3.8125 L 1.625 -9.703125 C 1.613281 -10.003906 1.476562 -10.222656 1.21875 -10.359375 C 1.09375 -10.421875 0.957031 -10.453125 0.8125 -10.453125 L 0.578125 -10.453125 L 0.578125 -10.609375 L 4.9375 -10.609375 L 4.9375 -10.453125 L 4.703125 -10.453125 C 4.472656 -10.453125 4.28125 -10.382812 4.125 -10.25 C 3.976562 -10.113281 3.898438 -9.941406 3.890625 -9.734375 L 3.890625 -3.9375 C 3.890625 -2.863281 4.148438 -2.015625 4.671875 -1.390625 C 5.203125 -0.765625 5.925781 -0.453125 6.84375 -0.453125 C 7.769531 -0.453125 8.5 -0.75 9.03125 -1.34375 C 9.570312 -1.9375 9.847656 -2.738281 9.859375 -3.75 L 9.859375 -9.734375 C 9.835938 -10.023438 9.695312 -10.234375 9.4375 -10.359375 C 9.320312 -10.421875 9.191406 -10.453125 9.046875 -10.453125 L 8.8125 -10.453125 L 8.8125 -10.609375 L 11.96875 -10.609375 Z M 11.96875 -10.453125 "/></g></g></g><g fill="#e6cf59" fill-opacity="1"><g transform="translate(175.598827, 314.008427)"><g><path d="M 11.140625 -10.453125 L 10.921875 -10.453125 C 10.617188 -10.453125 10.332031 -10.363281 10.0625 -10.1875 C 9.789062 -10.019531 9.570312 -9.816406 9.40625 -9.578125 L 6.421875 -4.8125 L 6.421875 -1.109375 C 6.421875 -0.847656 6.515625 -0.625 6.703125 -0.4375 C 6.898438 -0.25 7.128906 -0.15625 7.390625 -0.15625 L 7.578125 -0.15625 L 7.59375 0 L 2.984375 0 L 2.984375 -0.15625 L 3.1875 -0.15625 C 3.445312 -0.15625 3.671875 -0.242188 3.859375 -0.421875 C 4.046875 -0.609375 4.144531 -0.832031 4.15625 -1.09375 L 4.15625 -4.828125 L 1.265625 -9.59375 C 1.109375 -9.832031 0.890625 -10.035156 0.609375 -10.203125 C 0.335938 -10.367188 0.0546875 -10.453125 -0.234375 -10.453125 L -0.453125 -10.453125 L -0.453125 -10.609375 L 4.5625 -10.609375 L 4.5625 -10.453125 L 4.359375 -10.453125 C 4.140625 -10.453125 3.96875 -10.351562 3.84375 -10.15625 C 3.789062 -10.039062 3.765625 -9.929688 3.765625 -9.828125 C 3.765625 -9.722656 3.785156 -9.617188 3.828125 -9.515625 L 6 -5.578125 L 8.265625 -9.515625 C 8.316406 -9.617188 8.34375 -9.722656 8.34375 -9.828125 C 8.34375 -9.929688 8.304688 -10.035156 8.234375 -10.140625 C 8.109375 -10.347656 7.9375 -10.453125 7.71875 -10.453125 L 7.53125 -10.453125 L 7.53125 -10.609375 L 11.140625 -10.609375 Z M 11.140625 -10.453125 "/></g></g></g><g fill="#e6cf59" fill-opacity="1"><g transform="translate(193.104006, 314.008427)"><g><path d="M 11.96875 -10.453125 L 11.71875 -10.453125 C 11.5 -10.453125 11.3125 -10.382812 11.15625 -10.25 C 11.007812 -10.113281 10.929688 -9.945312 10.921875 -9.75 L 10.921875 -3.828125 C 10.921875 -2.585938 10.53125 -1.601562 9.75 -0.875 C 8.976562 -0.144531 7.914062 0.21875 6.5625 0.21875 C 4.96875 0.21875 3.742188 -0.132812 2.890625 -0.84375 C 2.046875 -1.5625 1.625 -2.550781 1.625 -3.8125 L 1.625 -9.703125 C 1.613281 -10.003906 1.476562 -10.222656 1.21875 -10.359375 C 1.09375 -10.421875 0.957031 -10.453125 0.8125 -10.453125 L 0.578125 -10.453125 L 0.578125 -10.609375 L 4.9375 -10.609375 L 4.9375 -10.453125 L 4.703125 -10.453125 C 4.472656 -10.453125 4.28125 -10.382812 4.125 -10.25 C 3.976562 -10.113281 3.898438 -9.941406 3.890625 -9.734375 L 3.890625 -3.9375 C 3.890625 -2.863281 4.148438 -2.015625 4.671875 -1.390625 C 5.203125 -0.765625 5.925781 -0.453125 6.84375 -0.453125 C 7.769531 -0.453125 8.5 -0.75 9.03125 -1.34375 C 9.570312 -1.9375 9.847656 -2.738281 9.859375 -3.75 L 9.859375 -9.734375 C 9.835938 -10.023438 9.695312 -10.234375 9.4375 -10.359375 C 9.320312 -10.421875 9.191406 -10.453125 9.046875 -10.453125 L 8.8125 -10.453125 L 8.8125 -10.609375 L 11.96875 -10.609375 Z M 11.96875 -10.453125 "/></g></g></g><g fill="#e6cf59" fill-opacity="1"><g transform="translate(212.412316, 314.008427)"><g><path d="M 14.359375 -0.15625 L 14.59375 -0.15625 L 14.59375 0 L 10.046875 0 L 10.046875 -0.140625 L 10.28125 -0.140625 C 10.445312 -0.148438 10.585938 -0.21875 10.703125 -0.34375 C 10.828125 -0.476562 10.878906 -0.625 10.859375 -0.78125 L 10.28125 -6.296875 L 7.421875 -1.375 C 7.046875 -0.75 6.851562 -0.191406 6.84375 0.296875 L 6.703125 0.296875 L 2.796875 -6.25 L 2.21875 -0.78125 C 2.195312 -0.625 2.242188 -0.476562 2.359375 -0.34375 C 2.484375 -0.207031 2.628906 -0.140625 2.796875 -0.140625 L 3.03125 -0.140625 L 3.03125 0 L -0.140625 0 L -0.140625 -0.15625 L 0.109375 -0.15625 C 0.390625 -0.15625 0.632812 -0.238281 0.84375 -0.40625 C 1.050781 -0.582031 1.175781 -0.816406 1.21875 -1.109375 L 2.46875 -10.828125 L 2.609375 -10.828125 L 7.3125 -3.09375 L 11.828125 -10.828125 L 11.953125 -10.828125 L 13.25 -1.109375 C 13.300781 -0.816406 13.425781 -0.582031 13.625 -0.40625 C 13.832031 -0.238281 14.078125 -0.15625 14.359375 -0.15625 Z M 14.359375 -0.15625 "/></g></g></g><g fill="#e6cf59" fill-opacity="1"><g transform="translate(233.720732, 314.008427)"><g><path d="M 6.9375 0.203125 C 4.988281 0.203125 3.457031 -0.285156 2.34375 -1.265625 C 1.238281 -2.253906 0.6875 -3.597656 0.6875 -5.296875 C 0.6875 -7.003906 1.234375 -8.351562 2.328125 -9.34375 C 3.429688 -10.332031 4.941406 -10.828125 6.859375 -10.828125 C 8.328125 -10.828125 9.585938 -10.550781 10.640625 -10 L 10.671875 -7.390625 L 10.546875 -7.390625 C 10.035156 -9.253906 8.859375 -10.1875 7.015625 -10.1875 C 5.828125 -10.1875 4.882812 -9.753906 4.1875 -8.890625 C 3.5 -8.023438 3.15625 -6.84375 3.15625 -5.34375 C 3.15625 -3.851562 3.484375 -2.664062 4.140625 -1.78125 C 4.804688 -0.90625 5.703125 -0.453125 6.828125 -0.421875 C 8.003906 -0.421875 8.898438 -0.710938 9.515625 -1.296875 C 10.140625 -1.910156 10.578125 -2.953125 10.828125 -4.421875 L 10.9375 -4.421875 L 11.09375 -1.8125 C 10.269531 -0.457031 8.882812 0.210938 6.9375 0.203125 Z M 6.9375 0.203125 "/></g></g></g><g fill="#e6cf59" fill-opacity="1"><g transform="translate(252.407789, 314.008427)"><g><path d="M 11.96875 -10.453125 L 11.71875 -10.453125 C 11.5 -10.453125 11.3125 -10.382812 11.15625 -10.25 C 11.007812 -10.113281 10.929688 -9.945312 10.921875 -9.75 L 10.921875 -3.828125 C 10.921875 -2.585938 10.53125 -1.601562 9.75 -0.875 C 8.976562 -0.144531 7.914062 0.21875 6.5625 0.21875 C 4.96875 0.21875 3.742188 -0.132812 2.890625 -0.84375 C 2.046875 -1.5625 1.625 -2.550781 1.625 -3.8125 L 1.625 -9.703125 C 1.613281 -10.003906 1.476562 -10.222656 1.21875 -10.359375 C 1.09375 -10.421875 0.957031 -10.453125 0.8125 -10.453125 L 0.578125 -10.453125 L 0.578125 -10.609375 L 4.9375 -10.609375 L 4.9375 -10.453125 L 4.703125 -10.453125 C 4.472656 -10.453125 4.28125 -10.382812 4.125 -10.25 C 3.976562 -10.113281 3.898438 -9.941406 3.890625 -9.734375 L 3.890625 -3.9375 C 3.890625 -2.863281 4.148438 -2.015625 4.671875 -1.390625 C 5.203125 -0.765625 5.925781 -0.453125 6.84375 -0.453125 C 7.769531 -0.453125 8.5 -0.75 9.03125 -1.34375 C 9.570312 -1.9375 9.847656 -2.738281 9.859375 -3.75 L 9.859375 -9.734375 C 9.835938 -10.023438 9.695312 -10.234375 9.4375 -10.359375 C 9.320312 -10.421875 9.191406 -10.453125 9.046875 -10.453125 L 8.8125 -10.453125 L 8.8125 -10.609375 L 11.96875 -10.609375 Z M 11.96875 -10.453125 "/></g></g></g><g fill="#e6cf59" fill-opacity="1"><g transform="translate(271.716099, 314.008427)"><g><path d="M 0.828125 -0.15625 C 1.097656 -0.15625 1.320312 -0.25 1.5 -0.4375 C 1.6875 -0.625 1.785156 -0.847656 1.796875 -1.109375 L 1.796875 -9.5 C 1.785156 -9.757812 1.6875 -9.984375 1.5 -10.171875 C 1.320312 -10.359375 1.097656 -10.453125 0.828125 -10.453125 L 0.640625 -10.453125 L 0.640625 -10.609375 L 5.25 -10.609375 L 5.234375 -10.453125 L 5.046875 -10.453125 C 4.785156 -10.453125 4.554688 -10.359375 4.359375 -10.171875 C 4.171875 -9.984375 4.078125 -9.757812 4.078125 -9.5 L 4.078125 -0.65625 L 6.0625 -0.65625 C 6.800781 -0.65625 7.421875 -0.863281 7.921875 -1.28125 C 8.421875 -1.707031 8.789062 -2.3125 9.03125 -3.09375 L 9.1875 -3.09375 L 8.484375 0 L 0.640625 0 L 0.640625 -0.15625 Z M 0.828125 -0.15625 "/></g></g></g><g fill="#e6cf59" fill-opacity="1"><g transform="translate(287.918185, 314.008427)"><g><path d="M 11.96875 -10.453125 L 11.71875 -10.453125 C 11.5 -10.453125 11.3125 -10.382812 11.15625 -10.25 C 11.007812 -10.113281 10.929688 -9.945312 10.921875 -9.75 L 10.921875 -3.828125 C 10.921875 -2.585938 10.53125 -1.601562 9.75 -0.875 C 8.976562 -0.144531 7.914062 0.21875 6.5625 0.21875 C 4.96875 0.21875 3.742188 -0.132812 2.890625 -0.84375 C 2.046875 -1.5625 1.625 -2.550781 1.625 -3.8125 L 1.625 -9.703125 C 1.613281 -10.003906 1.476562 -10.222656 1.21875 -10.359375 C 1.09375 -10.421875 0.957031 -10.453125 0.8125 -10.453125 L 0.578125 -10.453125 L 0.578125 -10.609375 L 4.9375 -10.609375 L 4.9375 -10.453125 L 4.703125 -10.453125 C 4.472656 -10.453125 4.28125 -10.382812 4.125 -10.25 C 3.976562 -10.113281 3.898438 -9.941406 3.890625 -9.734375 L 3.890625 -3.9375 C 3.890625 -2.863281 4.148438 -2.015625 4.671875 -1.390625 C 5.203125 -0.765625 5.925781 -0.453125 6.84375 -0.453125 C 7.769531 -0.453125 8.5 -0.75 9.03125 -1.34375 C 9.570312 -1.9375 9.847656 -2.738281 9.859375 -3.75 L 9.859375 -9.734375 C 9.835938 -10.023438 9.695312 -10.234375 9.4375 -10.359375 C 9.320312 -10.421875 9.191406 -10.453125 9.046875 -10.453125 L 8.8125 -10.453125 L 8.8125 -10.609375 L 11.96875 -10.609375 Z M 11.96875 -10.453125 "/></g></g></g><g fill="#e6cf59" fill-opacity="1"><g transform="translate(307.226472, 314.008427)"><g><path d="M 0.828125 -0.15625 C 1.097656 -0.15625 1.320312 -0.25 1.5 -0.4375 C 1.6875 -0.625 1.785156 -0.847656 1.796875 -1.109375 L 1.796875 -9.515625 C 1.785156 -9.878906 1.617188 -10.15625 1.296875 -10.34375 C 1.160156 -10.414062 1.003906 -10.453125 0.828125 -10.453125 L 0.640625 -10.453125 L 0.640625 -10.609375 L 5.25 -10.609375 L 5.234375 -10.453125 L 5.046875 -10.453125 C 4.679688 -10.453125 4.40625 -10.296875 4.21875 -9.984375 C 4.125 -9.847656 4.078125 -9.691406 4.078125 -9.515625 L 4.078125 -1.109375 C 4.078125 -0.847656 4.171875 -0.625 4.359375 -0.4375 C 4.554688 -0.25 4.785156 -0.15625 5.046875 -0.15625 L 5.234375 -0.15625 L 5.25 0 L 0.640625 0 L 0.640625 -0.15625 Z M 11.78125 0 L 10.53125 0 C 9 0 7.914062 -0.421875 7.28125 -1.265625 C 5.46875 -3.710938 4.5625 -4.957031 4.5625 -5 L 8.15625 -9.765625 C 8.238281 -9.859375 8.28125 -9.945312 8.28125 -10.03125 C 8.28125 -10.113281 8.265625 -10.1875 8.234375 -10.25 C 8.148438 -10.394531 8.007812 -10.46875 7.8125 -10.46875 L 7.65625 -10.46875 L 7.65625 -10.609375 L 11.125 -10.609375 L 11.125 -10.46875 L 11.0625 -10.46875 C 10.382812 -10.46875 9.832031 -10.226562 9.40625 -9.75 L 6.453125 -6.25 L 10.234375 -1.09375 C 10.691406 -0.488281 11.207031 -0.175781 11.78125 -0.15625 Z M 11.78125 0 "/></g></g></g><g transform="matrix(1, 0, 0, 1, 138, 329)"><g clip-path="url(#57ea9bc5e4)"><g fill="#ffffff" fill-opacity="1"><g transform="translate(1.773255, 6.527605)"><g><path d="M 4.53125 -0.0625 L 4.578125 -0.0625 L 4.578125 0 L 3.15625 0 L 3.15625 -0.0625 L 3.203125 -0.0625 C 3.296875 -0.0625 3.363281 -0.0859375 3.40625 -0.140625 C 3.445312 -0.203125 3.46875 -0.257812 3.46875 -0.3125 C 3.46875 -0.363281 3.460938 -0.414062 3.453125 -0.46875 L 3.046875 -1.53125 L 1.328125 -1.53125 L 0.90625 -0.453125 C 0.894531 -0.398438 0.890625 -0.347656 0.890625 -0.296875 C 0.890625 -0.253906 0.910156 -0.203125 0.953125 -0.140625 C 0.992188 -0.0859375 1.0625 -0.0625 1.15625 -0.0625 L 1.203125 -0.0625 L 1.203125 0 L -0.0625 0 L -0.0625 -0.0625 L 0 -0.0625 C 0.101562 -0.0625 0.203125 -0.09375 0.296875 -0.15625 C 0.398438 -0.226562 0.484375 -0.332031 0.546875 -0.46875 L 1.984375 -3.859375 C 2.140625 -4.203125 2.21875 -4.421875 2.21875 -4.515625 L 2.265625 -4.515625 L 3.96875 -0.46875 C 4.03125 -0.332031 4.109375 -0.226562 4.203125 -0.15625 C 4.304688 -0.09375 4.414062 -0.0625 4.53125 -0.0625 Z M 1.40625 -1.734375 L 2.96875 -1.734375 L 2.203125 -3.765625 Z M 1.40625 -1.734375 "/></g></g></g><g fill="#ffffff" fill-opacity="1"><g transform="translate(7.146177, 6.527605)"><g><path d="M 0.390625 -0.265625 C 0.367188 -0.316406 0.359375 -0.425781 0.359375 -0.59375 C 0.359375 -0.769531 0.394531 -0.953125 0.46875 -1.140625 L 0.515625 -1.140625 C 0.515625 -1.085938 0.515625 -1.039062 0.515625 -1 C 0.515625 -0.738281 0.59375 -0.519531 0.75 -0.34375 C 0.90625 -0.175781 1.109375 -0.09375 1.359375 -0.09375 C 1.628906 -0.09375 1.847656 -0.171875 2.015625 -0.328125 C 2.191406 -0.492188 2.28125 -0.695312 2.28125 -0.9375 C 2.28125 -1.1875 2.195312 -1.382812 2.03125 -1.53125 L 0.8125 -2.671875 C 0.582031 -2.878906 0.46875 -3.128906 0.46875 -3.421875 C 0.46875 -3.722656 0.566406 -3.976562 0.765625 -4.1875 C 0.972656 -4.40625 1.25 -4.515625 1.59375 -4.515625 C 1.75 -4.515625 1.925781 -4.492188 2.125 -4.453125 L 2.375 -4.453125 L 2.375 -3.671875 L 2.328125 -3.671875 C 2.328125 -3.867188 2.253906 -4.023438 2.109375 -4.140625 C 1.972656 -4.265625 1.796875 -4.328125 1.578125 -4.328125 C 1.367188 -4.328125 1.191406 -4.253906 1.046875 -4.109375 C 0.898438 -3.960938 0.828125 -3.78125 0.828125 -3.5625 C 0.828125 -3.351562 0.910156 -3.171875 1.078125 -3.015625 L 2.328125 -1.859375 C 2.535156 -1.671875 2.640625 -1.410156 2.640625 -1.078125 C 2.640625 -0.753906 2.546875 -0.488281 2.359375 -0.28125 C 2.171875 -0.0703125 1.914062 0.046875 1.59375 0.078125 L 1.34375 0.375 C 1.40625 0.351562 1.472656 0.34375 1.546875 0.34375 C 1.722656 0.34375 1.84375 0.382812 1.90625 0.46875 C 1.96875 0.550781 2 0.648438 2 0.765625 C 2 0.953125 1.910156 1.085938 1.734375 1.171875 C 1.617188 1.222656 1.507812 1.25 1.40625 1.25 C 1.300781 1.25 1.203125 1.234375 1.109375 1.203125 L 1.125 1.140625 C 1.269531 1.140625 1.398438 1.109375 1.515625 1.046875 C 1.628906 0.984375 1.6875 0.890625 1.6875 0.765625 C 1.6875 0.578125 1.578125 0.484375 1.359375 0.484375 C 1.296875 0.484375 1.226562 0.5 1.15625 0.53125 L 1.125 0.46875 L 1.421875 0.09375 C 1.234375 0.0820312 1.039062 0.0507812 0.84375 0 C 0.644531 -0.0625 0.492188 -0.148438 0.390625 -0.265625 Z M 0.390625 -0.265625 "/></g></g></g><g fill="#ffffff" fill-opacity="1"><g transform="translate(11.019234, 6.527605)"><g><path d="M 1.6875 -0.0625 L 1.765625 -0.0625 L 1.765625 0 L 0.375 0 L 0.375 -0.0625 L 0.46875 -0.0625 C 0.570312 -0.0625 0.660156 -0.0976562 0.734375 -0.171875 C 0.816406 -0.253906 0.859375 -0.351562 0.859375 -0.46875 L 0.859375 -3.96875 C 0.859375 -4.082031 0.816406 -4.175781 0.734375 -4.25 C 0.660156 -4.320312 0.570312 -4.359375 0.46875 -4.359375 L 0.375 -4.359375 L 0.375 -4.421875 L 1.765625 -4.421875 L 1.765625 -4.359375 L 1.6875 -4.359375 C 1.570312 -4.359375 1.472656 -4.320312 1.390625 -4.25 C 1.316406 -4.175781 1.28125 -4.082031 1.28125 -3.96875 L 1.28125 -0.46875 C 1.28125 -0.351562 1.316406 -0.253906 1.390625 -0.171875 C 1.472656 -0.0976562 1.570312 -0.0625 1.6875 -0.0625 Z M 4.234375 0 L 3.953125 0 C 3.523438 0 3.207031 -0.117188 3 -0.359375 L 1.484375 -2.203125 L 2.96875 -4.078125 C 3.007812 -4.117188 3.03125 -4.15625 3.03125 -4.1875 C 3.03125 -4.21875 3.019531 -4.25 3 -4.28125 C 2.96875 -4.34375 2.910156 -4.375 2.828125 -4.375 L 2.765625 -4.375 L 2.765625 -4.421875 L 4.09375 -4.421875 L 4.09375 -4.375 L 4.0625 -4.375 C 3.789062 -4.375 3.566406 -4.273438 3.390625 -4.078125 L 1.890625 -2.359375 L 3.625 -0.328125 C 3.789062 -0.148438 3.992188 -0.0625 4.234375 -0.0625 Z M 4.234375 0 "/></g></g></g><g fill="#ffffff" fill-opacity="1"><g transform="translate(16.04408, 6.527605)"><g><path d="M 0.46875 -0.0625 C 0.570312 -0.0625 0.660156 -0.0976562 0.734375 -0.171875 C 0.816406 -0.253906 0.859375 -0.351562 0.859375 -0.46875 L 0.859375 -3.96875 C 0.859375 -4.082031 0.816406 -4.175781 0.734375 -4.25 C 0.660156 -4.320312 0.570312 -4.359375 0.46875 -4.359375 L 0.375 -4.359375 L 0.375 -4.421875 L 1.765625 -4.421875 L 1.765625 -4.359375 L 1.6875 -4.359375 C 1.570312 -4.359375 1.472656 -4.320312 1.390625 -4.25 C 1.316406 -4.175781 1.28125 -4.082031 1.28125 -3.96875 L 1.28125 -0.46875 C 1.28125 -0.351562 1.316406 -0.253906 1.390625 -0.171875 C 1.472656 -0.0976562 1.570312 -0.0625 1.6875 -0.0625 L 1.765625 -0.0625 L 1.765625 0 L 0.375 0 L 0.375 -0.0625 Z M 0.46875 -0.0625 "/></g></g></g><g fill="#ffffff" fill-opacity="1"><g transform="translate(19.050127, 6.527605)"><g><path d="M 4.921875 -4.359375 C 4.816406 -4.359375 4.722656 -4.320312 4.640625 -4.25 C 4.566406 -4.175781 4.53125 -4.085938 4.53125 -3.984375 L 4.53125 -0.71875 C 4.53125 -0.476562 4.546875 -0.25 4.578125 -0.03125 L 4.59375 0.09375 L 4.53125 0.09375 L 1.078125 -3.59375 L 1.078125 -0.4375 C 1.085938 -0.289062 1.15625 -0.179688 1.28125 -0.109375 C 1.332031 -0.078125 1.394531 -0.0625 1.46875 -0.0625 L 1.59375 -0.0625 L 1.59375 0 L 0.28125 0 L 0.28125 -0.0625 L 0.40625 -0.0625 C 0.507812 -0.0625 0.597656 -0.0976562 0.671875 -0.171875 C 0.753906 -0.242188 0.796875 -0.335938 0.796875 -0.453125 L 0.796875 -3.734375 C 0.796875 -3.992188 0.78125 -4.222656 0.75 -4.421875 L 0.734375 -4.53125 L 0.796875 -4.53125 L 4.25 -0.84375 L 4.25 -3.984375 C 4.238281 -4.085938 4.195312 -4.175781 4.125 -4.25 C 4.050781 -4.320312 3.960938 -4.359375 3.859375 -4.359375 L 3.734375 -4.359375 L 3.734375 -4.421875 L 5.03125 -4.421875 L 5.03125 -4.359375 Z M 4.921875 -4.359375 "/></g></g></g><g fill="#ffffff" fill-opacity="1"><g transform="translate(25.239427, 6.527605)"><g/></g></g><g fill="#ffffff" fill-opacity="1"><g transform="translate(27.68856, 6.527605)"><g><path d="M 1.921875 0 L 0.375 0 L 0.390625 -0.0625 L 0.46875 -0.0625 C 0.570312 -0.0625 0.660156 -0.0976562 0.734375 -0.171875 C 0.816406 -0.253906 0.859375 -0.347656 0.859375 -0.453125 L 0.859375 -3.96875 C 0.859375 -4.082031 0.816406 -4.175781 0.734375 -4.25 C 0.660156 -4.320312 0.570312 -4.359375 0.46875 -4.359375 L 0.390625 -4.359375 L 0.375 -4.421875 L 1.640625 -4.421875 C 2.078125 -4.421875 2.414062 -4.328125 2.65625 -4.140625 C 2.894531 -3.953125 3.015625 -3.695312 3.015625 -3.375 C 3.015625 -3.125 2.945312 -2.914062 2.8125 -2.75 C 2.675781 -2.582031 2.507812 -2.46875 2.3125 -2.40625 C 2.644531 -2.351562 2.90625 -2.21875 3.09375 -2 C 3.289062 -1.78125 3.390625 -1.5 3.390625 -1.15625 C 3.390625 -0.8125 3.257812 -0.53125 3 -0.3125 C 2.75 -0.101562 2.390625 0 1.921875 0 Z M 1.28125 -0.234375 L 1.890625 -0.234375 C 1.898438 -0.234375 1.90625 -0.234375 1.90625 -0.234375 C 2.226562 -0.234375 2.476562 -0.316406 2.65625 -0.484375 C 2.832031 -0.660156 2.921875 -0.910156 2.921875 -1.234375 C 2.921875 -1.410156 2.890625 -1.566406 2.828125 -1.703125 C 2.765625 -1.847656 2.6875 -1.957031 2.59375 -2.03125 C 2.351562 -2.238281 1.988281 -2.34375 1.5 -2.34375 L 1.5 -2.390625 C 1.5 -2.390625 1.515625 -2.390625 1.546875 -2.390625 C 1.585938 -2.390625 1.640625 -2.394531 1.703125 -2.40625 C 1.773438 -2.414062 1.851562 -2.429688 1.9375 -2.453125 C 2.019531 -2.472656 2.09375 -2.503906 2.15625 -2.546875 C 2.226562 -2.597656 2.296875 -2.65625 2.359375 -2.71875 C 2.472656 -2.863281 2.53125 -3.070312 2.53125 -3.34375 C 2.53125 -3.625 2.453125 -3.84375 2.296875 -4 C 2.140625 -4.15625 1.910156 -4.234375 1.609375 -4.234375 L 1.28125 -4.234375 Z M 1.28125 -0.234375 "/></g></g></g><g fill="#ffffff" fill-opacity="1"><g transform="translate(32.26408, 6.527605)"><g><path d="M 4.53125 -0.0625 L 4.578125 -0.0625 L 4.578125 0 L 3.15625 0 L 3.15625 -0.0625 L 3.203125 -0.0625 C 3.296875 -0.0625 3.363281 -0.0859375 3.40625 -0.140625 C 3.445312 -0.203125 3.46875 -0.257812 3.46875 -0.3125 C 3.46875 -0.363281 3.460938 -0.414062 3.453125 -0.46875 L 3.046875 -1.53125 L 1.328125 -1.53125 L 0.90625 -0.453125 C 0.894531 -0.398438 0.890625 -0.347656 0.890625 -0.296875 C 0.890625 -0.253906 0.910156 -0.203125 0.953125 -0.140625 C 0.992188 -0.0859375 1.0625 -0.0625 1.15625 -0.0625 L 1.203125 -0.0625 L 1.203125 0 L -0.0625 0 L -0.0625 -0.0625 L 0 -0.0625 C 0.101562 -0.0625 0.203125 -0.09375 0.296875 -0.15625 C 0.398438 -0.226562 0.484375 -0.332031 0.546875 -0.46875 L 1.984375 -3.859375 C 2.140625 -4.203125 2.21875 -4.421875 2.21875 -4.515625 L 2.265625 -4.515625 L 3.96875 -0.46875 C 4.03125 -0.332031 4.109375 -0.226562 4.203125 -0.15625 C 4.304688 -0.09375 4.414062 -0.0625 4.53125 -0.0625 Z M 1.40625 -1.734375 L 2.96875 -1.734375 L 2.203125 -3.765625 Z M 1.40625 -1.734375 "/></g></g></g><g fill="#ffffff" fill-opacity="1"><g transform="translate(37.637003, 6.527605)"><g><path d="M 0.390625 -0.265625 C 0.367188 -0.316406 0.359375 -0.425781 0.359375 -0.59375 C 0.359375 -0.769531 0.394531 -0.953125 0.46875 -1.140625 L 0.515625 -1.140625 C 0.515625 -1.085938 0.515625 -1.039062 0.515625 -1 C 0.515625 -0.738281 0.59375 -0.519531 0.75 -0.34375 C 0.90625 -0.175781 1.109375 -0.09375 1.359375 -0.09375 C 1.628906 -0.09375 1.847656 -0.171875 2.015625 -0.328125 C 2.191406 -0.492188 2.28125 -0.695312 2.28125 -0.9375 C 2.28125 -1.1875 2.195312 -1.382812 2.03125 -1.53125 L 0.8125 -2.671875 C 0.582031 -2.878906 0.46875 -3.128906 0.46875 -3.421875 C 0.46875 -3.722656 0.566406 -3.976562 0.765625 -4.1875 C 0.972656 -4.40625 1.25 -4.515625 1.59375 -4.515625 C 1.75 -4.515625 1.925781 -4.492188 2.125 -4.453125 L 2.375 -4.453125 L 2.375 -3.671875 L 2.328125 -3.671875 C 2.328125 -3.867188 2.253906 -4.023438 2.109375 -4.140625 C 1.972656 -4.265625 1.796875 -4.328125 1.578125 -4.328125 C 1.367188 -4.328125 1.191406 -4.253906 1.046875 -4.109375 C 0.898438 -3.960938 0.828125 -3.78125 0.828125 -3.5625 C 0.828125 -3.351562 0.910156 -3.171875 1.078125 -3.015625 L 2.328125 -1.859375 C 2.535156 -1.671875 2.640625 -1.410156 2.640625 -1.078125 C 2.640625 -0.753906 2.546875 -0.488281 2.359375 -0.28125 C 2.171875 -0.0703125 1.914062 0.046875 1.59375 0.078125 L 1.34375 0.375 C 1.40625 0.351562 1.472656 0.34375 1.546875 0.34375 C 1.722656 0.34375 1.84375 0.382812 1.90625 0.46875 C 1.96875 0.550781 2 0.648438 2 0.765625 C 2 0.953125 1.910156 1.085938 1.734375 1.171875 C 1.617188 1.222656 1.507812 1.25 1.40625 1.25 C 1.300781 1.25 1.203125 1.234375 1.109375 1.203125 L 1.125 1.140625 C 1.269531 1.140625 1.398438 1.109375 1.515625 1.046875 C 1.628906 0.984375 1.6875 0.890625 1.6875 0.765625 C 1.6875 0.578125 1.578125 0.484375 1.359375 0.484375 C 1.296875 0.484375 1.226562 0.5 1.15625 0.53125 L 1.125 0.46875 L 1.421875 0.09375 C 1.234375 0.0820312 1.039062 0.0507812 0.84375 0 C 0.644531 -0.0625 0.492188 -0.148438 0.390625 -0.265625 Z M 0.390625 -0.265625 "/></g></g></g><g fill="#ffffff" fill-opacity="1"><g transform="translate(41.51006, 6.527605)"><g><path d="M 0.46875 -0.0625 C 0.570312 -0.0625 0.660156 -0.0976562 0.734375 -0.171875 C 0.816406 -0.253906 0.859375 -0.351562 0.859375 -0.46875 L 0.859375 -3.96875 C 0.859375 -4.070312 0.816406 -4.160156 0.734375 -4.234375 C 0.660156 -4.316406 0.570312 -4.359375 0.46875 -4.359375 L 0.375 -4.359375 L 0.375 -4.421875 L 1.765625 -4.421875 L 1.765625 -4.359375 L 1.6875 -4.359375 C 1.53125 -4.359375 1.410156 -4.296875 1.328125 -4.171875 C 1.296875 -4.109375 1.28125 -4.039062 1.28125 -3.96875 L 1.28125 -0.203125 L 2.1875 -0.203125 C 2.5 -0.203125 2.734375 -0.269531 2.890625 -0.40625 C 3.054688 -0.539062 3.195312 -0.75 3.3125 -1.03125 L 3.375 -1.03125 L 3 0 L 0.375 0 L 0.375 -0.0625 Z M 0.46875 -0.0625 "/></g></g></g><g fill="#ffffff" fill-opacity="1"><g transform="translate(45.933699, 6.527605)"><g><path d="M 4.53125 -0.0625 L 4.578125 -0.0625 L 4.578125 0 L 3.15625 0 L 3.15625 -0.0625 L 3.203125 -0.0625 C 3.296875 -0.0625 3.363281 -0.0859375 3.40625 -0.140625 C 3.445312 -0.203125 3.46875 -0.257812 3.46875 -0.3125 C 3.46875 -0.363281 3.460938 -0.414062 3.453125 -0.46875 L 3.046875 -1.53125 L 1.328125 -1.53125 L 0.90625 -0.453125 C 0.894531 -0.398438 0.890625 -0.347656 0.890625 -0.296875 C 0.890625 -0.253906 0.910156 -0.203125 0.953125 -0.140625 C 0.992188 -0.0859375 1.0625 -0.0625 1.15625 -0.0625 L 1.203125 -0.0625 L 1.203125 0 L -0.0625 0 L -0.0625 -0.0625 L 0 -0.0625 C 0.101562 -0.0625 0.203125 -0.09375 0.296875 -0.15625 C 0.398438 -0.226562 0.484375 -0.332031 0.546875 -0.46875 L 1.984375 -3.859375 C 2.140625 -4.203125 2.21875 -4.421875 2.21875 -4.515625 L 2.265625 -4.515625 L 3.96875 -0.46875 C 4.03125 -0.332031 4.109375 -0.226562 4.203125 -0.15625 C 4.304688 -0.09375 4.414062 -0.0625 4.53125 -0.0625 Z M 1.40625 -1.734375 L 2.96875 -1.734375 L 2.203125 -3.765625 Z M 1.40625 -1.734375 "/></g></g></g><g fill="#ffffff" fill-opacity="1"><g transform="translate(51.306622, 6.527605)"><g><path d="M 2.53125 -4.421875 C 3.195312 -4.421875 3.738281 -4.21875 4.15625 -3.8125 C 4.582031 -3.40625 4.796875 -2.867188 4.796875 -2.203125 C 4.796875 -1.546875 4.582031 -1.015625 4.15625 -0.609375 C 3.738281 -0.203125 3.195312 0 2.53125 0 L 0.375 0 L 0.375 -0.0625 L 0.46875 -0.0625 C 0.570312 -0.0625 0.660156 -0.0976562 0.734375 -0.171875 C 0.816406 -0.253906 0.859375 -0.351562 0.859375 -0.46875 L 0.859375 -4 C 0.859375 -4.101562 0.816406 -4.1875 0.734375 -4.25 C 0.660156 -4.320312 0.570312 -4.359375 0.46875 -4.359375 L 0.390625 -4.359375 L 0.375 -4.421875 Z M 1.28125 -4.234375 L 1.28125 -0.1875 L 2.53125 -0.1875 C 2.882812 -0.1875 3.195312 -0.269531 3.46875 -0.4375 C 3.738281 -0.613281 3.945312 -0.851562 4.09375 -1.15625 C 4.25 -1.457031 4.328125 -1.8125 4.328125 -2.21875 C 4.328125 -2.820312 4.160156 -3.304688 3.828125 -3.671875 C 3.492188 -4.046875 3.0625 -4.234375 2.53125 -4.234375 Z M 1.28125 -4.234375 "/></g></g></g><g fill="#ffffff" fill-opacity="1"><g transform="translate(57.154178, 6.527605)"><g><path d="M 0.46875 -0.0625 C 0.570312 -0.0625 0.660156 -0.0976562 0.734375 -0.171875 C 0.816406 -0.253906 0.859375 -0.351562 0.859375 -0.46875 L 0.859375 -3.96875 C 0.859375 -4.082031 0.816406 -4.175781 0.734375 -4.25 C 0.660156 -4.320312 0.570312 -4.359375 0.46875 -4.359375 L 0.375 -4.359375 L 0.375 -4.421875 L 1.765625 -4.421875 L 1.765625 -4.359375 L 1.6875 -4.359375 C 1.570312 -4.359375 1.472656 -4.320312 1.390625 -4.25 C 1.316406 -4.175781 1.28125 -4.082031 1.28125 -3.96875 L 1.28125 -0.46875 C 1.28125 -0.351562 1.316406 -0.253906 1.390625 -0.171875 C 1.472656 -0.0976562 1.570312 -0.0625 1.6875 -0.0625 L 1.765625 -0.0625 L 1.765625 0 L 0.375 0 L 0.375 -0.0625 Z M 0.46875 -0.0625 "/></g></g></g><g fill="#ffffff" fill-opacity="1"><g transform="translate(60.033653, 6.527605)"><g><path d="M 3.3125 -5.5 C 3.3125 -5.375 3.28125 -5.257812 3.21875 -5.15625 C 3.15625 -5.0625 3.070312 -4.984375 2.96875 -4.921875 C 2.875 -4.859375 2.753906 -4.828125 2.609375 -4.828125 C 2.460938 -4.828125 2.320312 -4.894531 2.1875 -5.03125 C 2.0625 -5.164062 2 -5.320312 2 -5.5 L 2.0625 -5.5 C 2.101562 -5.40625 2.175781 -5.320312 2.28125 -5.25 C 2.382812 -5.1875 2.503906 -5.15625 2.640625 -5.15625 C 2.785156 -5.15625 2.914062 -5.1875 3.03125 -5.25 C 3.144531 -5.320312 3.21875 -5.40625 3.25 -5.5 Z M 2.65625 0.09375 C 1.976562 0.0820312 1.425781 -0.128906 1 -0.546875 C 0.582031 -0.972656 0.375 -1.53125 0.375 -2.21875 C 0.375 -2.90625 0.582031 -3.457031 1 -3.875 C 1.425781 -4.300781 1.976562 -4.515625 2.65625 -4.515625 C 3.238281 -4.515625 3.75 -4.375 4.1875 -4.09375 L 4.3125 -3.203125 L 4.265625 -3.203125 C 4.171875 -3.554688 3.984375 -3.832031 3.703125 -4.03125 C 3.421875 -4.226562 3.070312 -4.328125 2.65625 -4.328125 C 2.113281 -4.328125 1.675781 -4.128906 1.34375 -3.734375 C 1.019531 -3.347656 0.859375 -2.835938 0.859375 -2.203125 C 0.859375 -1.578125 1.019531 -1.070312 1.34375 -0.6875 C 1.675781 -0.300781 2.113281 -0.101562 2.65625 -0.09375 C 3.207031 -0.09375 3.679688 -0.28125 4.078125 -0.65625 L 4.078125 -1.765625 C 4.078125 -1.859375 4.046875 -1.929688 3.984375 -1.984375 C 3.929688 -2.035156 3.859375 -2.0625 3.765625 -2.0625 L 3.65625 -2.0625 L 3.65625 -2.125 L 4.890625 -2.125 L 4.890625 -2.0625 L 4.796875 -2.0625 C 4.691406 -2.0625 4.613281 -2.035156 4.5625 -1.984375 C 4.507812 -1.929688 4.484375 -1.859375 4.484375 -1.765625 L 4.484375 -0.734375 C 4.316406 -0.503906 4.078125 -0.304688 3.765625 -0.140625 C 3.453125 0.015625 3.082031 0.09375 2.65625 0.09375 Z M 2.65625 0.09375 "/></g></g></g><g fill="#ffffff" fill-opacity="1"><g transform="translate(65.79261, 6.527605)"><g><path d="M 0.46875 -0.0625 C 0.570312 -0.0625 0.660156 -0.0976562 0.734375 -0.171875 C 0.816406 -0.253906 0.859375 -0.351562 0.859375 -0.46875 L 0.859375 -3.96875 C 0.859375 -4.082031 0.816406 -4.175781 0.734375 -4.25 C 0.660156 -4.320312 0.570312 -4.359375 0.46875 -4.359375 L 0.375 -4.359375 L 0.375 -4.421875 L 1.765625 -4.421875 L 1.765625 -4.359375 L 1.6875 -4.359375 C 1.570312 -4.359375 1.472656 -4.320312 1.390625 -4.25 C 1.316406 -4.175781 1.28125 -4.082031 1.28125 -3.96875 L 1.28125 -0.46875 C 1.28125 -0.351562 1.316406 -0.253906 1.390625 -0.171875 C 1.472656 -0.0976562 1.570312 -0.0625 1.6875 -0.0625 L 1.765625 -0.0625 L 1.765625 0 L 0.375 0 L 0.375 -0.0625 Z M 0.46875 -0.0625 "/></g></g></g><g fill="#ffffff" fill-opacity="1"><g transform="translate(68.798658, 6.527605)"><g/></g></g><g fill="#ffffff" fill-opacity="1"><g transform="translate(71.24779, 6.527605)"><g><path d="M 4.921875 -4.359375 C 4.816406 -4.359375 4.722656 -4.320312 4.640625 -4.25 C 4.566406 -4.175781 4.53125 -4.085938 4.53125 -3.984375 L 4.53125 -0.71875 C 4.53125 -0.476562 4.546875 -0.25 4.578125 -0.03125 L 4.59375 0.09375 L 4.53125 0.09375 L 1.078125 -3.59375 L 1.078125 -0.4375 C 1.085938 -0.289062 1.15625 -0.179688 1.28125 -0.109375 C 1.332031 -0.078125 1.394531 -0.0625 1.46875 -0.0625 L 1.59375 -0.0625 L 1.59375 0 L 0.28125 0 L 0.28125 -0.0625 L 0.40625 -0.0625 C 0.507812 -0.0625 0.597656 -0.0976562 0.671875 -0.171875 C 0.753906 -0.242188 0.796875 -0.335938 0.796875 -0.453125 L 0.796875 -3.734375 C 0.796875 -3.992188 0.78125 -4.222656 0.75 -4.421875 L 0.734375 -4.53125 L 0.796875 -4.53125 L 4.25 -0.84375 L 4.25 -3.984375 C 4.238281 -4.085938 4.195312 -4.175781 4.125 -4.25 C 4.050781 -4.320312 3.960938 -4.359375 3.859375 -4.359375 L 3.734375 -4.359375 L 3.734375 -4.421875 L 5.03125 -4.421875 L 5.03125 -4.359375 Z M 4.921875 -4.359375 "/></g></g></g><g fill="#ffffff" fill-opacity="1"><g transform="translate(77.310518, 6.527605)"><g><path d="M 1.0625 -3.875 C 1.488281 -4.300781 2.039062 -4.515625 2.71875 -4.515625 C 3.394531 -4.515625 3.941406 -4.300781 4.359375 -3.875 C 4.785156 -3.457031 5 -2.90625 5 -2.21875 C 5 -1.53125 4.785156 -0.972656 4.359375 -0.546875 C 3.941406 -0.117188 3.394531 0.09375 2.71875 0.09375 C 2.039062 0.09375 1.488281 -0.117188 1.0625 -0.546875 C 0.644531 -0.972656 0.4375 -1.53125 0.4375 -2.21875 C 0.4375 -2.90625 0.644531 -3.457031 1.0625 -3.875 Z M 1.421875 -0.671875 C 1.742188 -0.285156 2.175781 -0.09375 2.71875 -0.09375 C 3.257812 -0.09375 3.691406 -0.285156 4.015625 -0.671875 C 4.335938 -1.066406 4.5 -1.582031 4.5 -2.21875 C 4.5 -2.632812 4.425781 -3 4.28125 -3.3125 C 4.132812 -3.632812 3.925781 -3.882812 3.65625 -4.0625 C 3.382812 -4.238281 3.070312 -4.328125 2.71875 -4.328125 C 2.175781 -4.328125 1.742188 -4.128906 1.421875 -3.734375 C 1.097656 -3.347656 0.9375 -2.835938 0.9375 -2.203125 C 0.9375 -1.578125 1.097656 -1.066406 1.421875 -0.671875 Z M 1.421875 -0.671875 "/></g></g></g><g fill="#ffffff" fill-opacity="1"><g transform="translate(83.354262, 6.527605)"><g><path d="M 1.6875 -0.0625 L 1.765625 -0.0625 L 1.765625 0 L 0.375 0 L 0.375 -0.0625 L 0.46875 -0.0625 C 0.570312 -0.0625 0.660156 -0.0976562 0.734375 -0.171875 C 0.816406 -0.253906 0.859375 -0.351562 0.859375 -0.46875 L 0.859375 -3.96875 C 0.859375 -4.082031 0.816406 -4.175781 0.734375 -4.25 C 0.660156 -4.320312 0.570312 -4.359375 0.46875 -4.359375 L 0.375 -4.359375 L 0.375 -4.421875 L 1.765625 -4.421875 L 1.765625 -4.359375 L 1.6875 -4.359375 C 1.570312 -4.359375 1.472656 -4.320312 1.390625 -4.25 C 1.316406 -4.175781 1.28125 -4.082031 1.28125 -3.96875 L 1.28125 -0.46875 C 1.28125 -0.351562 1.316406 -0.253906 1.390625 -0.171875 C 1.472656 -0.0976562 1.570312 -0.0625 1.6875 -0.0625 Z M 4.234375 0 L 3.953125 0 C 3.523438 0 3.207031 -0.117188 3 -0.359375 L 1.484375 -2.203125 L 2.96875 -4.078125 C 3.007812 -4.117188 3.03125 -4.15625 3.03125 -4.1875 C 3.03125 -4.21875 3.019531 -4.25 3 -4.28125 C 2.96875 -4.34375 2.910156 -4.375 2.828125 -4.375 L 2.765625 -4.375 L 2.765625 -4.421875 L 4.09375 -4.421875 L 4.09375 -4.375 L 4.0625 -4.375 C 3.789062 -4.375 3.566406 -4.273438 3.390625 -4.078125 L 1.890625 -2.359375 L 3.625 -0.328125 C 3.789062 -0.148438 3.992188 -0.0625 4.234375 -0.0625 Z M 4.234375 0 "/></g></g></g><g fill="#ffffff" fill-opacity="1"><g transform="translate(88.379107, 6.527605)"><g><path d="M 3.734375 -3.859375 C 3.734375 -3.960938 3.695312 -4.050781 3.625 -4.125 C 3.550781 -4.195312 3.460938 -4.238281 3.359375 -4.25 L 2.171875 -4.25 L 2.171875 -0.453125 C 2.171875 -0.347656 2.207031 -0.253906 2.28125 -0.171875 C 2.363281 -0.0976562 2.457031 -0.0625 2.5625 -0.0625 L 2.65625 -0.0625 L 2.65625 0 L 1.265625 0 L 1.265625 -0.0625 L 1.34375 -0.0625 C 1.457031 -0.0625 1.550781 -0.0976562 1.625 -0.171875 C 1.707031 -0.253906 1.75 -0.347656 1.75 -0.453125 L 1.75 -4.25 L 0.546875 -4.25 C 0.453125 -4.238281 0.367188 -4.195312 0.296875 -4.125 C 0.222656 -4.050781 0.1875 -3.960938 0.1875 -3.859375 L 0.1875 -3.765625 L 0.125 -3.75 L 0.125 -4.546875 C 0.1875 -4.523438 0.296875 -4.5 0.453125 -4.46875 C 0.609375 -4.445312 0.753906 -4.4375 0.890625 -4.4375 L 3.03125 -4.4375 C 3.226562 -4.4375 3.394531 -4.453125 3.53125 -4.484375 C 3.675781 -4.515625 3.765625 -4.535156 3.796875 -4.546875 L 3.796875 -3.75 L 3.734375 -3.765625 Z M 3.734375 -3.859375 "/></g></g></g><g fill="#ffffff" fill-opacity="1"><g transform="translate(92.714148, 6.527605)"><g><path d="M 4.53125 -0.0625 L 4.578125 -0.0625 L 4.578125 0 L 3.15625 0 L 3.15625 -0.0625 L 3.203125 -0.0625 C 3.296875 -0.0625 3.363281 -0.0859375 3.40625 -0.140625 C 3.445312 -0.203125 3.46875 -0.257812 3.46875 -0.3125 C 3.46875 -0.363281 3.460938 -0.414062 3.453125 -0.46875 L 3.046875 -1.53125 L 1.328125 -1.53125 L 0.90625 -0.453125 C 0.894531 -0.398438 0.890625 -0.347656 0.890625 -0.296875 C 0.890625 -0.253906 0.910156 -0.203125 0.953125 -0.140625 C 0.992188 -0.0859375 1.0625 -0.0625 1.15625 -0.0625 L 1.203125 -0.0625 L 1.203125 0 L -0.0625 0 L -0.0625 -0.0625 L 0 -0.0625 C 0.101562 -0.0625 0.203125 -0.09375 0.296875 -0.15625 C 0.398438 -0.226562 0.484375 -0.332031 0.546875 -0.46875 L 1.984375 -3.859375 C 2.140625 -4.203125 2.21875 -4.421875 2.21875 -4.515625 L 2.265625 -4.515625 L 3.96875 -0.46875 C 4.03125 -0.332031 4.109375 -0.226562 4.203125 -0.15625 C 4.304688 -0.09375 4.414062 -0.0625 4.53125 -0.0625 Z M 1.40625 -1.734375 L 2.96875 -1.734375 L 2.203125 -3.765625 Z M 1.40625 -1.734375 "/></g></g></g></g></g></svg>