<svg xmlns="http://www.w3.org/2000/svg" xmlns:xlink="http://www.w3.org/1999/xlink" width="500" zoomAndPan="magnify" viewBox="0 0 375 374.999991" height="500" preserveAspectRatio="xMidYMid meet" version="1.0"><defs><g/><clipPath id="bc32060a45"><path d="M 153 118.25 L 231.617188 118.25 L 231.617188 166 L 153 166 Z M 153 118.25 " clip-rule="nonzero"/></clipPath><clipPath id="3e4e02e7e6"><path d="M 143.117188 133 L 219 133 L 219 206.75 L 143.117188 206.75 Z M 143.117188 133 " clip-rule="nonzero"/></clipPath><clipPath id="5d688e39f6"><path d="M 60 0.28125 L 65 0.28125 L 65 7 L 60 7 Z M 60 0.28125 " clip-rule="nonzero"/></clipPath><clipPath id="55fab7940e"><rect x="0" width="99" y="0" height="9"/></clipPath></defs><g clip-path="url(#bc32060a45)"><path fill="#e6cf59" d="M 187.664062 165.992188 L 153.433594 127.496094 L 158.738281 118.25 L 214.074219 118.25 L 231.601562 143.347656 L 222.835938 156.578125 L 229.113281 143.824219 L 211.703125 124.160156 L 162.554688 124.160156 L 160.660156 127.257812 Z M 187.664062 165.992188 " fill-opacity="1" fill-rule="evenodd"/></g><g clip-path="url(#3e4e02e7e6)"><path fill="#e6cf59" d="M 196.664062 139.773438 L 211.824219 164.082031 L 186.953125 196.855469 L 144.90625 143.347656 L 149.882812 133.574219 L 143.132812 143.46875 L 186.953125 206.75 L 218.097656 164.203125 Z M 196.664062 139.773438 " fill-opacity="1" fill-rule="evenodd"/></g><g fill="#e6cf59" fill-opacity="1"><g transform="translate(94.256696, 237.344677)"><g><path d="M 0.5625 -0.09375 C 0.738281 -0.09375 0.890625 -0.15625 1.015625 -0.28125 C 1.140625 -0.414062 1.203125 -0.566406 1.203125 -0.734375 L 1.203125 -6.390625 C 1.191406 -6.566406 1.144531 -6.695312 1.0625 -6.78125 C 0.894531 -6.925781 0.726562 -7 0.5625 -7 L 0.421875 -7 L 0.421875 -7.109375 L 4.3125 -7.109375 C 4.644531 -7.109375 4.921875 -7.132812 5.140625 -7.1875 C 5.359375 -7.238281 5.488281 -7.273438 5.53125 -7.296875 L 5.53125 -5.515625 L 5.4375 -5.53125 L 5.4375 -5.640625 C 5.4375 -6.054688 5.28125 -6.351562 4.96875 -6.53125 C 4.820312 -6.613281 4.644531 -6.660156 4.4375 -6.671875 L 2.734375 -6.671875 L 2.734375 -3.71875 L 4.078125 -3.71875 C 4.328125 -3.726562 4.53125 -3.8125 4.6875 -3.96875 C 4.851562 -4.132812 4.9375 -4.34375 4.9375 -4.59375 L 4.9375 -4.6875 L 5.03125 -4.6875 L 5.03125 -2.328125 L 4.9375 -2.328125 L 4.9375 -2.421875 C 4.9375 -2.671875 4.851562 -2.875 4.6875 -3.03125 C 4.53125 -3.195312 4.332031 -3.285156 4.09375 -3.296875 L 2.734375 -3.296875 L 2.734375 -0.4375 L 4.0625 -0.4375 C 4.550781 -0.4375 4.960938 -0.578125 5.296875 -0.859375 C 5.640625 -1.148438 5.890625 -1.554688 6.046875 -2.078125 L 6.15625 -2.078125 L 5.6875 0 L 0.421875 0 L 0.421875 -0.09375 Z M 0.5625 -0.09375 "/></g></g></g><g fill="#e6cf59" fill-opacity="1"><g transform="translate(106.025777, 237.344677)"><g><path d="M 3.234375 -6.65625 L 2.796875 -6.65625 C 2.773438 -6.65625 2.765625 -6.65625 2.765625 -6.65625 L 2.765625 -0.734375 C 2.765625 -0.566406 2.828125 -0.414062 2.953125 -0.28125 C 3.078125 -0.15625 3.226562 -0.09375 3.40625 -0.09375 L 3.546875 -0.09375 L 3.546875 0 L 0.453125 0 L 0.453125 -0.09375 L 0.59375 -0.09375 C 0.832031 -0.09375 1.015625 -0.203125 1.140625 -0.421875 C 1.203125 -0.515625 1.234375 -0.617188 1.234375 -0.734375 L 1.234375 -6.375 C 1.234375 -6.539062 1.171875 -6.6875 1.046875 -6.8125 C 0.921875 -6.9375 0.769531 -7 0.59375 -7 L 0.453125 -7 L 0.453125 -7.109375 L 3.9375 -7.109375 C 4.59375 -7.109375 5.148438 -6.96875 5.609375 -6.6875 C 5.835938 -6.539062 6.019531 -6.335938 6.15625 -6.078125 C 6.289062 -5.828125 6.359375 -5.5 6.359375 -5.09375 C 6.359375 -4.6875 6.210938 -4.289062 5.921875 -3.90625 C 5.640625 -3.53125 5.226562 -3.316406 4.6875 -3.265625 C 5.082031 -3.128906 5.429688 -2.828125 5.734375 -2.359375 C 6.460938 -1.191406 7.003906 -0.5 7.359375 -0.28125 C 7.523438 -0.164062 7.742188 -0.101562 8.015625 -0.09375 L 8.015625 0 L 7.015625 0 C 6.429688 0 5.941406 -0.078125 5.546875 -0.234375 C 5.160156 -0.390625 4.851562 -0.664062 4.625 -1.0625 C 4.5 -1.28125 4.21875 -1.859375 3.78125 -2.796875 C 3.59375 -3.203125 3.363281 -3.425781 3.09375 -3.46875 L 3.09375 -3.578125 L 3.40625 -3.578125 C 3.71875 -3.578125 3.988281 -3.664062 4.21875 -3.84375 C 4.445312 -4.03125 4.601562 -4.332031 4.6875 -4.75 C 4.71875 -4.882812 4.734375 -4.992188 4.734375 -5.078125 C 4.734375 -5.628906 4.617188 -6.03125 4.390625 -6.28125 C 4.171875 -6.53125 3.882812 -6.65625 3.53125 -6.65625 C 3.46875 -6.65625 3.367188 -6.65625 3.234375 -6.65625 Z M 3.234375 -6.65625 "/></g></g></g><g fill="#e6cf59" fill-opacity="1"><g transform="translate(118.972076, 237.344677)"><g><path d="M 0.5625 -0.09375 C 0.738281 -0.09375 0.890625 -0.15625 1.015625 -0.28125 C 1.140625 -0.414062 1.203125 -0.566406 1.203125 -0.734375 L 1.203125 -6.390625 C 1.191406 -6.566406 1.144531 -6.695312 1.0625 -6.78125 C 0.894531 -6.925781 0.726562 -7 0.5625 -7 L 0.421875 -7 L 0.421875 -7.109375 L 4.3125 -7.109375 C 4.644531 -7.109375 4.921875 -7.132812 5.140625 -7.1875 C 5.359375 -7.238281 5.488281 -7.273438 5.53125 -7.296875 L 5.53125 -5.515625 L 5.4375 -5.53125 L 5.4375 -5.640625 C 5.4375 -6.054688 5.28125 -6.351562 4.96875 -6.53125 C 4.820312 -6.613281 4.644531 -6.660156 4.4375 -6.671875 L 2.734375 -6.671875 L 2.734375 -3.71875 L 4.078125 -3.71875 C 4.328125 -3.726562 4.53125 -3.8125 4.6875 -3.96875 C 4.851562 -4.132812 4.9375 -4.34375 4.9375 -4.59375 L 4.9375 -4.6875 L 5.03125 -4.6875 L 5.03125 -2.328125 L 4.9375 -2.328125 L 4.9375 -2.421875 C 4.9375 -2.671875 4.851562 -2.875 4.6875 -3.03125 C 4.53125 -3.195312 4.332031 -3.285156 4.09375 -3.296875 L 2.734375 -3.296875 L 2.734375 -0.4375 L 4.0625 -0.4375 C 4.550781 -0.4375 4.960938 -0.578125 5.296875 -0.859375 C 5.640625 -1.148438 5.890625 -1.554688 6.046875 -2.078125 L 6.15625 -2.078125 L 5.6875 0 L 0.421875 0 L 0.421875 -0.09375 Z M 0.5625 -0.09375 "/></g></g></g><g fill="#e6cf59" fill-opacity="1"><g transform="translate(130.741157, 237.344677)"><g><path d="M 8.296875 -7 C 8.054688 -7 7.878906 -6.898438 7.765625 -6.703125 C 7.703125 -6.617188 7.671875 -6.515625 7.671875 -6.390625 L 7.671875 -1.15625 C 7.671875 -0.707031 7.703125 -0.328125 7.765625 -0.015625 L 7.796875 0.140625 L 7.703125 0.140625 L 2.5625 -4.75 L 2.5625 -0.703125 C 2.5625 -0.535156 2.625 -0.390625 2.75 -0.265625 C 2.875 -0.148438 3.019531 -0.09375 3.1875 -0.09375 L 3.375 -0.09375 L 3.375 0 L 0.296875 0 L 0.296875 -0.09375 L 0.484375 -0.09375 C 0.660156 -0.09375 0.804688 -0.148438 0.921875 -0.265625 C 1.046875 -0.390625 1.109375 -0.539062 1.109375 -0.71875 L 1.109375 -5.984375 C 1.109375 -6.429688 1.082031 -6.804688 1.03125 -7.109375 L 1 -7.265625 L 1.09375 -7.265625 L 6.21875 -2.375 L 6.21875 -6.390625 C 6.21875 -6.566406 6.15625 -6.710938 6.03125 -6.828125 C 5.90625 -6.941406 5.757812 -7 5.59375 -7 L 5.40625 -7 L 5.40625 -7.109375 L 8.484375 -7.109375 L 8.484375 -7 Z M 8.296875 -7 "/></g></g></g><g fill="#e6cf59" fill-opacity="1"><g transform="translate(144.884966, 237.344677)"><g/></g></g><g fill="#e6cf59" fill-opacity="1"><g transform="translate(152.7875, 237.344677)"><g><path d="M 0.5625 -0.09375 C 0.738281 -0.09375 0.890625 -0.15625 1.015625 -0.28125 C 1.140625 -0.414062 1.203125 -0.566406 1.203125 -0.734375 L 1.203125 -6.375 C 1.203125 -6.625 1.09375 -6.804688 0.875 -6.921875 C 0.78125 -6.972656 0.675781 -7 0.5625 -7 L 0.421875 -7 L 0.421875 -7.109375 L 3.515625 -7.109375 L 3.5 -7 L 3.375 -7 C 3.132812 -7 2.953125 -6.894531 2.828125 -6.6875 C 2.765625 -6.59375 2.734375 -6.488281 2.734375 -6.375 L 2.734375 -0.734375 C 2.734375 -0.566406 2.796875 -0.414062 2.921875 -0.28125 C 3.054688 -0.15625 3.207031 -0.09375 3.375 -0.09375 L 3.5 -0.09375 L 3.515625 0 L 0.421875 0 L 0.421875 -0.09375 Z M 7.890625 0 L 7.0625 0 C 6.03125 0 5.300781 -0.28125 4.875 -0.84375 C 3.664062 -2.488281 3.0625 -3.320312 3.0625 -3.34375 L 5.46875 -6.546875 C 5.519531 -6.609375 5.546875 -6.664062 5.546875 -6.71875 C 5.546875 -6.769531 5.535156 -6.816406 5.515625 -6.859375 C 5.460938 -6.960938 5.367188 -7.015625 5.234375 -7.015625 L 5.125 -7.015625 L 5.125 -7.109375 L 7.453125 -7.109375 L 7.453125 -7.015625 L 7.40625 -7.015625 C 6.957031 -7.015625 6.59375 -6.851562 6.3125 -6.53125 L 4.328125 -4.1875 L 6.859375 -0.734375 C 7.171875 -0.328125 7.515625 -0.113281 7.890625 -0.09375 Z M 7.890625 0 "/></g></g></g><g fill="#e6cf59" fill-opacity="1"><g transform="translate(165.835275, 237.344677)"><g><path d="M 8.015625 -7 L 7.84375 -7 C 7.707031 -7 7.585938 -6.953125 7.484375 -6.859375 C 7.378906 -6.773438 7.328125 -6.664062 7.328125 -6.53125 L 7.328125 -2.5625 C 7.328125 -1.726562 7.066406 -1.066406 6.546875 -0.578125 C 6.023438 -0.0976562 5.304688 0.140625 4.390625 0.140625 C 3.328125 0.140625 2.507812 -0.0976562 1.9375 -0.578125 C 1.375 -1.054688 1.09375 -1.71875 1.09375 -2.5625 L 1.09375 -6.5 C 1.082031 -6.695312 0.988281 -6.847656 0.8125 -6.953125 C 0.726562 -6.984375 0.640625 -7 0.546875 -7 L 0.390625 -7 L 0.390625 -7.109375 L 3.3125 -7.109375 L 3.3125 -7 L 3.140625 -7 C 2.992188 -7 2.867188 -6.953125 2.765625 -6.859375 C 2.671875 -6.773438 2.617188 -6.660156 2.609375 -6.515625 L 2.609375 -2.640625 C 2.609375 -1.921875 2.785156 -1.347656 3.140625 -0.921875 C 3.492188 -0.503906 3.976562 -0.296875 4.59375 -0.296875 C 5.207031 -0.296875 5.691406 -0.492188 6.046875 -0.890625 C 6.410156 -1.296875 6.59375 -1.835938 6.59375 -2.515625 L 6.59375 -6.515625 C 6.582031 -6.710938 6.492188 -6.859375 6.328125 -6.953125 C 6.242188 -6.984375 6.15625 -7 6.0625 -7 L 5.90625 -7 L 5.90625 -7.109375 L 8.015625 -7.109375 Z M 8.015625 -7 "/></g></g></g><g fill="#e6cf59" fill-opacity="1"><g transform="translate(179.532547, 237.344677)"><g><path d="M 7.46875 -7 L 7.328125 -7 C 7.117188 -7 6.921875 -6.941406 6.734375 -6.828125 C 6.554688 -6.710938 6.414062 -6.578125 6.3125 -6.421875 L 4.3125 -3.234375 L 4.3125 -0.734375 C 4.3125 -0.566406 4.375 -0.414062 4.5 -0.28125 C 4.632812 -0.15625 4.789062 -0.09375 4.96875 -0.09375 L 5.078125 -0.09375 L 5.09375 0 L 2 0 L 2 -0.09375 L 2.140625 -0.09375 C 2.316406 -0.09375 2.46875 -0.15625 2.59375 -0.28125 C 2.71875 -0.40625 2.78125 -0.554688 2.78125 -0.734375 L 2.78125 -3.234375 L 0.84375 -6.421875 C 0.75 -6.585938 0.609375 -6.722656 0.421875 -6.828125 C 0.234375 -6.941406 0.0390625 -7 -0.15625 -7 L -0.296875 -7 L -0.296875 -7.109375 L 3.0625 -7.109375 L 3.0625 -7 L 2.9375 -7 C 2.78125 -7 2.660156 -6.929688 2.578125 -6.796875 C 2.546875 -6.722656 2.53125 -6.648438 2.53125 -6.578125 C 2.53125 -6.515625 2.546875 -6.445312 2.578125 -6.375 L 4.03125 -3.734375 L 5.546875 -6.375 C 5.578125 -6.445312 5.59375 -6.515625 5.59375 -6.578125 C 5.59375 -6.648438 5.566406 -6.722656 5.515625 -6.796875 C 5.429688 -6.929688 5.316406 -7 5.171875 -7 L 5.046875 -7 L 5.046875 -7.109375 L 7.46875 -7.109375 Z M 7.46875 -7 "/></g></g></g><g fill="#e6cf59" fill-opacity="1"><g transform="translate(192.022159, 237.344677)"><g><path d="M 8.015625 -7 L 7.84375 -7 C 7.707031 -7 7.585938 -6.953125 7.484375 -6.859375 C 7.378906 -6.773438 7.328125 -6.664062 7.328125 -6.53125 L 7.328125 -2.5625 C 7.328125 -1.726562 7.066406 -1.066406 6.546875 -0.578125 C 6.023438 -0.0976562 5.304688 0.140625 4.390625 0.140625 C 3.328125 0.140625 2.507812 -0.0976562 1.9375 -0.578125 C 1.375 -1.054688 1.09375 -1.71875 1.09375 -2.5625 L 1.09375 -6.5 C 1.082031 -6.695312 0.988281 -6.847656 0.8125 -6.953125 C 0.726562 -6.984375 0.640625 -7 0.546875 -7 L 0.390625 -7 L 0.390625 -7.109375 L 3.3125 -7.109375 L 3.3125 -7 L 3.140625 -7 C 2.992188 -7 2.867188 -6.953125 2.765625 -6.859375 C 2.671875 -6.773438 2.617188 -6.660156 2.609375 -6.515625 L 2.609375 -2.640625 C 2.609375 -1.921875 2.785156 -1.347656 3.140625 -0.921875 C 3.492188 -0.503906 3.976562 -0.296875 4.59375 -0.296875 C 5.207031 -0.296875 5.691406 -0.492188 6.046875 -0.890625 C 6.410156 -1.296875 6.59375 -1.835938 6.59375 -2.515625 L 6.59375 -6.515625 C 6.582031 -6.710938 6.492188 -6.859375 6.328125 -6.953125 C 6.242188 -6.984375 6.15625 -7 6.0625 -7 L 5.90625 -7 L 5.90625 -7.109375 L 8.015625 -7.109375 Z M 8.015625 -7 "/></g></g></g><g fill="#e6cf59" fill-opacity="1"><g transform="translate(205.719431, 237.344677)"><g><path d="M 9.625 -0.09375 L 9.78125 -0.09375 L 9.78125 0 L 6.734375 0 L 6.734375 -0.09375 L 6.890625 -0.09375 C 7.003906 -0.09375 7.097656 -0.132812 7.171875 -0.21875 C 7.253906 -0.3125 7.289062 -0.414062 7.28125 -0.53125 L 6.890625 -4.21875 L 4.96875 -0.921875 C 4.71875 -0.503906 4.59375 -0.128906 4.59375 0.203125 L 4.484375 0.203125 L 1.875 -4.1875 L 1.484375 -0.53125 C 1.472656 -0.414062 1.503906 -0.3125 1.578125 -0.21875 C 1.660156 -0.132812 1.757812 -0.09375 1.875 -0.09375 L 2.03125 -0.09375 L 2.03125 0 L -0.09375 0 L -0.09375 -0.09375 L 0.078125 -0.09375 C 0.265625 -0.09375 0.425781 -0.148438 0.5625 -0.265625 C 0.695312 -0.390625 0.78125 -0.546875 0.8125 -0.734375 L 1.65625 -7.25 L 1.75 -7.25 L 4.890625 -2.078125 L 7.921875 -7.25 L 8.015625 -7.25 L 8.875 -0.734375 C 8.90625 -0.546875 8.988281 -0.390625 9.125 -0.265625 C 9.269531 -0.148438 9.4375 -0.09375 9.625 -0.09375 Z M 9.625 -0.09375 "/></g></g></g><g fill="#e6cf59" fill-opacity="1"><g transform="translate(220.756303, 237.344677)"><g><path d="M 4.640625 0.125 C 3.335938 0.125 2.3125 -0.203125 1.5625 -0.859375 C 0.820312 -1.515625 0.453125 -2.410156 0.453125 -3.546875 C 0.453125 -4.691406 0.820312 -5.59375 1.5625 -6.25 C 2.300781 -6.914062 3.3125 -7.25 4.59375 -7.25 C 5.582031 -7.25 6.425781 -7.066406 7.125 -6.703125 L 7.15625 -4.953125 L 7.0625 -4.953125 C 6.71875 -6.203125 5.929688 -6.828125 4.703125 -6.828125 C 3.898438 -6.828125 3.265625 -6.535156 2.796875 -5.953125 C 2.335938 -5.378906 2.109375 -4.585938 2.109375 -3.578125 C 2.109375 -2.578125 2.328125 -1.78125 2.765625 -1.1875 C 3.210938 -0.601562 3.816406 -0.300781 4.578125 -0.28125 C 5.367188 -0.28125 5.96875 -0.476562 6.375 -0.875 C 6.789062 -1.28125 7.082031 -1.976562 7.25 -2.96875 L 7.328125 -2.96875 L 7.4375 -1.21875 C 6.882812 -0.3125 5.953125 0.132812 4.640625 0.125 Z M 4.640625 0.125 "/></g></g></g><g fill="#e6cf59" fill-opacity="1"><g transform="translate(234.037491, 237.344677)"><g><path d="M 8.015625 -7 L 7.84375 -7 C 7.707031 -7 7.585938 -6.953125 7.484375 -6.859375 C 7.378906 -6.773438 7.328125 -6.664062 7.328125 -6.53125 L 7.328125 -2.5625 C 7.328125 -1.726562 7.066406 -1.066406 6.546875 -0.578125 C 6.023438 -0.0976562 5.304688 0.140625 4.390625 0.140625 C 3.328125 0.140625 2.507812 -0.0976562 1.9375 -0.578125 C 1.375 -1.054688 1.09375 -1.71875 1.09375 -2.5625 L 1.09375 -6.5 C 1.082031 -6.695312 0.988281 -6.847656 0.8125 -6.953125 C 0.726562 -6.984375 0.640625 -7 0.546875 -7 L 0.390625 -7 L 0.390625 -7.109375 L 3.3125 -7.109375 L 3.3125 -7 L 3.140625 -7 C 2.992188 -7 2.867188 -6.953125 2.765625 -6.859375 C 2.671875 -6.773438 2.617188 -6.660156 2.609375 -6.515625 L 2.609375 -2.640625 C 2.609375 -1.921875 2.785156 -1.347656 3.140625 -0.921875 C 3.492188 -0.503906 3.976562 -0.296875 4.59375 -0.296875 C 5.207031 -0.296875 5.691406 -0.492188 6.046875 -0.890625 C 6.410156 -1.296875 6.59375 -1.835938 6.59375 -2.515625 L 6.59375 -6.515625 C 6.582031 -6.710938 6.492188 -6.859375 6.328125 -6.953125 C 6.242188 -6.984375 6.15625 -7 6.0625 -7 L 5.90625 -7 L 5.90625 -7.109375 L 8.015625 -7.109375 Z M 8.015625 -7 "/></g></g></g><g fill="#e6cf59" fill-opacity="1"><g transform="translate(247.734764, 237.344677)"><g><path d="M 0.5625 -0.09375 C 0.738281 -0.09375 0.890625 -0.15625 1.015625 -0.28125 C 1.140625 -0.414062 1.203125 -0.566406 1.203125 -0.734375 L 1.203125 -6.375 C 1.203125 -6.539062 1.140625 -6.6875 1.015625 -6.8125 C 0.890625 -6.9375 0.738281 -7 0.5625 -7 L 0.421875 -7 L 0.421875 -7.109375 L 3.515625 -7.109375 L 3.5 -7 L 3.375 -7 C 3.207031 -7 3.054688 -6.9375 2.921875 -6.8125 C 2.796875 -6.6875 2.734375 -6.539062 2.734375 -6.375 L 2.734375 -0.4375 L 4.0625 -0.4375 C 4.550781 -0.4375 4.960938 -0.578125 5.296875 -0.859375 C 5.640625 -1.148438 5.890625 -1.554688 6.046875 -2.078125 L 6.15625 -2.078125 L 5.6875 0 L 0.421875 0 L 0.421875 -0.09375 Z M 0.5625 -0.09375 "/></g></g></g><g fill="#e6cf59" fill-opacity="1"><g transform="translate(259.351615, 237.344677)"><g><path d="M 8.015625 -7 L 7.84375 -7 C 7.707031 -7 7.585938 -6.953125 7.484375 -6.859375 C 7.378906 -6.773438 7.328125 -6.664062 7.328125 -6.53125 L 7.328125 -2.5625 C 7.328125 -1.726562 7.066406 -1.066406 6.546875 -0.578125 C 6.023438 -0.0976562 5.304688 0.140625 4.390625 0.140625 C 3.328125 0.140625 2.507812 -0.0976562 1.9375 -0.578125 C 1.375 -1.054688 1.09375 -1.71875 1.09375 -2.5625 L 1.09375 -6.5 C 1.082031 -6.695312 0.988281 -6.847656 0.8125 -6.953125 C 0.726562 -6.984375 0.640625 -7 0.546875 -7 L 0.390625 -7 L 0.390625 -7.109375 L 3.3125 -7.109375 L 3.3125 -7 L 3.140625 -7 C 2.992188 -7 2.867188 -6.953125 2.765625 -6.859375 C 2.671875 -6.773438 2.617188 -6.660156 2.609375 -6.515625 L 2.609375 -2.640625 C 2.609375 -1.921875 2.785156 -1.347656 3.140625 -0.921875 C 3.492188 -0.503906 3.976562 -0.296875 4.59375 -0.296875 C 5.207031 -0.296875 5.691406 -0.492188 6.046875 -0.890625 C 6.410156 -1.296875 6.59375 -1.835938 6.59375 -2.515625 L 6.59375 -6.515625 C 6.582031 -6.710938 6.492188 -6.859375 6.328125 -6.953125 C 6.242188 -6.984375 6.15625 -7 6.0625 -7 L 5.90625 -7 L 5.90625 -7.109375 L 8.015625 -7.109375 Z M 8.015625 -7 "/></g></g></g><g fill="#e6cf59" fill-opacity="1"><g transform="translate(273.048887, 237.344677)"><g><path d="M 0.5625 -0.09375 C 0.738281 -0.09375 0.890625 -0.15625 1.015625 -0.28125 C 1.140625 -0.414062 1.203125 -0.566406 1.203125 -0.734375 L 1.203125 -6.375 C 1.203125 -6.625 1.09375 -6.804688 0.875 -6.921875 C 0.78125 -6.972656 0.675781 -7 0.5625 -7 L 0.421875 -7 L 0.421875 -7.109375 L 3.515625 -7.109375 L 3.5 -7 L 3.375 -7 C 3.132812 -7 2.953125 -6.894531 2.828125 -6.6875 C 2.765625 -6.59375 2.734375 -6.488281 2.734375 -6.375 L 2.734375 -0.734375 C 2.734375 -0.566406 2.796875 -0.414062 2.921875 -0.28125 C 3.054688 -0.15625 3.207031 -0.09375 3.375 -0.09375 L 3.5 -0.09375 L 3.515625 0 L 0.421875 0 L 0.421875 -0.09375 Z M 7.890625 0 L 7.0625 0 C 6.03125 0 5.300781 -0.28125 4.875 -0.84375 C 3.664062 -2.488281 3.0625 -3.320312 3.0625 -3.34375 L 5.46875 -6.546875 C 5.519531 -6.609375 5.546875 -6.664062 5.546875 -6.71875 C 5.546875 -6.769531 5.535156 -6.816406 5.515625 -6.859375 C 5.460938 -6.960938 5.367188 -7.015625 5.234375 -7.015625 L 5.125 -7.015625 L 5.125 -7.109375 L 7.453125 -7.109375 L 7.453125 -7.015625 L 7.40625 -7.015625 C 6.957031 -7.015625 6.59375 -6.851562 6.3125 -6.53125 L 4.328125 -4.1875 L 6.859375 -0.734375 C 7.171875 -0.328125 7.515625 -0.113281 7.890625 -0.09375 Z M 7.890625 0 "/></g></g></g><g transform="matrix(1, 0, 0, 1, 138, 263)"><g clip-path="url(#55fab7940e)"><g fill="#ffffff" fill-opacity="1"><g transform="translate(1.773255, 6.215129)"><g><path d="M 4.53125 -0.0625 L 4.578125 -0.0625 L 4.578125 0 L 3.15625 0 L 3.15625 -0.0625 L 3.203125 -0.0625 C 3.296875 -0.0625 3.363281 -0.0859375 3.40625 -0.140625 C 3.445312 -0.203125 3.46875 -0.257812 3.46875 -0.3125 C 3.46875 -0.363281 3.460938 -0.414062 3.453125 -0.46875 L 3.046875 -1.53125 L 1.328125 -1.53125 L 0.90625 -0.453125 C 0.894531 -0.398438 0.890625 -0.347656 0.890625 -0.296875 C 0.890625 -0.253906 0.910156 -0.203125 0.953125 -0.140625 C 0.992188 -0.0859375 1.0625 -0.0625 1.15625 -0.0625 L 1.203125 -0.0625 L 1.203125 0 L -0.0625 0 L -0.0625 -0.0625 L 0 -0.0625 C 0.101562 -0.0625 0.203125 -0.09375 0.296875 -0.15625 C 0.398438 -0.226562 0.484375 -0.332031 0.546875 -0.46875 L 1.984375 -3.859375 C 2.140625 -4.203125 2.21875 -4.421875 2.21875 -4.515625 L 2.265625 -4.515625 L 3.96875 -0.46875 C 4.03125 -0.332031 4.109375 -0.226562 4.203125 -0.15625 C 4.304688 -0.09375 4.414062 -0.0625 4.53125 -0.0625 Z M 1.40625 -1.734375 L 2.96875 -1.734375 L 2.203125 -3.765625 Z M 1.40625 -1.734375 "/></g></g></g><g fill="#ffffff" fill-opacity="1"><g transform="translate(7.146177, 6.215129)"><g><path d="M 0.390625 -0.265625 C 0.367188 -0.316406 0.359375 -0.425781 0.359375 -0.59375 C 0.359375 -0.769531 0.394531 -0.953125 0.46875 -1.140625 L 0.515625 -1.140625 C 0.515625 -1.085938 0.515625 -1.039062 0.515625 -1 C 0.515625 -0.738281 0.59375 -0.519531 0.75 -0.34375 C 0.90625 -0.175781 1.109375 -0.09375 1.359375 -0.09375 C 1.628906 -0.09375 1.847656 -0.171875 2.015625 -0.328125 C 2.191406 -0.492188 2.28125 -0.695312 2.28125 -0.9375 C 2.28125 -1.1875 2.195312 -1.382812 2.03125 -1.53125 L 0.8125 -2.671875 C 0.582031 -2.878906 0.46875 -3.128906 0.46875 -3.421875 C 0.46875 -3.722656 0.566406 -3.976562 0.765625 -4.1875 C 0.972656 -4.40625 1.25 -4.515625 1.59375 -4.515625 C 1.75 -4.515625 1.925781 -4.492188 2.125 -4.453125 L 2.375 -4.453125 L 2.375 -3.671875 L 2.328125 -3.671875 C 2.328125 -3.867188 2.253906 -4.023438 2.109375 -4.140625 C 1.972656 -4.265625 1.796875 -4.328125 1.578125 -4.328125 C 1.367188 -4.328125 1.191406 -4.253906 1.046875 -4.109375 C 0.898438 -3.960938 0.828125 -3.78125 0.828125 -3.5625 C 0.828125 -3.351562 0.910156 -3.171875 1.078125 -3.015625 L 2.328125 -1.859375 C 2.535156 -1.671875 2.640625 -1.410156 2.640625 -1.078125 C 2.640625 -0.753906 2.546875 -0.488281 2.359375 -0.28125 C 2.171875 -0.0703125 1.914062 0.046875 1.59375 0.078125 L 1.34375 0.375 C 1.40625 0.351562 1.472656 0.34375 1.546875 0.34375 C 1.722656 0.34375 1.84375 0.382812 1.90625 0.46875 C 1.96875 0.550781 2 0.648438 2 0.765625 C 2 0.953125 1.910156 1.085938 1.734375 1.171875 C 1.617188 1.222656 1.507812 1.25 1.40625 1.25 C 1.300781 1.25 1.203125 1.234375 1.109375 1.203125 L 1.125 1.140625 C 1.269531 1.140625 1.398438 1.109375 1.515625 1.046875 C 1.628906 0.984375 1.6875 0.890625 1.6875 0.765625 C 1.6875 0.578125 1.578125 0.484375 1.359375 0.484375 C 1.296875 0.484375 1.226562 0.5 1.15625 0.53125 L 1.125 0.46875 L 1.421875 0.09375 C 1.234375 0.0820312 1.039062 0.0507812 0.84375 0 C 0.644531 -0.0625 0.492188 -0.148438 0.390625 -0.265625 Z M 0.390625 -0.265625 "/></g></g></g><g fill="#ffffff" fill-opacity="1"><g transform="translate(11.019234, 6.215129)"><g><path d="M 1.6875 -0.0625 L 1.765625 -0.0625 L 1.765625 0 L 0.375 0 L 0.375 -0.0625 L 0.46875 -0.0625 C 0.570312 -0.0625 0.660156 -0.0976562 0.734375 -0.171875 C 0.816406 -0.253906 0.859375 -0.351562 0.859375 -0.46875 L 0.859375 -3.96875 C 0.859375 -4.082031 0.816406 -4.175781 0.734375 -4.25 C 0.660156 -4.320312 0.570312 -4.359375 0.46875 -4.359375 L 0.375 -4.359375 L 0.375 -4.421875 L 1.765625 -4.421875 L 1.765625 -4.359375 L 1.6875 -4.359375 C 1.570312 -4.359375 1.472656 -4.320312 1.390625 -4.25 C 1.316406 -4.175781 1.28125 -4.082031 1.28125 -3.96875 L 1.28125 -0.46875 C 1.28125 -0.351562 1.316406 -0.253906 1.390625 -0.171875 C 1.472656 -0.0976562 1.570312 -0.0625 1.6875 -0.0625 Z M 4.234375 0 L 3.953125 0 C 3.523438 0 3.207031 -0.117188 3 -0.359375 L 1.484375 -2.203125 L 2.96875 -4.078125 C 3.007812 -4.117188 3.03125 -4.15625 3.03125 -4.1875 C 3.03125 -4.21875 3.019531 -4.25 3 -4.28125 C 2.96875 -4.34375 2.910156 -4.375 2.828125 -4.375 L 2.765625 -4.375 L 2.765625 -4.421875 L 4.09375 -4.421875 L 4.09375 -4.375 L 4.0625 -4.375 C 3.789062 -4.375 3.566406 -4.273438 3.390625 -4.078125 L 1.890625 -2.359375 L 3.625 -0.328125 C 3.789062 -0.148438 3.992188 -0.0625 4.234375 -0.0625 Z M 4.234375 0 "/></g></g></g><g fill="#ffffff" fill-opacity="1"><g transform="translate(16.04408, 6.215129)"><g><path d="M 0.46875 -0.0625 C 0.570312 -0.0625 0.660156 -0.0976562 0.734375 -0.171875 C 0.816406 -0.253906 0.859375 -0.351562 0.859375 -0.46875 L 0.859375 -3.96875 C 0.859375 -4.082031 0.816406 -4.175781 0.734375 -4.25 C 0.660156 -4.320312 0.570312 -4.359375 0.46875 -4.359375 L 0.375 -4.359375 L 0.375 -4.421875 L 1.765625 -4.421875 L 1.765625 -4.359375 L 1.6875 -4.359375 C 1.570312 -4.359375 1.472656 -4.320312 1.390625 -4.25 C 1.316406 -4.175781 1.28125 -4.082031 1.28125 -3.96875 L 1.28125 -0.46875 C 1.28125 -0.351562 1.316406 -0.253906 1.390625 -0.171875 C 1.472656 -0.0976562 1.570312 -0.0625 1.6875 -0.0625 L 1.765625 -0.0625 L 1.765625 0 L 0.375 0 L 0.375 -0.0625 Z M 0.46875 -0.0625 "/></g></g></g><g fill="#ffffff" fill-opacity="1"><g transform="translate(19.050127, 6.215129)"><g><path d="M 4.921875 -4.359375 C 4.816406 -4.359375 4.722656 -4.320312 4.640625 -4.25 C 4.566406 -4.175781 4.53125 -4.085938 4.53125 -3.984375 L 4.53125 -0.71875 C 4.53125 -0.476562 4.546875 -0.25 4.578125 -0.03125 L 4.59375 0.09375 L 4.53125 0.09375 L 1.078125 -3.59375 L 1.078125 -0.4375 C 1.085938 -0.289062 1.15625 -0.179688 1.28125 -0.109375 C 1.332031 -0.078125 1.394531 -0.0625 1.46875 -0.0625 L 1.59375 -0.0625 L 1.59375 0 L 0.28125 0 L 0.28125 -0.0625 L 0.40625 -0.0625 C 0.507812 -0.0625 0.597656 -0.0976562 0.671875 -0.171875 C 0.753906 -0.242188 0.796875 -0.335938 0.796875 -0.453125 L 0.796875 -3.734375 C 0.796875 -3.992188 0.78125 -4.222656 0.75 -4.421875 L 0.734375 -4.53125 L 0.796875 -4.53125 L 4.25 -0.84375 L 4.25 -3.984375 C 4.238281 -4.085938 4.195312 -4.175781 4.125 -4.25 C 4.050781 -4.320312 3.960938 -4.359375 3.859375 -4.359375 L 3.734375 -4.359375 L 3.734375 -4.421875 L 5.03125 -4.421875 L 5.03125 -4.359375 Z M 4.921875 -4.359375 "/></g></g></g><g fill="#ffffff" fill-opacity="1"><g transform="translate(25.239427, 6.215129)"><g/></g></g><g fill="#ffffff" fill-opacity="1"><g transform="translate(27.68856, 6.215129)"><g><path d="M 1.921875 0 L 0.375 0 L 0.390625 -0.0625 L 0.46875 -0.0625 C 0.570312 -0.0625 0.660156 -0.0976562 0.734375 -0.171875 C 0.816406 -0.253906 0.859375 -0.347656 0.859375 -0.453125 L 0.859375 -3.96875 C 0.859375 -4.082031 0.816406 -4.175781 0.734375 -4.25 C 0.660156 -4.320312 0.570312 -4.359375 0.46875 -4.359375 L 0.390625 -4.359375 L 0.375 -4.421875 L 1.640625 -4.421875 C 2.078125 -4.421875 2.414062 -4.328125 2.65625 -4.140625 C 2.894531 -3.953125 3.015625 -3.695312 3.015625 -3.375 C 3.015625 -3.125 2.945312 -2.914062 2.8125 -2.75 C 2.675781 -2.582031 2.507812 -2.46875 2.3125 -2.40625 C 2.644531 -2.351562 2.90625 -2.21875 3.09375 -2 C 3.289062 -1.78125 3.390625 -1.5 3.390625 -1.15625 C 3.390625 -0.8125 3.257812 -0.53125 3 -0.3125 C 2.75 -0.101562 2.390625 0 1.921875 0 Z M 1.28125 -0.234375 L 1.890625 -0.234375 C 1.898438 -0.234375 1.90625 -0.234375 1.90625 -0.234375 C 2.226562 -0.234375 2.476562 -0.316406 2.65625 -0.484375 C 2.832031 -0.660156 2.921875 -0.910156 2.921875 -1.234375 C 2.921875 -1.410156 2.890625 -1.566406 2.828125 -1.703125 C 2.765625 -1.847656 2.6875 -1.957031 2.59375 -2.03125 C 2.351562 -2.238281 1.988281 -2.34375 1.5 -2.34375 L 1.5 -2.390625 C 1.5 -2.390625 1.515625 -2.390625 1.546875 -2.390625 C 1.585938 -2.390625 1.640625 -2.394531 1.703125 -2.40625 C 1.773438 -2.414062 1.851562 -2.429688 1.9375 -2.453125 C 2.019531 -2.472656 2.09375 -2.503906 2.15625 -2.546875 C 2.226562 -2.597656 2.296875 -2.65625 2.359375 -2.71875 C 2.472656 -2.863281 2.53125 -3.070312 2.53125 -3.34375 C 2.53125 -3.625 2.453125 -3.84375 2.296875 -4 C 2.140625 -4.15625 1.910156 -4.234375 1.609375 -4.234375 L 1.28125 -4.234375 Z M 1.28125 -0.234375 "/></g></g></g><g fill="#ffffff" fill-opacity="1"><g transform="translate(32.26408, 6.215129)"><g><path d="M 4.53125 -0.0625 L 4.578125 -0.0625 L 4.578125 0 L 3.15625 0 L 3.15625 -0.0625 L 3.203125 -0.0625 C 3.296875 -0.0625 3.363281 -0.0859375 3.40625 -0.140625 C 3.445312 -0.203125 3.46875 -0.257812 3.46875 -0.3125 C 3.46875 -0.363281 3.460938 -0.414062 3.453125 -0.46875 L 3.046875 -1.53125 L 1.328125 -1.53125 L 0.90625 -0.453125 C 0.894531 -0.398438 0.890625 -0.347656 0.890625 -0.296875 C 0.890625 -0.253906 0.910156 -0.203125 0.953125 -0.140625 C 0.992188 -0.0859375 1.0625 -0.0625 1.15625 -0.0625 L 1.203125 -0.0625 L 1.203125 0 L -0.0625 0 L -0.0625 -0.0625 L 0 -0.0625 C 0.101562 -0.0625 0.203125 -0.09375 0.296875 -0.15625 C 0.398438 -0.226562 0.484375 -0.332031 0.546875 -0.46875 L 1.984375 -3.859375 C 2.140625 -4.203125 2.21875 -4.421875 2.21875 -4.515625 L 2.265625 -4.515625 L 3.96875 -0.46875 C 4.03125 -0.332031 4.109375 -0.226562 4.203125 -0.15625 C 4.304688 -0.09375 4.414062 -0.0625 4.53125 -0.0625 Z M 1.40625 -1.734375 L 2.96875 -1.734375 L 2.203125 -3.765625 Z M 1.40625 -1.734375 "/></g></g></g><g fill="#ffffff" fill-opacity="1"><g transform="translate(37.637003, 6.215129)"><g><path d="M 0.390625 -0.265625 C 0.367188 -0.316406 0.359375 -0.425781 0.359375 -0.59375 C 0.359375 -0.769531 0.394531 -0.953125 0.46875 -1.140625 L 0.515625 -1.140625 C 0.515625 -1.085938 0.515625 -1.039062 0.515625 -1 C 0.515625 -0.738281 0.59375 -0.519531 0.75 -0.34375 C 0.90625 -0.175781 1.109375 -0.09375 1.359375 -0.09375 C 1.628906 -0.09375 1.847656 -0.171875 2.015625 -0.328125 C 2.191406 -0.492188 2.28125 -0.695312 2.28125 -0.9375 C 2.28125 -1.1875 2.195312 -1.382812 2.03125 -1.53125 L 0.8125 -2.671875 C 0.582031 -2.878906 0.46875 -3.128906 0.46875 -3.421875 C 0.46875 -3.722656 0.566406 -3.976562 0.765625 -4.1875 C 0.972656 -4.40625 1.25 -4.515625 1.59375 -4.515625 C 1.75 -4.515625 1.925781 -4.492188 2.125 -4.453125 L 2.375 -4.453125 L 2.375 -3.671875 L 2.328125 -3.671875 C 2.328125 -3.867188 2.253906 -4.023438 2.109375 -4.140625 C 1.972656 -4.265625 1.796875 -4.328125 1.578125 -4.328125 C 1.367188 -4.328125 1.191406 -4.253906 1.046875 -4.109375 C 0.898438 -3.960938 0.828125 -3.78125 0.828125 -3.5625 C 0.828125 -3.351562 0.910156 -3.171875 1.078125 -3.015625 L 2.328125 -1.859375 C 2.535156 -1.671875 2.640625 -1.410156 2.640625 -1.078125 C 2.640625 -0.753906 2.546875 -0.488281 2.359375 -0.28125 C 2.171875 -0.0703125 1.914062 0.046875 1.59375 0.078125 L 1.34375 0.375 C 1.40625 0.351562 1.472656 0.34375 1.546875 0.34375 C 1.722656 0.34375 1.84375 0.382812 1.90625 0.46875 C 1.96875 0.550781 2 0.648438 2 0.765625 C 2 0.953125 1.910156 1.085938 1.734375 1.171875 C 1.617188 1.222656 1.507812 1.25 1.40625 1.25 C 1.300781 1.25 1.203125 1.234375 1.109375 1.203125 L 1.125 1.140625 C 1.269531 1.140625 1.398438 1.109375 1.515625 1.046875 C 1.628906 0.984375 1.6875 0.890625 1.6875 0.765625 C 1.6875 0.578125 1.578125 0.484375 1.359375 0.484375 C 1.296875 0.484375 1.226562 0.5 1.15625 0.53125 L 1.125 0.46875 L 1.421875 0.09375 C 1.234375 0.0820312 1.039062 0.0507812 0.84375 0 C 0.644531 -0.0625 0.492188 -0.148438 0.390625 -0.265625 Z M 0.390625 -0.265625 "/></g></g></g><g fill="#ffffff" fill-opacity="1"><g transform="translate(41.51006, 6.215129)"><g><path d="M 0.46875 -0.0625 C 0.570312 -0.0625 0.660156 -0.0976562 0.734375 -0.171875 C 0.816406 -0.253906 0.859375 -0.351562 0.859375 -0.46875 L 0.859375 -3.96875 C 0.859375 -4.070312 0.816406 -4.160156 0.734375 -4.234375 C 0.660156 -4.316406 0.570312 -4.359375 0.46875 -4.359375 L 0.375 -4.359375 L 0.375 -4.421875 L 1.765625 -4.421875 L 1.765625 -4.359375 L 1.6875 -4.359375 C 1.53125 -4.359375 1.410156 -4.296875 1.328125 -4.171875 C 1.296875 -4.109375 1.28125 -4.039062 1.28125 -3.96875 L 1.28125 -0.203125 L 2.1875 -0.203125 C 2.5 -0.203125 2.734375 -0.269531 2.890625 -0.40625 C 3.054688 -0.539062 3.195312 -0.75 3.3125 -1.03125 L 3.375 -1.03125 L 3 0 L 0.375 0 L 0.375 -0.0625 Z M 0.46875 -0.0625 "/></g></g></g><g fill="#ffffff" fill-opacity="1"><g transform="translate(45.933699, 6.215129)"><g><path d="M 4.53125 -0.0625 L 4.578125 -0.0625 L 4.578125 0 L 3.15625 0 L 3.15625 -0.0625 L 3.203125 -0.0625 C 3.296875 -0.0625 3.363281 -0.0859375 3.40625 -0.140625 C 3.445312 -0.203125 3.46875 -0.257812 3.46875 -0.3125 C 3.46875 -0.363281 3.460938 -0.414062 3.453125 -0.46875 L 3.046875 -1.53125 L 1.328125 -1.53125 L 0.90625 -0.453125 C 0.894531 -0.398438 0.890625 -0.347656 0.890625 -0.296875 C 0.890625 -0.253906 0.910156 -0.203125 0.953125 -0.140625 C 0.992188 -0.0859375 1.0625 -0.0625 1.15625 -0.0625 L 1.203125 -0.0625 L 1.203125 0 L -0.0625 0 L -0.0625 -0.0625 L 0 -0.0625 C 0.101562 -0.0625 0.203125 -0.09375 0.296875 -0.15625 C 0.398438 -0.226562 0.484375 -0.332031 0.546875 -0.46875 L 1.984375 -3.859375 C 2.140625 -4.203125 2.21875 -4.421875 2.21875 -4.515625 L 2.265625 -4.515625 L 3.96875 -0.46875 C 4.03125 -0.332031 4.109375 -0.226562 4.203125 -0.15625 C 4.304688 -0.09375 4.414062 -0.0625 4.53125 -0.0625 Z M 1.40625 -1.734375 L 2.96875 -1.734375 L 2.203125 -3.765625 Z M 1.40625 -1.734375 "/></g></g></g><g fill="#ffffff" fill-opacity="1"><g transform="translate(51.306622, 6.215129)"><g><path d="M 2.53125 -4.421875 C 3.195312 -4.421875 3.738281 -4.21875 4.15625 -3.8125 C 4.582031 -3.40625 4.796875 -2.867188 4.796875 -2.203125 C 4.796875 -1.546875 4.582031 -1.015625 4.15625 -0.609375 C 3.738281 -0.203125 3.195312 0 2.53125 0 L 0.375 0 L 0.375 -0.0625 L 0.46875 -0.0625 C 0.570312 -0.0625 0.660156 -0.0976562 0.734375 -0.171875 C 0.816406 -0.253906 0.859375 -0.351562 0.859375 -0.46875 L 0.859375 -4 C 0.859375 -4.101562 0.816406 -4.1875 0.734375 -4.25 C 0.660156 -4.320312 0.570312 -4.359375 0.46875 -4.359375 L 0.390625 -4.359375 L 0.375 -4.421875 Z M 1.28125 -4.234375 L 1.28125 -0.1875 L 2.53125 -0.1875 C 2.882812 -0.1875 3.195312 -0.269531 3.46875 -0.4375 C 3.738281 -0.613281 3.945312 -0.851562 4.09375 -1.15625 C 4.25 -1.457031 4.328125 -1.8125 4.328125 -2.21875 C 4.328125 -2.820312 4.160156 -3.304688 3.828125 -3.671875 C 3.492188 -4.046875 3.0625 -4.234375 2.53125 -4.234375 Z M 1.28125 -4.234375 "/></g></g></g><g fill="#ffffff" fill-opacity="1"><g transform="translate(57.154178, 6.215129)"><g><path d="M 0.46875 -0.0625 C 0.570312 -0.0625 0.660156 -0.0976562 0.734375 -0.171875 C 0.816406 -0.253906 0.859375 -0.351562 0.859375 -0.46875 L 0.859375 -3.96875 C 0.859375 -4.082031 0.816406 -4.175781 0.734375 -4.25 C 0.660156 -4.320312 0.570312 -4.359375 0.46875 -4.359375 L 0.375 -4.359375 L 0.375 -4.421875 L 1.765625 -4.421875 L 1.765625 -4.359375 L 1.6875 -4.359375 C 1.570312 -4.359375 1.472656 -4.320312 1.390625 -4.25 C 1.316406 -4.175781 1.28125 -4.082031 1.28125 -3.96875 L 1.28125 -0.46875 C 1.28125 -0.351562 1.316406 -0.253906 1.390625 -0.171875 C 1.472656 -0.0976562 1.570312 -0.0625 1.6875 -0.0625 L 1.765625 -0.0625 L 1.765625 0 L 0.375 0 L 0.375 -0.0625 Z M 0.46875 -0.0625 "/></g></g></g><g clip-path="url(#5d688e39f6)"><g fill="#ffffff" fill-opacity="1"><g transform="translate(60.033653, 6.215129)"><g><path d="M 3.3125 -5.5 C 3.3125 -5.375 3.28125 -5.257812 3.21875 -5.15625 C 3.15625 -5.0625 3.070312 -4.984375 2.96875 -4.921875 C 2.875 -4.859375 2.753906 -4.828125 2.609375 -4.828125 C 2.460938 -4.828125 2.320312 -4.894531 2.1875 -5.03125 C 2.0625 -5.164062 2 -5.320312 2 -5.5 L 2.0625 -5.5 C 2.101562 -5.40625 2.175781 -5.320312 2.28125 -5.25 C 2.382812 -5.1875 2.503906 -5.15625 2.640625 -5.15625 C 2.785156 -5.15625 2.914062 -5.1875 3.03125 -5.25 C 3.144531 -5.320312 3.21875 -5.40625 3.25 -5.5 Z M 2.65625 0.09375 C 1.976562 0.0820312 1.425781 -0.128906 1 -0.546875 C 0.582031 -0.972656 0.375 -1.53125 0.375 -2.21875 C 0.375 -2.90625 0.582031 -3.457031 1 -3.875 C 1.425781 -4.300781 1.976562 -4.515625 2.65625 -4.515625 C 3.238281 -4.515625 3.75 -4.375 4.1875 -4.09375 L 4.3125 -3.203125 L 4.265625 -3.203125 C 4.171875 -3.554688 3.984375 -3.832031 3.703125 -4.03125 C 3.421875 -4.226562 3.070312 -4.328125 2.65625 -4.328125 C 2.113281 -4.328125 1.675781 -4.128906 1.34375 -3.734375 C 1.019531 -3.347656 0.859375 -2.835938 0.859375 -2.203125 C 0.859375 -1.578125 1.019531 -1.070312 1.34375 -0.6875 C 1.675781 -0.300781 2.113281 -0.101562 2.65625 -0.09375 C 3.207031 -0.09375 3.679688 -0.28125 4.078125 -0.65625 L 4.078125 -1.765625 C 4.078125 -1.859375 4.046875 -1.929688 3.984375 -1.984375 C 3.929688 -2.035156 3.859375 -2.0625 3.765625 -2.0625 L 3.65625 -2.0625 L 3.65625 -2.125 L 4.890625 -2.125 L 4.890625 -2.0625 L 4.796875 -2.0625 C 4.691406 -2.0625 4.613281 -2.035156 4.5625 -1.984375 C 4.507812 -1.929688 4.484375 -1.859375 4.484375 -1.765625 L 4.484375 -0.734375 C 4.316406 -0.503906 4.078125 -0.304688 3.765625 -0.140625 C 3.453125 0.015625 3.082031 0.09375 2.65625 0.09375 Z M 2.65625 0.09375 "/></g></g></g></g><g fill="#ffffff" fill-opacity="1"><g transform="translate(65.79261, 6.215129)"><g><path d="M 0.46875 -0.0625 C 0.570312 -0.0625 0.660156 -0.0976562 0.734375 -0.171875 C 0.816406 -0.253906 0.859375 -0.351562 0.859375 -0.46875 L 0.859375 -3.96875 C 0.859375 -4.082031 0.816406 -4.175781 0.734375 -4.25 C 0.660156 -4.320312 0.570312 -4.359375 0.46875 -4.359375 L 0.375 -4.359375 L 0.375 -4.421875 L 1.765625 -4.421875 L 1.765625 -4.359375 L 1.6875 -4.359375 C 1.570312 -4.359375 1.472656 -4.320312 1.390625 -4.25 C 1.316406 -4.175781 1.28125 -4.082031 1.28125 -3.96875 L 1.28125 -0.46875 C 1.28125 -0.351562 1.316406 -0.253906 1.390625 -0.171875 C 1.472656 -0.0976562 1.570312 -0.0625 1.6875 -0.0625 L 1.765625 -0.0625 L 1.765625 0 L 0.375 0 L 0.375 -0.0625 Z M 0.46875 -0.0625 "/></g></g></g><g fill="#ffffff" fill-opacity="1"><g transform="translate(68.798658, 6.215129)"><g/></g></g><g fill="#ffffff" fill-opacity="1"><g transform="translate(71.24779, 6.215129)"><g><path d="M 4.921875 -4.359375 C 4.816406 -4.359375 4.722656 -4.320312 4.640625 -4.25 C 4.566406 -4.175781 4.53125 -4.085938 4.53125 -3.984375 L 4.53125 -0.71875 C 4.53125 -0.476562 4.546875 -0.25 4.578125 -0.03125 L 4.59375 0.09375 L 4.53125 0.09375 L 1.078125 -3.59375 L 1.078125 -0.4375 C 1.085938 -0.289062 1.15625 -0.179688 1.28125 -0.109375 C 1.332031 -0.078125 1.394531 -0.0625 1.46875 -0.0625 L 1.59375 -0.0625 L 1.59375 0 L 0.28125 0 L 0.28125 -0.0625 L 0.40625 -0.0625 C 0.507812 -0.0625 0.597656 -0.0976562 0.671875 -0.171875 C 0.753906 -0.242188 0.796875 -0.335938 0.796875 -0.453125 L 0.796875 -3.734375 C 0.796875 -3.992188 0.78125 -4.222656 0.75 -4.421875 L 0.734375 -4.53125 L 0.796875 -4.53125 L 4.25 -0.84375 L 4.25 -3.984375 C 4.238281 -4.085938 4.195312 -4.175781 4.125 -4.25 C 4.050781 -4.320312 3.960938 -4.359375 3.859375 -4.359375 L 3.734375 -4.359375 L 3.734375 -4.421875 L 5.03125 -4.421875 L 5.03125 -4.359375 Z M 4.921875 -4.359375 "/></g></g></g><g fill="#ffffff" fill-opacity="1"><g transform="translate(77.310518, 6.215129)"><g><path d="M 1.0625 -3.875 C 1.488281 -4.300781 2.039062 -4.515625 2.71875 -4.515625 C 3.394531 -4.515625 3.941406 -4.300781 4.359375 -3.875 C 4.785156 -3.457031 5 -2.90625 5 -2.21875 C 5 -1.53125 4.785156 -0.972656 4.359375 -0.546875 C 3.941406 -0.117188 3.394531 0.09375 2.71875 0.09375 C 2.039062 0.09375 1.488281 -0.117188 1.0625 -0.546875 C 0.644531 -0.972656 0.4375 -1.53125 0.4375 -2.21875 C 0.4375 -2.90625 0.644531 -3.457031 1.0625 -3.875 Z M 1.421875 -0.671875 C 1.742188 -0.285156 2.175781 -0.09375 2.71875 -0.09375 C 3.257812 -0.09375 3.691406 -0.285156 4.015625 -0.671875 C 4.335938 -1.066406 4.5 -1.582031 4.5 -2.21875 C 4.5 -2.632812 4.425781 -3 4.28125 -3.3125 C 4.132812 -3.632812 3.925781 -3.882812 3.65625 -4.0625 C 3.382812 -4.238281 3.070312 -4.328125 2.71875 -4.328125 C 2.175781 -4.328125 1.742188 -4.128906 1.421875 -3.734375 C 1.097656 -3.347656 0.9375 -2.835938 0.9375 -2.203125 C 0.9375 -1.578125 1.097656 -1.066406 1.421875 -0.671875 Z M 1.421875 -0.671875 "/></g></g></g><g fill="#ffffff" fill-opacity="1"><g transform="translate(83.354262, 6.215129)"><g><path d="M 1.6875 -0.0625 L 1.765625 -0.0625 L 1.765625 0 L 0.375 0 L 0.375 -0.0625 L 0.46875 -0.0625 C 0.570312 -0.0625 0.660156 -0.0976562 0.734375 -0.171875 C 0.816406 -0.253906 0.859375 -0.351562 0.859375 -0.46875 L 0.859375 -3.96875 C 0.859375 -4.082031 0.816406 -4.175781 0.734375 -4.25 C 0.660156 -4.320312 0.570312 -4.359375 0.46875 -4.359375 L 0.375 -4.359375 L 0.375 -4.421875 L 1.765625 -4.421875 L 1.765625 -4.359375 L 1.6875 -4.359375 C 1.570312 -4.359375 1.472656 -4.320312 1.390625 -4.25 C 1.316406 -4.175781 1.28125 -4.082031 1.28125 -3.96875 L 1.28125 -0.46875 C 1.28125 -0.351562 1.316406 -0.253906 1.390625 -0.171875 C 1.472656 -0.0976562 1.570312 -0.0625 1.6875 -0.0625 Z M 4.234375 0 L 3.953125 0 C 3.523438 0 3.207031 -0.117188 3 -0.359375 L 1.484375 -2.203125 L 2.96875 -4.078125 C 3.007812 -4.117188 3.03125 -4.15625 3.03125 -4.1875 C 3.03125 -4.21875 3.019531 -4.25 3 -4.28125 C 2.96875 -4.34375 2.910156 -4.375 2.828125 -4.375 L 2.765625 -4.375 L 2.765625 -4.421875 L 4.09375 -4.421875 L 4.09375 -4.375 L 4.0625 -4.375 C 3.789062 -4.375 3.566406 -4.273438 3.390625 -4.078125 L 1.890625 -2.359375 L 3.625 -0.328125 C 3.789062 -0.148438 3.992188 -0.0625 4.234375 -0.0625 Z M 4.234375 0 "/></g></g></g><g fill="#ffffff" fill-opacity="1"><g transform="translate(88.379107, 6.215129)"><g><path d="M 3.734375 -3.859375 C 3.734375 -3.960938 3.695312 -4.050781 3.625 -4.125 C 3.550781 -4.195312 3.460938 -4.238281 3.359375 -4.25 L 2.171875 -4.25 L 2.171875 -0.453125 C 2.171875 -0.347656 2.207031 -0.253906 2.28125 -0.171875 C 2.363281 -0.0976562 2.457031 -0.0625 2.5625 -0.0625 L 2.65625 -0.0625 L 2.65625 0 L 1.265625 0 L 1.265625 -0.0625 L 1.34375 -0.0625 C 1.457031 -0.0625 1.550781 -0.0976562 1.625 -0.171875 C 1.707031 -0.253906 1.75 -0.347656 1.75 -0.453125 L 1.75 -4.25 L 0.546875 -4.25 C 0.453125 -4.238281 0.367188 -4.195312 0.296875 -4.125 C 0.222656 -4.050781 0.1875 -3.960938 0.1875 -3.859375 L 0.1875 -3.765625 L 0.125 -3.75 L 0.125 -4.546875 C 0.1875 -4.523438 0.296875 -4.5 0.453125 -4.46875 C 0.609375 -4.445312 0.753906 -4.4375 0.890625 -4.4375 L 3.03125 -4.4375 C 3.226562 -4.4375 3.394531 -4.453125 3.53125 -4.484375 C 3.675781 -4.515625 3.765625 -4.535156 3.796875 -4.546875 L 3.796875 -3.75 L 3.734375 -3.765625 Z M 3.734375 -3.859375 "/></g></g></g><g fill="#ffffff" fill-opacity="1"><g transform="translate(92.714148, 6.215129)"><g><path d="M 4.53125 -0.0625 L 4.578125 -0.0625 L 4.578125 0 L 3.15625 0 L 3.15625 -0.0625 L 3.203125 -0.0625 C 3.296875 -0.0625 3.363281 -0.0859375 3.40625 -0.140625 C 3.445312 -0.203125 3.46875 -0.257812 3.46875 -0.3125 C 3.46875 -0.363281 3.460938 -0.414062 3.453125 -0.46875 L 3.046875 -1.53125 L 1.328125 -1.53125 L 0.90625 -0.453125 C 0.894531 -0.398438 0.890625 -0.347656 0.890625 -0.296875 C 0.890625 -0.253906 0.910156 -0.203125 0.953125 -0.140625 C 0.992188 -0.0859375 1.0625 -0.0625 1.15625 -0.0625 L 1.203125 -0.0625 L 1.203125 0 L -0.0625 0 L -0.0625 -0.0625 L 0 -0.0625 C 0.101562 -0.0625 0.203125 -0.09375 0.296875 -0.15625 C 0.398438 -0.226562 0.484375 -0.332031 0.546875 -0.46875 L 1.984375 -3.859375 C 2.140625 -4.203125 2.21875 -4.421875 2.21875 -4.515625 L 2.265625 -4.515625 L 3.96875 -0.46875 C 4.03125 -0.332031 4.109375 -0.226562 4.203125 -0.15625 C 4.304688 -0.09375 4.414062 -0.0625 4.53125 -0.0625 Z M 1.40625 -1.734375 L 2.96875 -1.734375 L 2.203125 -3.765625 Z M 1.40625 -1.734375 "/></g></g></g></g></g></svg>