<svg xmlns="http://www.w3.org/2000/svg" xmlns:xlink="http://www.w3.org/1999/xlink" width="500" zoomAndPan="magnify" viewBox="0 0 375 374.999991" height="500" preserveAspectRatio="xMidYMid meet" version="1.0"><defs><g/><clipPath id="610ea3e805"><path d="M 116.125 73 L 184 73 L 184 149.898438 L 116.125 149.898438 Z M 116.125 73 " clip-rule="nonzero"/></clipPath><clipPath id="3fdd75c1df"><path d="M 191 73 L 258.875 73 L 258.875 149.898438 L 191 149.898438 Z M 191 73 " clip-rule="nonzero"/></clipPath><clipPath id="0914d30f04"><path d="M 190 37.5 L 235 37.5 L 235 65 L 190 65 Z M 190 37.5 " clip-rule="nonzero"/></clipPath><clipPath id="82ea581fa8"><path d="M 220 40 L 262.5 40 L 262.5 67 L 220 67 Z M 220 40 " clip-rule="nonzero"/></clipPath><clipPath id="980f02f612"><path d="M 140 37.5 L 185 37.5 L 185 65 L 140 65 Z M 140 37.5 " clip-rule="nonzero"/></clipPath><clipPath id="b7591ab58e"><path d="M 112.5 40 L 155 40 L 155 67 L 112.5 67 Z M 112.5 40 " clip-rule="nonzero"/></clipPath><clipPath id="6359a15e7f"><rect x="0" width="348" y="0" height="119"/></clipPath><clipPath id="b7dca35412"><path d="M 17.535156 284.273438 L 357.464844 284.273438 L 357.464844 337.5 L 17.535156 337.5 Z M 17.535156 284.273438 " clip-rule="nonzero"/></clipPath><clipPath id="e2ce733c23"><path d="M 0.535156 0.273438 L 340.464844 0.273438 L 340.464844 53.5 L 0.535156 53.5 Z M 0.535156 0.273438 " clip-rule="nonzero"/></clipPath><clipPath id="2cb3104c6a"><rect x="0" width="341" y="0" height="54"/></clipPath><clipPath id="69f0796a33"><path d="M 20.921875 137.125 L 164.921875 137.125 L 164.921875 144.746094 L 20.921875 144.746094 Z M 20.921875 137.125 " clip-rule="nonzero"/></clipPath><clipPath id="3dec33702e"><path d="M 0.921875 0.125 L 144.921875 0.125 L 144.921875 7.746094 L 0.921875 7.746094 Z M 0.921875 0.125 " clip-rule="nonzero"/></clipPath><clipPath id="0df9a10771"><rect x="0" width="145" y="0" height="8"/></clipPath><clipPath id="6a0d01698b"><path d="M 164.585938 137.011719 L 172.085938 137.011719 L 172.085938 144.511719 L 164.585938 144.511719 Z M 164.585938 137.011719 " clip-rule="nonzero"/></clipPath><clipPath id="0760ba32a5"><path d="M 202.542969 136.964844 L 210.792969 136.964844 L 210.792969 145 L 202.542969 145 Z M 202.542969 136.964844 " clip-rule="nonzero"/></clipPath><clipPath id="0664ee7b51"><path d="M 0.542969 1 L 8.476562 1 L 8.476562 8.960938 L 0.542969 8.960938 Z M 0.542969 1 " clip-rule="nonzero"/></clipPath><clipPath id="3bf99b6b6d"><path d="M 0.542969 0.964844 L 8.476562 0.964844 L 8.476562 8.960938 L 0.542969 8.960938 Z M 0.542969 0.964844 " clip-rule="nonzero"/></clipPath><clipPath id="d8fbb1b426"><rect x="0" width="9" y="0" height="9"/></clipPath><clipPath id="1578fad0c1"><path d="M 210.296875 137.152344 L 354.078125 137.152344 L 354.078125 145.089844 L 210.296875 145.089844 Z M 210.296875 137.152344 " clip-rule="nonzero"/></clipPath><clipPath id="3c129f2579"><path d="M 0.296875 0.152344 L 144.078125 0.152344 L 144.078125 8.089844 L 0.296875 8.089844 Z M 0.296875 0.152344 " clip-rule="nonzero"/></clipPath><clipPath id="c0d0027e2d"><rect x="0" width="145" y="0" height="9"/></clipPath><clipPath id="06ed8c9b7a"><path d="M 20.921875 156.777344 L 354.078125 156.777344 L 354.078125 163.734375 L 20.921875 163.734375 Z M 20.921875 156.777344 " clip-rule="nonzero"/></clipPath><clipPath id="04d56dd0b6"><path d="M 0.921875 0.777344 L 334.078125 0.777344 L 334.078125 7.734375 L 0.921875 7.734375 Z M 0.921875 0.777344 " clip-rule="nonzero"/></clipPath><clipPath id="af71d6c3fa"><rect x="0" width="335" y="0" height="8"/></clipPath></defs><g clip-path="url(#610ea3e805)"><path fill="#f2c64f" d="M 183.941406 149.898438 L 159.964844 73.109375 L 116.429688 73.109375 Z M 183.941406 149.898438 " fill-opacity="1" fill-rule="nonzero"/></g><path fill="#f2c64f" d="M 209.566406 73.109375 L 187.5 143.753906 L 165.433594 73.109375 Z M 209.566406 73.109375 " fill-opacity="1" fill-rule="nonzero"/><g clip-path="url(#3fdd75c1df)"><path fill="#f2c64f" d="M 191.042969 149.898438 L 215.035156 73.109375 L 258.570312 73.109375 Z M 191.042969 149.898438 " fill-opacity="1" fill-rule="nonzero"/></g><g clip-path="url(#0914d30f04)"><path fill="#f2c64f" d="M 190.84375 37.511719 L 234.816406 37.511719 L 215.511719 64.652344 Z M 190.84375 37.511719 " fill-opacity="1" fill-rule="nonzero"/></g><g clip-path="url(#82ea581fa8)"><path fill="#f2c64f" d="M 220.015625 66.152344 L 262.273438 66.152344 L 238.535156 40.101562 Z M 220.015625 66.152344 " fill-opacity="1" fill-rule="nonzero"/></g><path fill="#f2c64f" d="M 164.238281 66.152344 L 210.761719 66.152344 L 187.5 40.554688 Z M 164.238281 66.152344 " fill-opacity="1" fill-rule="nonzero"/><g clip-path="url(#980f02f612)"><path fill="#f2c64f" d="M 184.15625 37.511719 L 140.183594 37.511719 L 159.488281 64.652344 Z M 184.15625 37.511719 " fill-opacity="1" fill-rule="nonzero"/></g><g clip-path="url(#b7591ab58e)"><path fill="#f2c64f" d="M 154.984375 66.152344 L 112.726562 66.152344 L 136.464844 40.101562 Z M 154.984375 66.152344 " fill-opacity="1" fill-rule="nonzero"/></g><g transform="matrix(1, 0, 0, 1, 13, 172)"><g clip-path="url(#6359a15e7f)"><g fill="#f2c64f" fill-opacity="1"><g transform="translate(1.52104, 85.02716)"><g><path d="M 69.59375 -63.21875 L 67.578125 -63.21875 C 66.796875 -67.707031 65.335938 -71.035156 63.203125 -73.203125 C 61.078125 -75.367188 58.128906 -76.453125 54.359375 -76.453125 L 28.71875 -76.453125 L 28.71875 -45.140625 L 49.75 -45.140625 C 53.53125 -45.140625 56.207031 -46.082031 57.78125 -47.96875 C 59.351562 -49.863281 60.179688 -52.859375 60.265625 -56.953125 L 62.390625 -56.953125 L 62.390625 -28.359375 L 60.265625 -28.359375 C 60.265625 -32.453125 59.472656 -35.484375 57.890625 -37.453125 C 56.316406 -39.421875 53.519531 -40.40625 49.5 -40.40625 L 28.71875 -40.40625 L 28.71875 -10.75 C 28.71875 -6.726562 30.289062 -4.71875 33.4375 -4.71875 L 54.234375 -4.71875 C 58.566406 -4.71875 62.382812 -6.035156 65.6875 -8.671875 C 69 -11.316406 71.679688 -15.160156 73.734375 -20.203125 L 76.203125 -20.203125 L 69.59375 0 L 4.25 0 L 4.25 -2.125 C 8.34375 -2.125 11.316406 -2.8125 13.171875 -4.1875 C 15.023438 -5.570312 15.953125 -8.15625 15.953125 -11.9375 L 15.953125 -70.0625 C 15.953125 -73.21875 15.023438 -75.503906 13.171875 -76.921875 C 11.316406 -78.335938 8.34375 -79.046875 4.25 -79.046875 L 4.25 -81.171875 L 68.65625 -81.171875 Z M 69.59375 -63.21875 "/></g></g></g><g fill="#f2c64f" fill-opacity="1"><g transform="translate(80.327874, 85.02716)"><g><path d="M 69.953125 -60.015625 C 69.953125 -55.054688 68.253906 -50.785156 64.859375 -47.203125 C 61.472656 -43.617188 56.316406 -40.960938 49.390625 -39.234375 L 68.171875 -15.953125 C 70.460938 -13.117188 72.394531 -10.851562 73.96875 -9.15625 C 75.539062 -7.457031 77.488281 -5.921875 79.8125 -4.546875 C 82.132812 -3.171875 84.710938 -2.363281 87.546875 -2.125 L 87.546875 0 L 66.40625 0 L 35.796875 -38.046875 L 28 -38.046875 L 28 -11.703125 C 28 -8.234375 28.882812 -5.769531 30.65625 -4.3125 C 32.425781 -2.851562 35.203125 -2.125 38.984375 -2.125 L 39.46875 -2.125 L 39.46875 0 L 4.015625 0 L 4.015625 -2.125 C 7.796875 -2.125 10.609375 -2.789062 12.453125 -4.125 C 14.304688 -5.46875 15.234375 -7.875 15.234375 -11.34375 L 15.234375 -70.0625 C 15.234375 -73.21875 14.304688 -75.503906 12.453125 -76.921875 C 10.609375 -78.335938 7.796875 -79.046875 4.015625 -79.046875 L 4.015625 -81.171875 L 41.953125 -81.171875 C 49.671875 -81.171875 56.265625 -79.4375 61.734375 -75.96875 C 67.210938 -72.507812 69.953125 -67.191406 69.953125 -60.015625 Z M 28 -74.90625 L 28 -42.0625 L 30.953125 -42.0625 C 38.910156 -42.0625 44.9375 -43.613281 49.03125 -46.71875 C 53.125 -49.832031 55.171875 -54.148438 55.171875 -59.671875 C 55.171875 -64.472656 53.613281 -68.566406 50.5 -71.953125 C 47.394531 -75.335938 43.007812 -77.03125 37.34375 -77.03125 C 34.269531 -77.03125 31.15625 -76.320312 28 -74.90625 Z M 28 -74.90625 "/></g></g></g><g fill="#f2c64f" fill-opacity="1"><g transform="translate(171.422437, 85.02716)"><g><path d="M 69.59375 -63.21875 L 67.578125 -63.21875 C 66.796875 -67.707031 65.335938 -71.035156 63.203125 -73.203125 C 61.078125 -75.367188 58.128906 -76.453125 54.359375 -76.453125 L 28.71875 -76.453125 L 28.71875 -45.140625 L 49.75 -45.140625 C 53.53125 -45.140625 56.207031 -46.082031 57.78125 -47.96875 C 59.351562 -49.863281 60.179688 -52.859375 60.265625 -56.953125 L 62.390625 -56.953125 L 62.390625 -28.359375 L 60.265625 -28.359375 C 60.265625 -32.453125 59.472656 -35.484375 57.890625 -37.453125 C 56.316406 -39.421875 53.519531 -40.40625 49.5 -40.40625 L 28.71875 -40.40625 L 28.71875 -10.75 C 28.71875 -6.726562 30.289062 -4.71875 33.4375 -4.71875 L 54.234375 -4.71875 C 58.566406 -4.71875 62.382812 -6.035156 65.6875 -8.671875 C 69 -11.316406 71.679688 -15.160156 73.734375 -20.203125 L 76.203125 -20.203125 L 69.59375 0 L 4.25 0 L 4.25 -2.125 C 8.34375 -2.125 11.316406 -2.8125 13.171875 -4.1875 C 15.023438 -5.570312 15.953125 -8.15625 15.953125 -11.9375 L 15.953125 -70.0625 C 15.953125 -73.21875 15.023438 -75.503906 13.171875 -76.921875 C 11.316406 -78.335938 8.34375 -79.046875 4.25 -79.046875 L 4.25 -81.171875 L 68.65625 -81.171875 Z M 69.59375 -63.21875 "/></g></g></g><g fill="#f2c64f" fill-opacity="1"><g transform="translate(250.22927, 85.02716)"><g><path d="M 77.625 -21.265625 L 77.625 -69.953125 C 77.625 -73.492188 76.992188 -75.875 75.734375 -77.09375 C 74.472656 -78.3125 72.148438 -78.960938 68.765625 -79.046875 L 65.8125 -79.046875 L 65.8125 -81.171875 L 95.703125 -81.171875 L 95.703125 -79.046875 L 93.21875 -79.046875 C 90.070312 -79.046875 87.828125 -78.847656 86.484375 -78.453125 C 85.148438 -78.054688 84.226562 -77.128906 83.71875 -75.671875 C 83.207031 -74.222656 82.953125 -71.84375 82.953125 -68.53125 L 82.953125 0.9375 L 81.296875 0.9375 L 23.28125 -64.390625 L 23.28125 -13.703125 C 23.28125 -9.296875 24.164062 -6.265625 25.9375 -4.609375 C 27.707031 -2.953125 30.757812 -2.125 35.09375 -2.125 L 35.09375 0 L 5.796875 0 L 5.796875 -2.125 L 6.5 -2.125 C 10.28125 -2.125 13.15625 -2.8125 15.125 -4.1875 C 17.09375 -5.570312 18.078125 -8.113281 18.078125 -11.8125 L 18.078125 -69.59375 C 16.023438 -73.0625 13.695312 -75.503906 11.09375 -76.921875 C 8.5 -78.335938 5.3125 -79.046875 1.53125 -79.046875 L 1.53125 -81.171875 L 25.171875 -81.171875 Z M 77.625 -21.265625 "/></g></g></g></g></g><g clip-path="url(#b7dca35412)"><g transform="matrix(1, 0, 0, 1, 17, 284)"><g clip-path="url(#2cb3104c6a)"><g clip-path="url(#e2ce733c23)"><path fill="#edb45e" d="M 0.535156 0.273438 L 340.488281 0.273438 L 340.488281 53.5 L 0.535156 53.5 Z M 0.535156 0.273438 " fill-opacity="1" fill-rule="nonzero"/></g></g></g></g><g fill="#ffffff" fill-opacity="1"><g transform="translate(26.066227, 322.511052)"><g><path d="M 25.140625 0 L 17.109375 0 L 7.6875 -10.84375 L 7.6875 0 L 1.859375 0 L 1.859375 -25.578125 L 7.6875 -25.578125 L 7.6875 -15.125 L 16.46875 -25.578125 L 23.53125 -25.578125 L 13.234375 -13.453125 Z M 25.140625 0 "/></g></g></g><g fill="#ffffff" fill-opacity="1"><g transform="translate(60.751997, 322.511052)"><g><path d="M 21.515625 -25.578125 L 21.515625 -9.078125 C 21.515625 -5.941406 20.664062 -3.566406 18.96875 -1.953125 C 17.28125 -0.335938 14.800781 0.46875 11.53125 0.46875 C 8.269531 0.46875 5.789062 -0.335938 4.09375 -1.953125 C 2.394531 -3.566406 1.546875 -5.941406 1.546875 -9.078125 L 1.546875 -25.578125 L 7.375 -25.578125 L 7.375 -10.78125 C 7.375 -8.71875 7.695312 -7.28125 8.34375 -6.46875 C 9 -5.664062 10.0625 -5.265625 11.53125 -5.265625 C 13 -5.265625 14.054688 -5.664062 14.703125 -6.46875 C 15.359375 -7.28125 15.6875 -8.71875 15.6875 -10.78125 L 15.6875 -25.578125 Z M 21.515625 -25.578125 "/></g></g></g><g fill="#ffffff" fill-opacity="1"><g transform="translate(91.315159, 322.511052)"><g><path d="M -0.9375 -25.578125 L 6.078125 -25.578125 L 11.40625 -17.390625 L 16.734375 -25.578125 L 23.75 -25.578125 L 14.328125 -11.46875 L 14.328125 0 L 8.5 0 L 8.5 -11.46875 Z M -0.9375 -25.578125 "/></g></g></g><g fill="#ffffff" fill-opacity="1"><g transform="translate(124.420133, 322.511052)"><g><path d="M 21.515625 -25.578125 L 21.515625 -9.078125 C 21.515625 -5.941406 20.664062 -3.566406 18.96875 -1.953125 C 17.28125 -0.335938 14.800781 0.46875 11.53125 0.46875 C 8.269531 0.46875 5.789062 -0.335938 4.09375 -1.953125 C 2.394531 -3.566406 1.546875 -5.941406 1.546875 -9.078125 L 1.546875 -25.578125 L 7.375 -25.578125 L 7.375 -10.78125 C 7.375 -8.71875 7.695312 -7.28125 8.34375 -6.46875 C 9 -5.664062 10.0625 -5.265625 11.53125 -5.265625 C 13 -5.265625 14.054688 -5.664062 14.703125 -6.46875 C 15.359375 -7.28125 15.6875 -8.71875 15.6875 -10.78125 L 15.6875 -25.578125 Z M 21.515625 -25.578125 "/></g></g></g><g fill="#ffffff" fill-opacity="1"><g transform="translate(157.773067, 322.511052)"><g><path d="M 23 0 L 21.796875 -15.15625 L 21.640625 -15.15625 L 16.40625 -0.15625 L 12.921875 -0.15625 L 7.6875 -15.15625 L 7.53125 -15.15625 L 6.328125 0 L 0.5 0 L 2.796875 -25.578125 L 8.984375 -25.578125 L 14.65625 -10.8125 L 20.328125 -25.578125 L 26.53125 -25.578125 L 28.828125 0 Z M 23 0 "/></g></g></g><g fill="#ffffff" fill-opacity="1"><g transform="translate(196.395306, 322.511052)"><g><path d="M 15.46875 -5.265625 C 16.351562 -5.265625 17.210938 -5.398438 18.046875 -5.671875 C 18.890625 -5.941406 19.507812 -6.203125 19.90625 -6.453125 L 20.484375 -6.84375 L 22.96875 -1.890625 C 22.882812 -1.828125 22.769531 -1.742188 22.625 -1.640625 C 22.476562 -1.535156 22.140625 -1.34375 21.609375 -1.0625 C 21.085938 -0.789062 20.523438 -0.550781 19.921875 -0.34375 C 19.328125 -0.132812 18.546875 0.0507812 17.578125 0.21875 C 16.609375 0.382812 15.601562 0.46875 14.5625 0.46875 C 12.1875 0.46875 9.9375 -0.113281 7.8125 -1.28125 C 5.6875 -2.445312 3.972656 -4.050781 2.671875 -6.09375 C 1.367188 -8.144531 0.71875 -10.359375 0.71875 -12.734375 C 0.71875 -14.535156 1.097656 -16.257812 1.859375 -17.90625 C 2.617188 -19.5625 3.632812 -20.976562 4.90625 -22.15625 C 6.175781 -23.34375 7.660156 -24.285156 9.359375 -24.984375 C 11.054688 -25.691406 12.789062 -26.046875 14.5625 -26.046875 C 16.21875 -26.046875 17.742188 -25.847656 19.140625 -25.453125 C 20.535156 -25.054688 21.523438 -24.660156 22.109375 -24.265625 L 22.96875 -23.6875 L 20.484375 -18.71875 C 20.347656 -18.84375 20.132812 -18.992188 19.84375 -19.171875 C 19.550781 -19.347656 18.96875 -19.582031 18.09375 -19.875 C 17.226562 -20.164062 16.351562 -20.3125 15.46875 -20.3125 C 14.0625 -20.3125 12.800781 -20.082031 11.6875 -19.625 C 10.570312 -19.164062 9.6875 -18.5625 9.03125 -17.8125 C 8.382812 -17.070312 7.890625 -16.273438 7.546875 -15.421875 C 7.203125 -14.566406 7.03125 -13.691406 7.03125 -12.796875 C 7.03125 -10.859375 7.757812 -9.117188 9.21875 -7.578125 C 10.675781 -6.035156 12.757812 -5.265625 15.46875 -5.265625 Z M 15.46875 -5.265625 "/></g></g></g><g fill="#ffffff" fill-opacity="1"><g transform="translate(230.027213, 322.511052)"><g><path d="M 21.515625 -25.578125 L 21.515625 -9.078125 C 21.515625 -5.941406 20.664062 -3.566406 18.96875 -1.953125 C 17.28125 -0.335938 14.800781 0.46875 11.53125 0.46875 C 8.269531 0.46875 5.789062 -0.335938 4.09375 -1.953125 C 2.394531 -3.566406 1.546875 -5.941406 1.546875 -9.078125 L 1.546875 -25.578125 L 7.375 -25.578125 L 7.375 -10.78125 C 7.375 -8.71875 7.695312 -7.28125 8.34375 -6.46875 C 9 -5.664062 10.0625 -5.265625 11.53125 -5.265625 C 13 -5.265625 14.054688 -5.664062 14.703125 -6.46875 C 15.359375 -7.28125 15.6875 -8.71875 15.6875 -10.78125 L 15.6875 -25.578125 Z M 21.515625 -25.578125 "/></g></g></g><g fill="#ffffff" fill-opacity="1"><g transform="translate(263.380147, 322.511052)"><g><path d="M 7.6875 -25.578125 L 7.6875 -5.109375 L 16.484375 -5.109375 L 16.484375 0 L 1.859375 0 L 1.859375 -25.578125 Z M 7.6875 -25.578125 "/></g></g></g><g fill="#ffffff" fill-opacity="1"><g transform="translate(291.184778, 322.511052)"><g><path d="M 21.515625 -25.578125 L 21.515625 -9.078125 C 21.515625 -5.941406 20.664062 -3.566406 18.96875 -1.953125 C 17.28125 -0.335938 14.800781 0.46875 11.53125 0.46875 C 8.269531 0.46875 5.789062 -0.335938 4.09375 -1.953125 C 2.394531 -3.566406 1.546875 -5.941406 1.546875 -9.078125 L 1.546875 -25.578125 L 7.375 -25.578125 L 7.375 -10.78125 C 7.375 -8.71875 7.695312 -7.28125 8.34375 -6.46875 C 9 -5.664062 10.0625 -5.265625 11.53125 -5.265625 C 13 -5.265625 14.054688 -5.664062 14.703125 -6.46875 C 15.359375 -7.28125 15.6875 -8.71875 15.6875 -10.78125 L 15.6875 -25.578125 Z M 21.515625 -25.578125 "/></g></g></g><g fill="#ffffff" fill-opacity="1"><g transform="translate(324.537712, 322.511052)"><g><path d="M 25.140625 0 L 17.109375 0 L 7.6875 -10.84375 L 7.6875 0 L 1.859375 0 L 1.859375 -25.578125 L 7.6875 -25.578125 L 7.6875 -15.125 L 16.46875 -25.578125 L 23.53125 -25.578125 L 13.234375 -13.453125 Z M 25.140625 0 "/></g></g></g><g fill="#ffffff" fill-opacity="1"><g transform="translate(85.919427, 274.472149)"><g><path d="M 2.359375 0.25 C 1.847656 0.25 1.390625 0.15625 0.984375 -0.03125 C 0.578125 -0.21875 0.253906 -0.484375 0.015625 -0.828125 C -0.210938 -1.179688 -0.328125 -1.601562 -0.328125 -2.09375 C -0.328125 -2.632812 -0.175781 -3.15625 0.125 -3.65625 C 0.425781 -4.15625 0.828125 -4.601562 1.328125 -5 C 1.835938 -5.394531 2.414062 -5.707031 3.0625 -5.9375 C 3.707031 -6.164062 4.375 -6.28125 5.0625 -6.28125 C 5.488281 -6.28125 5.9375 -6.203125 6.40625 -6.046875 C 6.875 -5.898438 7.359375 -5.71875 7.859375 -5.5 C 8.367188 -5.289062 8.867188 -5.097656 9.359375 -4.921875 C 9.960938 -5.566406 10.53125 -6.210938 11.0625 -6.859375 C 11.601562 -7.503906 12.085938 -8.109375 12.515625 -8.671875 C 12.941406 -9.234375 13.289062 -9.707031 13.5625 -10.09375 L 10.15625 -10.046875 C 9.90625 -10.046875 9.710938 -10 9.578125 -9.90625 C 9.453125 -9.8125 9.3125 -9.671875 9.15625 -9.484375 L 9.03125 -9.5625 C 9.28125 -9.914062 9.488281 -10.203125 9.65625 -10.421875 C 9.820312 -10.648438 9.988281 -10.835938 10.15625 -10.984375 C 10.257812 -11.066406 10.375 -11.125 10.5 -11.15625 C 10.632812 -11.1875 10.753906 -11.203125 10.859375 -11.203125 L 14.875 -11.203125 C 15 -11.203125 15.078125 -11.175781 15.109375 -11.125 C 15.140625 -11.082031 15.144531 -11 15.125 -10.875 C 14.851562 -9.65625 14.609375 -8.519531 14.390625 -7.46875 C 14.179688 -6.414062 14.003906 -5.476562 13.859375 -4.65625 C 13.722656 -3.84375 13.613281 -3.171875 13.53125 -2.640625 C 13.457031 -2.117188 13.421875 -1.773438 13.421875 -1.609375 C 13.421875 -1.316406 13.46875 -1.113281 13.5625 -1 C 13.664062 -0.894531 13.804688 -0.84375 13.984375 -0.84375 C 14.117188 -0.84375 14.265625 -0.890625 14.421875 -0.984375 C 14.585938 -1.078125 14.816406 -1.265625 15.109375 -1.546875 L 15.234375 -1.40625 C 14.679688 -0.875 14.222656 -0.488281 13.859375 -0.25 C 13.492188 -0.0078125 13.148438 0.109375 12.828125 0.109375 C 12.566406 0.109375 12.347656 0.015625 12.171875 -0.171875 C 11.992188 -0.367188 11.90625 -0.65625 11.90625 -1.03125 C 11.90625 -1.363281 11.953125 -1.847656 12.046875 -2.484375 C 12.148438 -3.128906 12.289062 -3.894531 12.46875 -4.78125 C 12.15625 -4.53125 11.800781 -4.3125 11.40625 -4.125 C 11.007812 -3.9375 10.578125 -3.84375 10.109375 -3.84375 C 9.660156 -3.84375 9.226562 -3.882812 8.8125 -3.96875 C 8.28125 -3.414062 7.734375 -2.882812 7.171875 -2.375 C 6.609375 -1.863281 6.046875 -1.410156 5.484375 -1.015625 C 4.929688 -0.628906 4.390625 -0.320312 3.859375 -0.09375 C 3.335938 0.132812 2.835938 0.25 2.359375 0.25 Z M 0.796875 -2.8125 C 0.796875 -2.289062 0.898438 -1.859375 1.109375 -1.515625 C 1.316406 -1.171875 1.59375 -0.914062 1.9375 -0.75 C 2.28125 -0.582031 2.644531 -0.5 3.03125 -0.5 C 3.625 -0.507812 4.21875 -0.671875 4.8125 -0.984375 C 5.414062 -1.304688 6.03125 -1.734375 6.65625 -2.265625 C 7.28125 -2.804688 7.90625 -3.398438 8.53125 -4.046875 C 8.039062 -4.160156 7.582031 -4.304688 7.15625 -4.484375 C 6.738281 -4.671875 6.332031 -4.851562 5.9375 -5.03125 C 5.539062 -5.21875 5.148438 -5.367188 4.765625 -5.484375 C 4.390625 -5.609375 4.003906 -5.671875 3.609375 -5.671875 C 3.035156 -5.671875 2.535156 -5.53125 2.109375 -5.25 C 1.691406 -4.976562 1.367188 -4.625 1.140625 -4.1875 C 0.910156 -3.757812 0.796875 -3.300781 0.796875 -2.8125 Z M 9.625 -4.84375 C 9.894531 -4.75 10.164062 -4.675781 10.4375 -4.625 C 10.707031 -4.570312 10.96875 -4.546875 11.21875 -4.546875 C 11.519531 -4.546875 11.773438 -4.597656 11.984375 -4.703125 C 12.191406 -4.804688 12.367188 -4.921875 12.515625 -5.046875 C 12.648438 -5.710938 12.800781 -6.429688 12.96875 -7.203125 C 13.144531 -7.984375 13.332031 -8.796875 13.53125 -9.640625 C 13.25 -9.253906 12.90625 -8.796875 12.5 -8.265625 C 12.101562 -7.742188 11.660156 -7.191406 11.171875 -6.609375 C 10.679688 -6.023438 10.164062 -5.4375 9.625 -4.84375 Z M 9.625 -4.84375 "/></g></g></g><g fill="#ffffff" fill-opacity="1"><g transform="translate(106.056724, 274.472149)"><g><path d="M 0.765625 0.09375 C 0.335938 0.09375 0.0195312 0.0390625 -0.1875 -0.0625 C -0.40625 -0.175781 -0.546875 -0.316406 -0.609375 -0.484375 C -0.671875 -0.648438 -0.695312 -0.800781 -0.6875 -0.9375 C -0.632812 -1.46875 -0.140625 -1.957031 0.796875 -2.40625 L 0.890625 -2.328125 C 0.796875 -2.203125 0.710938 -2.0625 0.640625 -1.90625 C 0.578125 -1.75 0.546875 -1.578125 0.546875 -1.390625 C 0.546875 -1.128906 0.628906 -0.890625 0.796875 -0.671875 C 0.960938 -0.460938 1.25 -0.351562 1.65625 -0.34375 C 2.007812 -0.34375 2.304688 -0.460938 2.546875 -0.703125 C 2.785156 -0.941406 2.90625 -1.257812 2.90625 -1.65625 C 2.90625 -1.925781 2.847656 -2.191406 2.734375 -2.453125 C 2.617188 -2.722656 2.484375 -2.992188 2.328125 -3.265625 C 2.171875 -3.535156 2.035156 -3.796875 1.921875 -4.046875 C 1.804688 -4.304688 1.75 -4.5625 1.75 -4.8125 C 1.75 -5.238281 1.90625 -5.625 2.21875 -5.96875 C 2.53125 -6.3125 2.9375 -6.582031 3.4375 -6.78125 C 3.9375 -6.988281 4.460938 -7.09375 5.015625 -7.09375 C 5.179688 -7.09375 5.363281 -7.078125 5.5625 -7.046875 C 5.757812 -7.023438 5.929688 -6.984375 6.078125 -6.921875 C 6.234375 -6.867188 6.3125 -6.796875 6.3125 -6.703125 C 6.3125 -6.585938 6.273438 -6.453125 6.203125 -6.296875 C 6.128906 -6.140625 6.015625 -6.003906 5.859375 -5.890625 C 5.710938 -5.773438 5.53125 -5.71875 5.3125 -5.71875 C 5.082031 -5.71875 4.796875 -5.800781 4.453125 -5.96875 C 4.109375 -6.144531 3.734375 -6.332031 3.328125 -6.53125 C 3.179688 -6.445312 3.078125 -6.332031 3.015625 -6.1875 C 2.953125 -6.050781 2.921875 -5.910156 2.921875 -5.765625 C 2.921875 -5.484375 2.984375 -5.203125 3.109375 -4.921875 C 3.234375 -4.640625 3.375 -4.351562 3.53125 -4.0625 C 3.695312 -3.769531 3.835938 -3.476562 3.953125 -3.1875 C 4.066406 -2.90625 4.117188 -2.613281 4.109375 -2.3125 C 4.085938 -1.945312 3.9375 -1.601562 3.65625 -1.28125 C 3.382812 -0.957031 3.039062 -0.675781 2.625 -0.4375 C 2.21875 -0.207031 1.800781 -0.0507812 1.375 0.03125 L 0.609375 0.6875 C 0.984375 0.625 1.296875 0.632812 1.546875 0.71875 C 1.796875 0.800781 1.976562 0.921875 2.09375 1.078125 C 2.21875 1.234375 2.28125 1.390625 2.28125 1.546875 C 2.28125 1.859375 2.175781 2.148438 1.96875 2.421875 C 1.769531 2.691406 1.503906 2.910156 1.171875 3.078125 C 0.847656 3.253906 0.503906 3.34375 0.140625 3.34375 C -0.179688 3.34375 -0.4375 3.28125 -0.625 3.15625 C -0.8125 3.03125 -0.90625 2.90625 -0.90625 2.78125 C -0.90625 2.675781 -0.84375 2.566406 -0.71875 2.453125 C -0.59375 2.347656 -0.46875 2.296875 -0.34375 2.296875 C -0.195312 2.296875 -0.0664062 2.347656 0.046875 2.453125 C 0.171875 2.554688 0.300781 2.660156 0.4375 2.765625 C 0.570312 2.867188 0.742188 2.921875 0.953125 2.921875 C 1.171875 2.921875 1.347656 2.847656 1.484375 2.703125 C 1.617188 2.554688 1.6875 2.394531 1.6875 2.21875 C 1.6875 2.03125 1.585938 1.847656 1.390625 1.671875 C 1.191406 1.503906 0.867188 1.421875 0.421875 1.421875 C 0.296875 1.421875 0.164062 1.425781 0.03125 1.4375 C -0.101562 1.457031 -0.25 1.488281 -0.40625 1.53125 L -0.46875 1.4375 L 1.078125 0.078125 C 1.035156 0.0859375 0.984375 0.09375 0.921875 0.09375 C 0.867188 0.09375 0.816406 0.09375 0.765625 0.09375 Z M 0.765625 0.09375 "/></g></g></g><g fill="#ffffff" fill-opacity="1"><g transform="translate(115.867789, 274.472149)"><g><path d="M -0.265625 0 C -0.367188 0 -0.4375 -0.03125 -0.46875 -0.09375 C -0.507812 -0.164062 -0.507812 -0.25 -0.46875 -0.34375 L 2.953125 -6.640625 C 3.273438 -7.210938 3.691406 -7.773438 4.203125 -8.328125 C 4.722656 -8.890625 5.3125 -9.394531 5.96875 -9.84375 C 6.625 -10.289062 7.316406 -10.644531 8.046875 -10.90625 C 8.773438 -11.164062 9.503906 -11.296875 10.234375 -11.296875 C 10.566406 -11.296875 10.835938 -11.269531 11.046875 -11.21875 C 11.265625 -11.175781 11.375 -11.097656 11.375 -10.984375 C 11.375 -10.859375 11.3125 -10.707031 11.1875 -10.53125 C 11.070312 -10.363281 10.90625 -10.210938 10.6875 -10.078125 C 10.46875 -9.953125 10.210938 -9.890625 9.921875 -9.890625 C 9.628906 -9.890625 9.300781 -9.9375 8.9375 -10.03125 C 8.570312 -10.125 8.0625 -10.257812 7.40625 -10.4375 C 7.050781 -10.289062 6.734375 -10.097656 6.453125 -9.859375 C 6.171875 -9.617188 5.898438 -9.304688 5.640625 -8.921875 C 5.378906 -8.546875 5.09375 -8.054688 4.78125 -7.453125 L 3.03125 -4.09375 C 3.59375 -4.738281 4.164062 -5.285156 4.75 -5.734375 C 5.332031 -6.179688 5.867188 -6.519531 6.359375 -6.75 C 6.859375 -6.988281 7.253906 -7.113281 7.546875 -7.125 C 7.898438 -7.132812 8.171875 -7.0625 8.359375 -6.90625 C 8.554688 -6.75 8.65625 -6.546875 8.65625 -6.296875 C 8.65625 -6.128906 8.59375 -5.925781 8.46875 -5.6875 C 8.34375 -5.457031 8.125 -5.203125 7.8125 -4.921875 C 7.5 -4.648438 7.070312 -4.367188 6.53125 -4.078125 C 5.988281 -3.785156 5.285156 -3.5 4.421875 -3.21875 C 4.484375 -3 4.554688 -2.753906 4.640625 -2.484375 C 4.734375 -2.210938 4.832031 -1.945312 4.9375 -1.6875 C 5.039062 -1.4375 5.160156 -1.234375 5.296875 -1.078125 C 5.441406 -0.921875 5.597656 -0.84375 5.765625 -0.84375 C 5.859375 -0.84375 5.988281 -0.878906 6.15625 -0.953125 C 6.320312 -1.023438 6.550781 -1.222656 6.84375 -1.546875 L 6.96875 -1.40625 C 6.414062 -0.820312 5.976562 -0.421875 5.65625 -0.203125 C 5.34375 0.00390625 5.082031 0.109375 4.875 0.109375 C 4.675781 0.109375 4.492188 0.015625 4.328125 -0.171875 C 4.171875 -0.367188 4.019531 -0.617188 3.875 -0.921875 C 3.738281 -1.222656 3.613281 -1.539062 3.5 -1.875 C 3.382812 -2.21875 3.285156 -2.546875 3.203125 -2.859375 C 3.160156 -2.847656 3.113281 -2.832031 3.0625 -2.8125 C 3.007812 -2.800781 2.957031 -2.785156 2.90625 -2.765625 L 2.875 -2.96875 C 3.769531 -3.195312 4.507812 -3.4375 5.09375 -3.6875 C 5.675781 -3.945312 6.132812 -4.203125 6.46875 -4.453125 C 6.800781 -4.703125 7.035156 -4.941406 7.171875 -5.171875 C 7.304688 -5.398438 7.375 -5.613281 7.375 -5.8125 C 7.375 -5.988281 7.3125 -6.128906 7.1875 -6.234375 C 7.070312 -6.335938 6.925781 -6.390625 6.75 -6.390625 C 6.5 -6.390625 6.175781 -6.285156 5.78125 -6.078125 C 5.394531 -5.878906 4.992188 -5.613281 4.578125 -5.28125 C 4.160156 -4.945312 3.765625 -4.582031 3.390625 -4.1875 C 3.015625 -3.789062 2.707031 -3.40625 2.46875 -3.03125 L 1 -0.203125 C 0.925781 -0.0664062 0.816406 0 0.671875 0 Z M -0.265625 0 "/></g></g></g><g fill="#ffffff" fill-opacity="1"><g transform="translate(128.337373, 274.472149)"><g><path d="M 0.96875 0.109375 C 0.675781 0.109375 0.460938 0.00390625 0.328125 -0.203125 C 0.203125 -0.410156 0.140625 -0.617188 0.140625 -0.828125 C 0.140625 -1.109375 0.222656 -1.4375 0.390625 -1.8125 C 0.566406 -2.195312 0.78125 -2.597656 1.03125 -3.015625 C 1.28125 -3.441406 1.53125 -3.847656 1.78125 -4.234375 C 2.039062 -4.628906 2.253906 -4.976562 2.421875 -5.28125 C 2.597656 -5.59375 2.6875 -5.828125 2.6875 -5.984375 C 2.6875 -6.066406 2.664062 -6.132812 2.625 -6.1875 C 2.59375 -6.25 2.507812 -6.28125 2.375 -6.28125 C 2.09375 -6.28125 1.648438 -6.003906 1.046875 -5.453125 L 0.921875 -5.59375 C 1.503906 -6.132812 2 -6.519531 2.40625 -6.75 C 2.820312 -6.988281 3.160156 -7.109375 3.421875 -7.109375 C 3.703125 -7.109375 3.894531 -7.03125 4 -6.875 C 4.113281 -6.71875 4.171875 -6.554688 4.171875 -6.390625 C 4.171875 -6.117188 4.085938 -5.804688 3.921875 -5.453125 C 3.765625 -5.097656 3.566406 -4.722656 3.328125 -4.328125 C 3.097656 -3.941406 2.863281 -3.5625 2.625 -3.1875 C 2.382812 -2.8125 2.179688 -2.472656 2.015625 -2.171875 C 1.859375 -1.867188 1.78125 -1.628906 1.78125 -1.453125 C 1.78125 -1.148438 1.929688 -1 2.234375 -1 C 2.367188 -1 2.515625 -1.03125 2.671875 -1.09375 C 2.835938 -1.164062 3.039062 -1.316406 3.28125 -1.546875 L 3.40625 -1.40625 C 2.820312 -0.863281 2.332031 -0.472656 1.9375 -0.234375 C 1.550781 -0.00390625 1.226562 0.109375 0.96875 0.109375 Z M 0.96875 0.109375 "/></g></g></g><g fill="#ffffff" fill-opacity="1"><g transform="translate(137.168984, 274.472149)"><g><path d="M -0.140625 0 C -0.242188 0 -0.3125 -0.03125 -0.34375 -0.09375 C -0.382812 -0.164062 -0.375 -0.25 -0.3125 -0.34375 C -0.125 -0.664062 0.0859375 -1.035156 0.328125 -1.453125 C 0.566406 -1.878906 0.8125 -2.320312 1.0625 -2.78125 C 1.3125 -3.25 1.539062 -3.695312 1.75 -4.125 C 1.96875 -4.5625 2.140625 -4.9375 2.265625 -5.25 C 2.398438 -5.570312 2.46875 -5.800781 2.46875 -5.9375 C 2.46875 -6.164062 2.347656 -6.28125 2.109375 -6.28125 C 1.828125 -6.28125 1.382812 -6.003906 0.78125 -5.453125 L 0.65625 -5.59375 C 1.238281 -6.132812 1.734375 -6.519531 2.140625 -6.75 C 2.554688 -6.988281 2.894531 -7.109375 3.15625 -7.109375 C 3.425781 -7.109375 3.617188 -7.03125 3.734375 -6.875 C 3.847656 -6.71875 3.90625 -6.554688 3.90625 -6.390625 C 3.90625 -6.191406 3.835938 -5.90625 3.703125 -5.53125 C 3.578125 -5.15625 3.410156 -4.738281 3.203125 -4.28125 C 2.992188 -3.832031 2.765625 -3.375 2.515625 -2.90625 C 2.859375 -3.34375 3.203125 -3.753906 3.546875 -4.140625 C 3.898438 -4.535156 4.238281 -4.890625 4.5625 -5.203125 C 5.175781 -5.804688 5.75 -6.273438 6.28125 -6.609375 C 6.8125 -6.941406 7.253906 -7.109375 7.609375 -7.109375 C 7.828125 -7.109375 8.003906 -7.03125 8.140625 -6.875 C 8.273438 -6.71875 8.34375 -6.523438 8.34375 -6.296875 C 8.34375 -6.035156 8.265625 -5.71875 8.109375 -5.34375 C 7.953125 -4.96875 7.757812 -4.570312 7.53125 -4.15625 C 7.300781 -3.75 7.070312 -3.347656 6.84375 -2.953125 C 6.613281 -2.554688 6.414062 -2.203125 6.25 -1.890625 C 6.09375 -1.578125 6.015625 -1.34375 6.015625 -1.1875 C 6.015625 -0.914062 6.144531 -0.78125 6.40625 -0.78125 C 6.550781 -0.78125 6.726562 -0.847656 6.9375 -0.984375 C 7.15625 -1.128906 7.378906 -1.316406 7.609375 -1.546875 L 7.734375 -1.40625 C 7.160156 -0.863281 6.675781 -0.472656 6.28125 -0.234375 C 5.894531 -0.00390625 5.59375 0.109375 5.375 0.109375 C 5.15625 0.109375 4.984375 0.0625 4.859375 -0.03125 C 4.734375 -0.132812 4.644531 -0.253906 4.59375 -0.390625 C 4.539062 -0.535156 4.515625 -0.660156 4.515625 -0.765625 C 4.515625 -1.085938 4.59375 -1.4375 4.75 -1.8125 C 4.914062 -2.1875 5.113281 -2.570312 5.34375 -2.96875 C 5.582031 -3.375 5.816406 -3.765625 6.046875 -4.140625 C 6.273438 -4.523438 6.46875 -4.867188 6.625 -5.171875 C 6.789062 -5.472656 6.875 -5.710938 6.875 -5.890625 C 6.875 -6.003906 6.847656 -6.097656 6.796875 -6.171875 C 6.742188 -6.242188 6.65625 -6.28125 6.53125 -6.28125 C 6.3125 -6.28125 6.050781 -6.171875 5.75 -5.953125 C 5.445312 -5.734375 5.09375 -5.4375 4.6875 -5.0625 C 4.226562 -4.632812 3.75 -4.125 3.25 -3.53125 C 2.757812 -2.945312 2.304688 -2.347656 1.890625 -1.734375 C 1.703125 -1.390625 1.53125 -1.082031 1.375 -0.8125 C 1.21875 -0.539062 1.09375 -0.335938 1 -0.203125 C 0.914062 -0.0664062 0.800781 0 0.65625 0 Z M -0.140625 0 "/></g></g></g><g fill="#ffffff" fill-opacity="1"><g transform="translate(150.198254, 274.472149)"><g/></g></g><g fill="#ffffff" fill-opacity="1"><g transform="translate(157.644637, 274.472149)"><g><path d="M 2.171875 0.09375 C 1.585938 0.09375 1.132812 -0.046875 0.8125 -0.328125 C 0.488281 -0.609375 0.316406 -1 0.296875 -1.5 C 0.273438 -2 0.429688 -2.566406 0.765625 -3.203125 L 2.59375 -6.640625 C 2.894531 -7.222656 3.304688 -7.789062 3.828125 -8.34375 C 4.359375 -8.894531 4.953125 -9.394531 5.609375 -9.84375 C 6.265625 -10.289062 6.957031 -10.644531 7.6875 -10.90625 C 8.414062 -11.164062 9.144531 -11.296875 9.875 -11.296875 C 10.207031 -11.296875 10.476562 -11.269531 10.6875 -11.21875 C 10.90625 -11.175781 11.015625 -11.097656 11.015625 -10.984375 C 11.015625 -10.859375 10.953125 -10.707031 10.828125 -10.53125 C 10.710938 -10.363281 10.546875 -10.210938 10.328125 -10.078125 C 10.109375 -9.953125 9.851562 -9.890625 9.5625 -9.890625 C 9.269531 -9.890625 8.9375 -9.9375 8.5625 -10.03125 C 8.195312 -10.125 7.691406 -10.257812 7.046875 -10.4375 C 6.691406 -10.289062 6.375 -10.097656 6.09375 -9.859375 C 5.820312 -9.617188 5.550781 -9.304688 5.28125 -8.921875 C 5.019531 -8.546875 4.726562 -8.054688 4.40625 -7.453125 L 2.140625 -3.15625 C 2.859375 -3.976562 3.59375 -4.75 4.34375 -5.46875 C 4.820312 -5.9375 5.285156 -6.328125 5.734375 -6.640625 C 6.179688 -6.953125 6.59375 -7.101562 6.96875 -7.09375 C 7.238281 -7.09375 7.457031 -6.972656 7.625 -6.734375 C 7.789062 -6.503906 7.875 -6.238281 7.875 -5.9375 C 7.875 -5.425781 7.753906 -4.890625 7.515625 -4.328125 C 7.285156 -3.773438 6.972656 -3.238281 6.578125 -2.71875 C 6.179688 -2.195312 5.738281 -1.722656 5.25 -1.296875 C 4.757812 -0.867188 4.242188 -0.53125 3.703125 -0.28125 C 3.171875 -0.03125 2.660156 0.09375 2.171875 0.09375 Z M 1.734375 -2.359375 C 1.660156 -1.929688 1.695312 -1.582031 1.84375 -1.3125 C 2 -1.039062 2.210938 -0.84375 2.484375 -0.71875 C 2.753906 -0.601562 3.023438 -0.546875 3.296875 -0.546875 C 3.671875 -0.546875 4.019531 -0.65625 4.34375 -0.875 C 4.664062 -1.09375 4.957031 -1.382812 5.21875 -1.75 C 5.488281 -2.113281 5.71875 -2.503906 5.90625 -2.921875 C 6.09375 -3.347656 6.238281 -3.773438 6.34375 -4.203125 C 6.445312 -4.628906 6.5 -5.007812 6.5 -5.34375 C 6.5 -5.957031 6.332031 -6.265625 6 -6.265625 C 5.832031 -6.265625 5.613281 -6.175781 5.34375 -6 C 5.070312 -5.832031 4.773438 -5.601562 4.453125 -5.3125 C 4.023438 -4.90625 3.570312 -4.4375 3.09375 -3.90625 C 2.613281 -3.382812 2.160156 -2.867188 1.734375 -2.359375 Z M 1.734375 -2.359375 "/></g></g></g><g fill="#ffffff" fill-opacity="1"><g transform="translate(170.226157, 274.472149)"><g><path d="M 5.453125 0.109375 C 5.222656 0.109375 5.046875 0.0625 4.921875 -0.03125 C 4.804688 -0.132812 4.722656 -0.253906 4.671875 -0.390625 C 4.617188 -0.535156 4.59375 -0.660156 4.59375 -0.765625 C 4.59375 -1.265625 4.726562 -1.816406 5 -2.421875 C 5.269531 -3.035156 5.578125 -3.640625 5.921875 -4.234375 C 5.222656 -3.378906 4.5625 -2.617188 3.9375 -1.953125 C 3.3125 -1.296875 2.753906 -0.785156 2.265625 -0.421875 C 1.773438 -0.0546875 1.378906 0.117188 1.078125 0.109375 C 0.765625 0.0859375 0.535156 -0.0351562 0.390625 -0.265625 C 0.242188 -0.492188 0.175781 -0.796875 0.1875 -1.171875 C 0.195312 -1.703125 0.3125 -2.242188 0.53125 -2.796875 C 0.75 -3.359375 1.046875 -3.894531 1.421875 -4.40625 C 1.804688 -4.925781 2.25 -5.382812 2.75 -5.78125 C 3.25 -6.1875 3.78125 -6.507812 4.34375 -6.75 C 4.90625 -6.988281 5.476562 -7.109375 6.0625 -7.109375 C 6.226562 -7.109375 6.4375 -7.097656 6.6875 -7.078125 C 6.9375 -7.054688 7.195312 -7.023438 7.46875 -6.984375 C 7.75 -6.941406 8.003906 -6.878906 8.234375 -6.796875 L 8.46875 -6.734375 C 8.675781 -6.679688 8.722656 -6.566406 8.609375 -6.390625 C 8.453125 -6.140625 8.269531 -5.851562 8.0625 -5.53125 C 7.851562 -5.207031 7.648438 -4.867188 7.453125 -4.515625 C 7.253906 -4.171875 7.070312 -3.84375 6.90625 -3.53125 C 6.664062 -3.0625 6.46875 -2.632812 6.3125 -2.25 C 6.164062 -1.875 6.09375 -1.519531 6.09375 -1.1875 C 6.09375 -0.914062 6.210938 -0.78125 6.453125 -0.78125 C 6.597656 -0.78125 6.78125 -0.847656 7 -0.984375 C 7.226562 -1.128906 7.457031 -1.316406 7.6875 -1.546875 L 7.8125 -1.40625 C 7.226562 -0.863281 6.738281 -0.472656 6.34375 -0.234375 C 5.957031 -0.00390625 5.660156 0.109375 5.453125 0.109375 Z M 1.578125 -1.5625 C 1.578125 -1.476562 1.582031 -1.375 1.59375 -1.25 C 1.613281 -1.125 1.648438 -1.015625 1.703125 -0.921875 C 1.765625 -0.828125 1.859375 -0.78125 1.984375 -0.78125 C 2.304688 -0.78125 2.890625 -1.203125 3.734375 -2.046875 C 4.578125 -2.898438 5.613281 -4.117188 6.84375 -5.703125 L 7.03125 -5.984375 C 6.789062 -6.078125 6.53125 -6.164062 6.25 -6.25 C 5.976562 -6.332031 5.710938 -6.398438 5.453125 -6.453125 C 5.191406 -6.503906 4.96875 -6.53125 4.78125 -6.53125 C 4.394531 -6.53125 4.03125 -6.40625 3.6875 -6.15625 C 3.351562 -5.914062 3.054688 -5.597656 2.796875 -5.203125 C 2.546875 -4.804688 2.328125 -4.378906 2.140625 -3.921875 C 1.953125 -3.460938 1.8125 -3.023438 1.71875 -2.609375 C 1.625 -2.191406 1.578125 -1.84375 1.578125 -1.5625 Z M 1.578125 -1.5625 "/></g></g></g><g fill="#ffffff" fill-opacity="1"><g transform="translate(183.33938, 274.472149)"><g><path d="M 0.765625 0.09375 C 0.335938 0.09375 0.0195312 0.0390625 -0.1875 -0.0625 C -0.40625 -0.175781 -0.546875 -0.316406 -0.609375 -0.484375 C -0.671875 -0.648438 -0.695312 -0.800781 -0.6875 -0.9375 C -0.632812 -1.46875 -0.140625 -1.957031 0.796875 -2.40625 L 0.890625 -2.328125 C 0.796875 -2.203125 0.710938 -2.0625 0.640625 -1.90625 C 0.578125 -1.75 0.546875 -1.578125 0.546875 -1.390625 C 0.546875 -1.128906 0.628906 -0.890625 0.796875 -0.671875 C 0.960938 -0.460938 1.25 -0.351562 1.65625 -0.34375 C 2.007812 -0.34375 2.304688 -0.460938 2.546875 -0.703125 C 2.785156 -0.941406 2.90625 -1.257812 2.90625 -1.65625 C 2.90625 -1.925781 2.847656 -2.191406 2.734375 -2.453125 C 2.617188 -2.722656 2.484375 -2.992188 2.328125 -3.265625 C 2.171875 -3.535156 2.035156 -3.796875 1.921875 -4.046875 C 1.804688 -4.304688 1.75 -4.5625 1.75 -4.8125 C 1.75 -5.238281 1.90625 -5.625 2.21875 -5.96875 C 2.53125 -6.3125 2.9375 -6.582031 3.4375 -6.78125 C 3.9375 -6.988281 4.460938 -7.09375 5.015625 -7.09375 C 5.179688 -7.09375 5.363281 -7.078125 5.5625 -7.046875 C 5.757812 -7.023438 5.929688 -6.984375 6.078125 -6.921875 C 6.234375 -6.867188 6.3125 -6.796875 6.3125 -6.703125 C 6.3125 -6.585938 6.273438 -6.453125 6.203125 -6.296875 C 6.128906 -6.140625 6.015625 -6.003906 5.859375 -5.890625 C 5.710938 -5.773438 5.53125 -5.71875 5.3125 -5.71875 C 5.082031 -5.71875 4.796875 -5.800781 4.453125 -5.96875 C 4.109375 -6.144531 3.734375 -6.332031 3.328125 -6.53125 C 3.179688 -6.445312 3.078125 -6.332031 3.015625 -6.1875 C 2.953125 -6.050781 2.921875 -5.910156 2.921875 -5.765625 C 2.921875 -5.484375 2.984375 -5.203125 3.109375 -4.921875 C 3.234375 -4.640625 3.375 -4.351562 3.53125 -4.0625 C 3.695312 -3.769531 3.835938 -3.476562 3.953125 -3.1875 C 4.066406 -2.90625 4.117188 -2.613281 4.109375 -2.3125 C 4.085938 -1.945312 3.9375 -1.601562 3.65625 -1.28125 C 3.382812 -0.957031 3.039062 -0.675781 2.625 -0.4375 C 2.21875 -0.207031 1.800781 -0.0507812 1.375 0.03125 L 0.609375 0.6875 C 0.984375 0.625 1.296875 0.632812 1.546875 0.71875 C 1.796875 0.800781 1.976562 0.921875 2.09375 1.078125 C 2.21875 1.234375 2.28125 1.390625 2.28125 1.546875 C 2.28125 1.859375 2.175781 2.148438 1.96875 2.421875 C 1.769531 2.691406 1.503906 2.910156 1.171875 3.078125 C 0.847656 3.253906 0.503906 3.34375 0.140625 3.34375 C -0.179688 3.34375 -0.4375 3.28125 -0.625 3.15625 C -0.8125 3.03125 -0.90625 2.90625 -0.90625 2.78125 C -0.90625 2.675781 -0.84375 2.566406 -0.71875 2.453125 C -0.59375 2.347656 -0.46875 2.296875 -0.34375 2.296875 C -0.195312 2.296875 -0.0664062 2.347656 0.046875 2.453125 C 0.171875 2.554688 0.300781 2.660156 0.4375 2.765625 C 0.570312 2.867188 0.742188 2.921875 0.953125 2.921875 C 1.171875 2.921875 1.347656 2.847656 1.484375 2.703125 C 1.617188 2.554688 1.6875 2.394531 1.6875 2.21875 C 1.6875 2.03125 1.585938 1.847656 1.390625 1.671875 C 1.191406 1.503906 0.867188 1.421875 0.421875 1.421875 C 0.296875 1.421875 0.164062 1.425781 0.03125 1.4375 C -0.101562 1.457031 -0.25 1.488281 -0.40625 1.53125 L -0.46875 1.4375 L 1.078125 0.078125 C 1.035156 0.0859375 0.984375 0.09375 0.921875 0.09375 C 0.867188 0.09375 0.816406 0.09375 0.765625 0.09375 Z M 0.765625 0.09375 "/></g></g></g><g fill="#ffffff" fill-opacity="1"><g transform="translate(193.150445, 274.472149)"><g><path d="M 0.796875 0.109375 C 0.460938 0.109375 0.234375 0.00390625 0.109375 -0.203125 C -0.00390625 -0.410156 -0.0625 -0.617188 -0.0625 -0.828125 C -0.0625 -1.003906 -0.0078125 -1.28125 0.09375 -1.65625 C 0.195312 -2.03125 0.429688 -2.539062 0.796875 -3.1875 L 2.75 -6.640625 C 3.0625 -7.210938 3.476562 -7.773438 4 -8.328125 C 4.519531 -8.890625 5.109375 -9.394531 5.765625 -9.84375 C 6.421875 -10.289062 7.113281 -10.644531 7.84375 -10.90625 C 8.570312 -11.164062 9.300781 -11.296875 10.03125 -11.296875 C 10.363281 -11.296875 10.632812 -11.269531 10.84375 -11.21875 C 11.0625 -11.175781 11.171875 -11.097656 11.171875 -10.984375 C 11.171875 -10.859375 11.109375 -10.707031 10.984375 -10.53125 C 10.867188 -10.363281 10.703125 -10.210938 10.484375 -10.078125 C 10.265625 -9.953125 10.007812 -9.890625 9.71875 -9.890625 C 9.425781 -9.890625 9.09375 -9.9375 8.71875 -10.03125 C 8.351562 -10.125 7.847656 -10.257812 7.203125 -10.4375 C 6.835938 -10.289062 6.519531 -10.097656 6.25 -9.859375 C 5.976562 -9.617188 5.707031 -9.304688 5.4375 -8.921875 C 5.175781 -8.535156 4.882812 -8.046875 4.5625 -7.453125 L 2.21875 -3.125 C 2.101562 -2.925781 1.984375 -2.695312 1.859375 -2.4375 C 1.742188 -2.175781 1.644531 -1.929688 1.5625 -1.703125 C 1.476562 -1.472656 1.4375 -1.300781 1.4375 -1.1875 C 1.4375 -0.914062 1.578125 -0.78125 1.859375 -0.78125 C 1.992188 -0.78125 2.164062 -0.847656 2.375 -0.984375 C 2.582031 -1.128906 2.800781 -1.316406 3.03125 -1.546875 L 3.15625 -1.40625 C 2.582031 -0.863281 2.097656 -0.472656 1.703125 -0.234375 C 1.316406 -0.00390625 1.015625 0.109375 0.796875 0.109375 Z M 0.796875 0.109375 "/></g></g></g><g fill="#ffffff" fill-opacity="1"><g transform="translate(201.898102, 274.472149)"><g><path d="M 5.453125 0.109375 C 5.222656 0.109375 5.046875 0.0625 4.921875 -0.03125 C 4.804688 -0.132812 4.722656 -0.253906 4.671875 -0.390625 C 4.617188 -0.535156 4.59375 -0.660156 4.59375 -0.765625 C 4.59375 -1.265625 4.726562 -1.816406 5 -2.421875 C 5.269531 -3.035156 5.578125 -3.640625 5.921875 -4.234375 C 5.222656 -3.378906 4.5625 -2.617188 3.9375 -1.953125 C 3.3125 -1.296875 2.753906 -0.785156 2.265625 -0.421875 C 1.773438 -0.0546875 1.378906 0.117188 1.078125 0.109375 C 0.765625 0.0859375 0.535156 -0.0351562 0.390625 -0.265625 C 0.242188 -0.492188 0.175781 -0.796875 0.1875 -1.171875 C 0.195312 -1.703125 0.3125 -2.242188 0.53125 -2.796875 C 0.75 -3.359375 1.046875 -3.894531 1.421875 -4.40625 C 1.804688 -4.925781 2.25 -5.382812 2.75 -5.78125 C 3.25 -6.1875 3.78125 -6.507812 4.34375 -6.75 C 4.90625 -6.988281 5.476562 -7.109375 6.0625 -7.109375 C 6.226562 -7.109375 6.4375 -7.097656 6.6875 -7.078125 C 6.9375 -7.054688 7.195312 -7.023438 7.46875 -6.984375 C 7.75 -6.941406 8.003906 -6.878906 8.234375 -6.796875 L 8.46875 -6.734375 C 8.675781 -6.679688 8.722656 -6.566406 8.609375 -6.390625 C 8.453125 -6.140625 8.269531 -5.851562 8.0625 -5.53125 C 7.851562 -5.207031 7.648438 -4.867188 7.453125 -4.515625 C 7.253906 -4.171875 7.070312 -3.84375 6.90625 -3.53125 C 6.664062 -3.0625 6.46875 -2.632812 6.3125 -2.25 C 6.164062 -1.875 6.09375 -1.519531 6.09375 -1.1875 C 6.09375 -0.914062 6.210938 -0.78125 6.453125 -0.78125 C 6.597656 -0.78125 6.78125 -0.847656 7 -0.984375 C 7.226562 -1.128906 7.457031 -1.316406 7.6875 -1.546875 L 7.8125 -1.40625 C 7.226562 -0.863281 6.738281 -0.472656 6.34375 -0.234375 C 5.957031 -0.00390625 5.660156 0.109375 5.453125 0.109375 Z M 1.578125 -1.5625 C 1.578125 -1.476562 1.582031 -1.375 1.59375 -1.25 C 1.613281 -1.125 1.648438 -1.015625 1.703125 -0.921875 C 1.765625 -0.828125 1.859375 -0.78125 1.984375 -0.78125 C 2.304688 -0.78125 2.890625 -1.203125 3.734375 -2.046875 C 4.578125 -2.898438 5.613281 -4.117188 6.84375 -5.703125 L 7.03125 -5.984375 C 6.789062 -6.078125 6.53125 -6.164062 6.25 -6.25 C 5.976562 -6.332031 5.710938 -6.398438 5.453125 -6.453125 C 5.191406 -6.503906 4.96875 -6.53125 4.78125 -6.53125 C 4.394531 -6.53125 4.03125 -6.40625 3.6875 -6.15625 C 3.351562 -5.914062 3.054688 -5.597656 2.796875 -5.203125 C 2.546875 -4.804688 2.328125 -4.378906 2.140625 -3.921875 C 1.953125 -3.460938 1.8125 -3.023438 1.71875 -2.609375 C 1.625 -2.191406 1.578125 -1.84375 1.578125 -1.5625 Z M 1.578125 -1.5625 "/></g></g></g><g fill="#ffffff" fill-opacity="1"><g transform="translate(215.011326, 274.472149)"><g><path d="M 1.734375 0.109375 C 1.273438 0.109375 0.898438 -0.0546875 0.609375 -0.390625 C 0.328125 -0.722656 0.1875 -1.132812 0.1875 -1.625 C 0.1875 -2.09375 0.296875 -2.578125 0.515625 -3.078125 C 0.742188 -3.585938 1.046875 -4.082031 1.421875 -4.5625 C 1.804688 -5.039062 2.238281 -5.46875 2.71875 -5.84375 C 3.195312 -6.226562 3.6875 -6.535156 4.1875 -6.765625 C 4.695312 -6.992188 5.191406 -7.109375 5.671875 -7.109375 C 5.859375 -7.109375 6.035156 -7.097656 6.203125 -7.078125 C 6.367188 -7.066406 6.546875 -7.039062 6.734375 -7 C 6.953125 -7.882812 7.0625 -8.671875 7.0625 -9.359375 C 7.0625 -10.128906 6.796875 -10.515625 6.265625 -10.515625 C 6.023438 -10.515625 5.753906 -10.410156 5.453125 -10.203125 C 5.148438 -9.992188 4.835938 -9.726562 4.515625 -9.40625 L 4.375 -9.53125 C 4.96875 -10.125 5.5 -10.566406 5.96875 -10.859375 C 6.4375 -11.160156 6.867188 -11.3125 7.265625 -11.3125 C 7.609375 -11.3125 7.875 -11.234375 8.0625 -11.078125 C 8.25 -10.921875 8.375 -10.726562 8.4375 -10.5 C 8.507812 -10.269531 8.546875 -10.035156 8.546875 -9.796875 C 8.546875 -9.367188 8.46875 -8.875 8.3125 -8.3125 C 8.164062 -7.75 7.953125 -7.15625 7.671875 -6.53125 C 7.390625 -5.90625 7.066406 -5.273438 6.703125 -4.640625 C 6.347656 -4.015625 5.957031 -3.414062 5.53125 -2.84375 C 5.113281 -2.269531 4.6875 -1.757812 4.25 -1.3125 C 3.8125 -0.875 3.378906 -0.523438 2.953125 -0.265625 C 2.523438 -0.015625 2.117188 0.109375 1.734375 0.109375 Z M 1.640625 -1.953125 C 1.648438 -1.753906 1.679688 -1.550781 1.734375 -1.34375 C 1.796875 -1.132812 1.898438 -0.960938 2.046875 -0.828125 C 2.191406 -0.691406 2.382812 -0.625 2.625 -0.625 C 3 -0.625 3.367188 -0.769531 3.734375 -1.0625 C 4.097656 -1.363281 4.445312 -1.765625 4.78125 -2.265625 C 5.113281 -2.765625 5.414062 -3.320312 5.6875 -3.9375 C 5.96875 -4.550781 6.207031 -5.1875 6.40625 -5.84375 C 6.082031 -6 5.75 -6.128906 5.40625 -6.234375 C 5.070312 -6.335938 4.726562 -6.390625 4.375 -6.390625 C 3.945312 -6.390625 3.5625 -6.253906 3.21875 -5.984375 C 2.882812 -5.722656 2.59375 -5.375 2.34375 -4.9375 C 2.101562 -4.507812 1.921875 -4.035156 1.796875 -3.515625 C 1.671875 -2.992188 1.617188 -2.472656 1.640625 -1.953125 Z M 1.640625 -1.953125 "/></g></g></g><g fill="#ffffff" fill-opacity="1"><g transform="translate(226.641372, 274.472149)"><g><path d="M 0.96875 0.109375 C 0.675781 0.109375 0.460938 0.00390625 0.328125 -0.203125 C 0.203125 -0.410156 0.140625 -0.617188 0.140625 -0.828125 C 0.140625 -1.109375 0.222656 -1.4375 0.390625 -1.8125 C 0.566406 -2.195312 0.78125 -2.597656 1.03125 -3.015625 C 1.28125 -3.441406 1.53125 -3.847656 1.78125 -4.234375 C 2.039062 -4.628906 2.253906 -4.976562 2.421875 -5.28125 C 2.597656 -5.59375 2.6875 -5.828125 2.6875 -5.984375 C 2.6875 -6.066406 2.664062 -6.132812 2.625 -6.1875 C 2.59375 -6.25 2.507812 -6.28125 2.375 -6.28125 C 2.09375 -6.28125 1.648438 -6.003906 1.046875 -5.453125 L 0.921875 -5.59375 C 1.503906 -6.132812 2 -6.519531 2.40625 -6.75 C 2.820312 -6.988281 3.160156 -7.109375 3.421875 -7.109375 C 3.703125 -7.109375 3.894531 -7.03125 4 -6.875 C 4.113281 -6.71875 4.171875 -6.554688 4.171875 -6.390625 C 4.171875 -6.117188 4.085938 -5.804688 3.921875 -5.453125 C 3.765625 -5.097656 3.566406 -4.722656 3.328125 -4.328125 C 3.097656 -3.941406 2.863281 -3.5625 2.625 -3.1875 C 2.382812 -2.8125 2.179688 -2.472656 2.015625 -2.171875 C 1.859375 -1.867188 1.78125 -1.628906 1.78125 -1.453125 C 1.78125 -1.148438 1.929688 -1 2.234375 -1 C 2.367188 -1 2.515625 -1.03125 2.671875 -1.09375 C 2.835938 -1.164062 3.039062 -1.316406 3.28125 -1.546875 L 3.40625 -1.40625 C 2.820312 -0.863281 2.332031 -0.472656 1.9375 -0.234375 C 1.550781 -0.00390625 1.226562 0.109375 0.96875 0.109375 Z M 0.96875 0.109375 "/></g></g></g><g fill="#ffffff" fill-opacity="1"><g transform="translate(235.472983, 274.472149)"><g><path d="M -0.390625 3.890625 C -0.828125 3.878906 -1.15625 3.816406 -1.375 3.703125 C -1.601562 3.597656 -1.75 3.460938 -1.8125 3.296875 C -1.882812 3.128906 -1.914062 2.976562 -1.90625 2.84375 C -1.882812 2.582031 -1.734375 2.300781 -1.453125 2 C -1.179688 1.695312 -0.816406 1.441406 -0.359375 1.234375 L -0.265625 1.3125 C -0.359375 1.4375 -0.4375 1.578125 -0.5 1.734375 C -0.570312 1.890625 -0.609375 2.0625 -0.609375 2.25 C -0.609375 2.507812 -0.507812 2.75 -0.3125 2.96875 C -0.125 3.195312 0.25 3.3125 0.8125 3.3125 C 1.113281 3.3125 1.410156 3.242188 1.703125 3.109375 C 1.992188 2.984375 2.210938 2.863281 2.359375 2.75 C 2.671875 2.5 2.945312 2.160156 3.1875 1.734375 C 3.4375 1.316406 3.691406 0.8125 3.953125 0.21875 C 4.222656 -0.363281 4.523438 -1.023438 4.859375 -1.765625 C 5.191406 -2.515625 5.597656 -3.328125 6.078125 -4.203125 L 6.328125 -4.65625 C 5.578125 -3.738281 4.875 -2.914062 4.21875 -2.1875 C 3.5625 -1.457031 2.976562 -0.890625 2.46875 -0.484375 C 1.957031 -0.078125 1.546875 0.117188 1.234375 0.109375 C 0.921875 0.0859375 0.691406 -0.0351562 0.546875 -0.265625 C 0.398438 -0.492188 0.332031 -0.796875 0.34375 -1.171875 C 0.34375 -1.703125 0.453125 -2.242188 0.671875 -2.796875 C 0.898438 -3.359375 1.203125 -3.894531 1.578125 -4.40625 C 1.960938 -4.925781 2.40625 -5.382812 2.90625 -5.78125 C 3.40625 -6.1875 3.9375 -6.507812 4.5 -6.75 C 5.0625 -6.988281 5.632812 -7.109375 6.21875 -7.109375 C 6.382812 -7.109375 6.601562 -7.097656 6.875 -7.078125 C 7.144531 -7.054688 7.425781 -7.023438 7.71875 -6.984375 C 8.007812 -6.941406 8.269531 -6.878906 8.5 -6.796875 L 8.484375 -6.796875 L 8.5625 -6.796875 C 8.65625 -6.773438 8.710938 -6.726562 8.734375 -6.65625 C 8.753906 -6.582031 8.738281 -6.503906 8.6875 -6.421875 L 6.734375 -2.6875 C 6.179688 -1.625 5.660156 -0.738281 5.171875 -0.03125 C 4.691406 0.664062 4.234375 1.242188 3.796875 1.703125 C 3.359375 2.160156 2.921875 2.554688 2.484375 2.890625 C 2.109375 3.191406 1.660156 3.429688 1.140625 3.609375 C 0.628906 3.796875 0.117188 3.890625 -0.390625 3.890625 Z M 1.734375 -1.5625 C 1.734375 -1.476562 1.738281 -1.375 1.75 -1.25 C 1.769531 -1.125 1.804688 -1.015625 1.859375 -0.921875 C 1.921875 -0.828125 2.015625 -0.78125 2.140625 -0.78125 C 2.460938 -0.78125 3.023438 -1.195312 3.828125 -2.03125 C 4.628906 -2.875 5.640625 -4.082031 6.859375 -5.65625 L 7.078125 -6.0625 C 6.722656 -6.195312 6.335938 -6.304688 5.921875 -6.390625 C 5.515625 -6.484375 5.1875 -6.53125 4.9375 -6.53125 C 4.550781 -6.53125 4.1875 -6.40625 3.84375 -6.15625 C 3.507812 -5.914062 3.210938 -5.597656 2.953125 -5.203125 C 2.703125 -4.804688 2.484375 -4.378906 2.296875 -3.921875 C 2.109375 -3.460938 1.96875 -3.023438 1.875 -2.609375 C 1.78125 -2.191406 1.734375 -1.84375 1.734375 -1.5625 Z M 6.203125 -9.234375 C 6.203125 -9.328125 6.300781 -9.429688 6.5 -9.546875 C 6.695312 -9.660156 6.890625 -9.71875 7.078125 -9.71875 C 7.191406 -9.71875 7.25 -9.671875 7.25 -9.578125 C 7.257812 -9.316406 7.320312 -9.078125 7.4375 -8.859375 C 7.5625 -8.648438 7.78125 -8.546875 8.09375 -8.546875 C 8.363281 -8.546875 8.625 -8.640625 8.875 -8.828125 C 9.125 -9.023438 9.335938 -9.273438 9.515625 -9.578125 C 9.546875 -9.609375 9.59375 -9.617188 9.65625 -9.609375 C 9.726562 -9.597656 9.785156 -9.570312 9.828125 -9.53125 C 9.867188 -9.5 9.875 -9.46875 9.84375 -9.4375 C 9.351562 -8.976562 8.878906 -8.628906 8.421875 -8.390625 C 7.960938 -8.148438 7.597656 -8.03125 7.328125 -8.03125 C 6.921875 -8.03125 6.628906 -8.144531 6.453125 -8.375 C 6.285156 -8.613281 6.203125 -8.898438 6.203125 -9.234375 Z M 6.203125 -9.234375 "/></g></g></g><g fill="#ffffff" fill-opacity="1"><g transform="translate(248.082483, 274.472149)"><g><path d="M 0.96875 0.109375 C 0.675781 0.109375 0.460938 0.00390625 0.328125 -0.203125 C 0.203125 -0.410156 0.140625 -0.617188 0.140625 -0.828125 C 0.140625 -1.109375 0.222656 -1.4375 0.390625 -1.8125 C 0.566406 -2.195312 0.78125 -2.597656 1.03125 -3.015625 C 1.28125 -3.441406 1.53125 -3.847656 1.78125 -4.234375 C 2.039062 -4.628906 2.253906 -4.976562 2.421875 -5.28125 C 2.597656 -5.59375 2.6875 -5.828125 2.6875 -5.984375 C 2.6875 -6.066406 2.664062 -6.132812 2.625 -6.1875 C 2.59375 -6.25 2.507812 -6.28125 2.375 -6.28125 C 2.09375 -6.28125 1.648438 -6.003906 1.046875 -5.453125 L 0.921875 -5.59375 C 1.503906 -6.132812 2 -6.519531 2.40625 -6.75 C 2.820312 -6.988281 3.160156 -7.109375 3.421875 -7.109375 C 3.703125 -7.109375 3.894531 -7.03125 4 -6.875 C 4.113281 -6.71875 4.171875 -6.554688 4.171875 -6.390625 C 4.171875 -6.117188 4.085938 -5.804688 3.921875 -5.453125 C 3.765625 -5.097656 3.566406 -4.722656 3.328125 -4.328125 C 3.097656 -3.941406 2.863281 -3.5625 2.625 -3.1875 C 2.382812 -2.8125 2.179688 -2.472656 2.015625 -2.171875 C 1.859375 -1.867188 1.78125 -1.628906 1.78125 -1.453125 C 1.78125 -1.148438 1.929688 -1 2.234375 -1 C 2.367188 -1 2.515625 -1.03125 2.671875 -1.09375 C 2.835938 -1.164062 3.039062 -1.316406 3.28125 -1.546875 L 3.40625 -1.40625 C 2.820312 -0.863281 2.332031 -0.472656 1.9375 -0.234375 C 1.550781 -0.00390625 1.226562 0.109375 0.96875 0.109375 Z M 0.96875 0.109375 "/></g></g></g><g fill="#ffffff" fill-opacity="1"><g transform="translate(256.914094, 274.472149)"><g/></g></g><g fill="#ffffff" fill-opacity="1"><g transform="translate(264.360478, 274.472149)"><g><path d="M -2.21875 2.90625 C -2.34375 2.90625 -2.488281 2.890625 -2.65625 2.859375 C -2.832031 2.835938 -2.984375 2.789062 -3.109375 2.71875 C -3.234375 2.65625 -3.296875 2.570312 -3.296875 2.46875 C -3.296875 2.34375 -3.242188 2.203125 -3.140625 2.046875 C -3.046875 1.898438 -2.925781 1.769531 -2.78125 1.65625 C -2.632812 1.550781 -2.488281 1.5 -2.34375 1.5 C -2.082031 1.5 -1.726562 1.566406 -1.28125 1.703125 C -0.832031 1.847656 -0.378906 1.992188 0.078125 2.140625 C 0.441406 1.992188 0.71875 1.832031 0.90625 1.65625 C 1.101562 1.476562 1.257812 1.234375 1.375 0.921875 C 1.488281 0.617188 1.617188 0.195312 1.765625 -0.34375 C 1.867188 -0.726562 1.96875 -1.15625 2.0625 -1.625 C 2.164062 -2.09375 2.253906 -2.5625 2.328125 -3.03125 C 2.398438 -3.507812 2.453125 -3.960938 2.484375 -4.390625 C 2.523438 -4.816406 2.535156 -5.171875 2.515625 -5.453125 C 2.503906 -5.722656 2.46875 -5.90625 2.40625 -6 C 2.34375 -6.101562 2.242188 -6.15625 2.109375 -6.15625 C 1.984375 -6.15625 1.832031 -6.101562 1.65625 -6 C 1.476562 -5.90625 1.242188 -5.722656 0.953125 -5.453125 L 0.828125 -5.59375 C 1.398438 -6.132812 1.859375 -6.519531 2.203125 -6.75 C 2.554688 -6.988281 2.84375 -7.109375 3.0625 -7.109375 C 3.34375 -7.109375 3.539062 -7.007812 3.65625 -6.8125 C 3.769531 -6.625 3.832031 -6.382812 3.84375 -6.09375 C 3.84375 -5.851562 3.820312 -5.503906 3.78125 -5.046875 C 3.75 -4.597656 3.6875 -4.082031 3.59375 -3.5 C 3.507812 -2.914062 3.394531 -2.289062 3.25 -1.625 C 3.101562 -0.957031 2.9375 -0.300781 2.75 0.34375 C 3.476562 -0.34375 4.125 -1.039062 4.6875 -1.75 C 5.257812 -2.46875 5.734375 -3.132812 6.109375 -3.75 C 6.066406 -4.382812 6.035156 -4.894531 6.015625 -5.28125 C 5.992188 -5.675781 6.003906 -5.988281 6.046875 -6.21875 C 6.097656 -6.46875 6.238281 -6.675781 6.46875 -6.84375 C 6.707031 -7.019531 6.96875 -7.109375 7.25 -7.109375 C 7.488281 -7.109375 7.609375 -7.015625 7.609375 -6.828125 C 7.609375 -6.535156 7.507812 -6.140625 7.3125 -5.640625 C 7.113281 -5.148438 6.835938 -4.601562 6.484375 -4 C 6.140625 -3.394531 5.722656 -2.769531 5.234375 -2.125 C 4.753906 -1.488281 4.222656 -0.867188 3.640625 -0.265625 C 3.066406 0.328125 2.457031 0.863281 1.8125 1.34375 C 1.164062 1.820312 0.503906 2.203125 -0.171875 2.484375 C -0.847656 2.765625 -1.53125 2.90625 -2.21875 2.90625 Z M -2.21875 2.90625 "/></g></g></g><g fill="#ffffff" fill-opacity="1"><g transform="translate(275.83651, 274.472149)"><g><path d="M 1.84375 0.09375 C 1.425781 0.09375 1.09375 0.00390625 0.84375 -0.171875 C 0.59375 -0.359375 0.414062 -0.578125 0.3125 -0.828125 C 0.207031 -1.085938 0.15625 -1.328125 0.15625 -1.546875 C 0.15625 -2.035156 0.269531 -2.539062 0.5 -3.0625 C 0.726562 -3.582031 1.035156 -4.082031 1.421875 -4.5625 C 1.804688 -5.050781 2.238281 -5.484375 2.71875 -5.859375 C 3.195312 -6.242188 3.6875 -6.546875 4.1875 -6.765625 C 4.695312 -6.984375 5.179688 -7.09375 5.640625 -7.09375 C 6.003906 -7.09375 6.273438 -7.007812 6.453125 -6.84375 C 6.628906 -6.6875 6.71875 -6.484375 6.71875 -6.234375 C 6.71875 -5.984375 6.640625 -5.734375 6.484375 -5.484375 C 6.335938 -5.242188 6.078125 -4.960938 5.703125 -4.640625 C 5.328125 -4.328125 4.804688 -3.945312 4.140625 -3.5 C 3.484375 -3.050781 2.644531 -2.503906 1.625 -1.859375 C 1.6875 -1.535156 1.832031 -1.28125 2.0625 -1.09375 C 2.300781 -0.914062 2.59375 -0.828125 2.9375 -0.828125 C 3.21875 -0.828125 3.507812 -0.882812 3.8125 -1 C 4.113281 -1.113281 4.472656 -1.347656 4.890625 -1.703125 L 5.015625 -1.578125 C 4.421875 -1.066406 3.832031 -0.660156 3.25 -0.359375 C 2.675781 -0.0546875 2.207031 0.09375 1.84375 0.09375 Z M 1.59375 -2.125 L 1.59375 -2.078125 C 2.351562 -2.546875 2.972656 -2.957031 3.453125 -3.3125 C 3.929688 -3.664062 4.304688 -3.984375 4.578125 -4.265625 C 4.847656 -4.546875 5.035156 -4.800781 5.140625 -5.03125 C 5.253906 -5.269531 5.3125 -5.5 5.3125 -5.71875 C 5.3125 -5.9375 5.238281 -6.125 5.09375 -6.28125 C 4.957031 -6.4375 4.753906 -6.515625 4.484375 -6.515625 C 4.109375 -6.515625 3.742188 -6.375 3.390625 -6.09375 C 3.046875 -5.820312 2.734375 -5.460938 2.453125 -5.015625 C 2.179688 -4.566406 1.960938 -4.085938 1.796875 -3.578125 C 1.640625 -3.078125 1.570312 -2.59375 1.59375 -2.125 Z M 1.59375 -2.125 "/></g></g></g><g fill="#ffffff" fill-opacity="1"><g transform="translate(286.641025, 274.472149)"><g><path d="M -0.140625 0 C -0.242188 0 -0.3125 -0.03125 -0.34375 -0.09375 C -0.382812 -0.164062 -0.375 -0.25 -0.3125 -0.34375 C -0.125 -0.664062 0.0859375 -1.035156 0.328125 -1.453125 C 0.566406 -1.878906 0.8125 -2.320312 1.0625 -2.78125 C 1.3125 -3.25 1.539062 -3.695312 1.75 -4.125 C 1.96875 -4.5625 2.140625 -4.9375 2.265625 -5.25 C 2.398438 -5.570312 2.46875 -5.800781 2.46875 -5.9375 C 2.46875 -6.164062 2.347656 -6.28125 2.109375 -6.28125 C 1.828125 -6.28125 1.382812 -6.003906 0.78125 -5.453125 L 0.65625 -5.59375 C 1.238281 -6.132812 1.734375 -6.519531 2.140625 -6.75 C 2.554688 -6.988281 2.894531 -7.109375 3.15625 -7.109375 C 3.425781 -7.109375 3.617188 -7.03125 3.734375 -6.875 C 3.847656 -6.71875 3.90625 -6.554688 3.90625 -6.390625 C 3.90625 -6.210938 3.851562 -5.972656 3.75 -5.671875 C 3.65625 -5.367188 3.53125 -5.035156 3.375 -4.671875 C 3.863281 -5.378906 4.390625 -5.960938 4.953125 -6.421875 C 5.523438 -6.878906 6.148438 -7.109375 6.828125 -7.109375 C 6.929688 -7.109375 7.0625 -7.097656 7.21875 -7.078125 C 7.375 -7.066406 7.507812 -7.035156 7.625 -6.984375 C 7.738281 -6.941406 7.796875 -6.875 7.796875 -6.78125 C 7.796875 -6.664062 7.742188 -6.523438 7.640625 -6.359375 C 7.546875 -6.203125 7.421875 -6.0625 7.265625 -5.9375 C 7.109375 -5.8125 6.9375 -5.75 6.75 -5.75 C 6.507812 -5.75 6.25 -5.773438 5.96875 -5.828125 C 5.695312 -5.890625 5.34375 -5.984375 4.90625 -6.109375 C 4.570312 -5.859375 4.207031 -5.476562 3.8125 -4.96875 C 3.425781 -4.457031 3.039062 -3.859375 2.65625 -3.171875 C 2.445312 -2.753906 2.234375 -2.34375 2.015625 -1.9375 C 1.796875 -1.539062 1.59375 -1.191406 1.40625 -0.890625 C 1.226562 -0.585938 1.09375 -0.359375 1 -0.203125 C 0.914062 -0.0664062 0.800781 0 0.65625 0 Z M -0.140625 0 "/></g></g></g><g clip-path="url(#69f0796a33)"><g transform="matrix(1, 0, 0, 1, 20, 137)"><g clip-path="url(#0df9a10771)"><g clip-path="url(#3dec33702e)"><path fill="#ffffff" d="M 0.921875 0.125 L 144.929688 0.125 L 144.929688 7.746094 L 0.921875 7.746094 Z M 0.921875 0.125 " fill-opacity="1" fill-rule="nonzero"/></g></g></g></g><g clip-path="url(#6a0d01698b)"><path fill="#ffffff" d="M 164.777344 137.222656 L 164.777344 144.460938 L 172.015625 144.460938 Z M 164.777344 137.222656 " fill-opacity="1" fill-rule="nonzero"/><path fill="#ffffff" d="M 172.015625 144.628906 L 164.777344 144.628906 C 164.65625 144.628906 164.585938 144.554688 164.585938 144.460938 L 164.585938 137.222656 C 164.585938 137.152344 164.632812 137.082031 164.703125 137.058594 C 164.753906 137.011719 164.847656 137.035156 164.894531 137.082031 L 172.132812 144.320312 C 172.179688 144.367188 172.203125 144.4375 172.179688 144.507812 C 172.132812 144.578125 172.085938 144.628906 172.015625 144.628906 Z M 164.941406 144.273438 L 171.5625 144.273438 L 164.941406 137.652344 Z M 164.941406 144.273438 " fill-opacity="1" fill-rule="nonzero"/></g><g clip-path="url(#0760ba32a5)"><g transform="matrix(1, 0, 0, 1, 202, 136)"><g clip-path="url(#d8fbb1b426)"><g clip-path="url(#0664ee7b51)"><path fill="#ffffff" d="M 8.28125 1.1875 L 8.28125 8.726562 L 0.742188 8.726562 Z M 8.28125 1.1875 " fill-opacity="1" fill-rule="nonzero"/></g><g clip-path="url(#3bf99b6b6d)"><path fill="#ffffff" d="M 0.742188 8.898438 L 8.28125 8.898438 C 8.402344 8.898438 8.476562 8.824219 8.476562 8.726562 L 8.476562 1.1875 C 8.476562 1.113281 8.429688 1.039062 8.355469 1.015625 C 8.304688 0.964844 8.207031 0.988281 8.15625 1.039062 L 0.617188 8.578125 C 0.570312 8.628906 0.542969 8.703125 0.570312 8.777344 C 0.617188 8.847656 0.667969 8.898438 0.742188 8.898438 Z M 8.105469 8.527344 L 1.210938 8.527344 L 8.105469 1.632812 Z M 8.105469 8.527344 " fill-opacity="1" fill-rule="nonzero"/></g></g></g></g><g clip-path="url(#1578fad0c1)"><g transform="matrix(1, 0, 0, 1, 210, 137)"><g clip-path="url(#c0d0027e2d)"><g clip-path="url(#3c129f2579)"><path fill="#ffffff" d="M 0.296875 0.152344 L 144.089844 0.152344 L 144.089844 8.089844 L 0.296875 8.089844 Z M 0.296875 0.152344 " fill-opacity="1" fill-rule="nonzero"/></g></g></g></g><g clip-path="url(#06ed8c9b7a)"><g transform="matrix(1, 0, 0, 1, 20, 156)"><g clip-path="url(#af71d6c3fa)"><g clip-path="url(#04d56dd0b6)"><path fill="#ffffff" d="M 0.921875 0.777344 L 334.074219 0.777344 L 334.074219 7.734375 L 0.921875 7.734375 Z M 0.921875 0.777344 " fill-opacity="1" fill-rule="nonzero"/></g></g></g></g></svg>